<?xml version="1.0" encoding="utf-8"?>
<!-- Generator: Adobe Illustrator 24.0.2, SVG Export Plug-In . SVG Version: 6.00 Build 0)  -->
<svg version="1.1" id="Layer_1" xmlns="http://www.w3.org/2000/svg" xmlns:xlink="http://www.w3.org/1999/xlink" x="0px" y="0px"
	 viewBox="0 0 1000 902" style="enable-background:new 0 0 1000 902;" xml:space="preserve">
<style type="text/css">
	.st0{fill:#ECECEC;stroke:#000000;stroke-width:0.1;stroke-linecap:round;stroke-linejoin:round;}
</style>
<path id="MB" class="st0" d="M659.5,395.9l-8.6,11.2l-8.7,11.2l-13,17l-0.9,1l-9.9,10.4l0.3,36.3v4.8v4.2l-0.1,0.2l-5.1,0.1
	l-10.8-0.1l-11.4-0.3l-8.5-0.3l-12.1-0.6v-17.4v-23l0.1-10.3l0.1-15.6l0.2-15.6l3.4-51.6l8.5,0.4l8.5,0.4l5.6,0.2l11.3,0.2l11.3-0.1
	l0.2,2.8l-0.2,1.6l0.7,3.6l-0.4,0.8l-0.1,3.5l0.7,0.5v0.8l1.4,1.2l0.6,1.3l1.6-0.7l1.7,0.1l1-0.5l3.4,0.3l0.4,1l0.1,1.9l1.2,3.3
	l1.1,2.2l0.4,2.6l2.2,5.1l0.3,1.1l-0.2,1.7l-0.5,1.4l-0.8,1.4l2.6-0.9l0.4,0.5l1.7-0.6l1.3-0.7l4.8-2.1h1.2l1.8,0.3l3.5,1.8l0.8,0.7
	l0.9,0.3l2.9,0.3l2.4,0.9L659.5,395.9L659.5,395.9z"/>
<path id="SK" class="st0" d="M570.7,491l-11.7-0.8l-9.1-0.7l-9.5-0.9l-6.8-0.7l-8.5-1l-6.7-0.9l-6.8-1l-7.4-1.1v-0.1l20.4-131.9
	l6.2,1l6.3,0.8l6.2,0.8l6.2,0.7l6.3,0.7l6.2,0.6l6.3,0.5l6.2,0.5l-3.4,51.6l-0.2,15.6l-0.1,15.6l-0.1,10.3v23L570.7,491L570.7,491z"
	/>
<path id="AB" class="st0" d="M524.6,351.9l-20.4,131.9v0.1l-6.1-0.9l-6.7-1.2l-10-1.8l-8.3-1.6l0.3-0.6l-0.7-0.7l-0.3-1.2l-1.1-0.5
	l-0.4-1.6l-0.8-1.2l0.6-1.3l-1.3-0.8l0.6-0.5l0.8-1.6l-0.2-1.4l0.5-1l-0.2-1.7l0.1-2.8l-0.4-0.8l-0.7-2l-0.6-0.4l-0.8,0.3l-0.7-1.2
	v-1.2l-1.2-1l-0.2-2.2l-1.2-1.6l-0.6-0.2l-0.7-0.9l0.1-0.9l-1.3-1.3l-0.2-1l0.2-0.8l-0.6-0.7l-0.4-1.4l-0.5-0.6l-0.4-2.1h-0.5
	l-1,0.9l-0.5-0.3l-0.3-2.4l-1.2-2l-0.5-1.2l-1.6-0.3l-0.9-1.1l-0.3-1l0.7-0.5l0.1-0.9l-0.9-0.4l-0.5-0.9l-0.8,0.9l-1.1,0.1l0.1-1.5
	l-0.3-1.8l0.4-0.5l-0.3-1.9l-0.5-1.1l-0.7,0.1V424l-0.8-2.2l-1-0.8l-0.4,1l-1.5-1.3l-0.3-1.9l-1.5-0.7l-0.9-0.7l-0.2-1.2l-0.5-0.3
	l0.3-1.1l1,0.4v-1.3l-0.7-0.3l-0.2-1.9l19.7-72.8l7.6,2l7.6,1.9l7.7,1.8l7.6,1.7l7.7,1.5l7.7,1.5l7.8,1.4L524.6,351.9L524.6,351.9z"
	/>
<path id="BC" class="st0" d="M402,461.4v0.8l0.5,0.8l-1.1,0.4l-0.2-1.5L402,461.4L402,461.4z M384.5,450.9l-1.1-0.4l0.3-1.2l0.8,0.1
	L384.5,450.9L384.5,450.9z M398.7,450.5l0.7,1.8l-0.3,0.4l-1.5-1.6l-0.3-1.9l1.1,0.8L398.7,450.5L398.7,450.5z M381.9,442.7l0.3,1.3
	l-0.3,1.5l-0.6,0.3l-0.8-0.7l-0.5-1l0.5-1l-0.4-0.7l1.7-0.1L381.9,442.7L381.9,442.7z M395.3,445.2l-0.2-1.4l1-0.2l-0.1,1.2
	L395.3,445.2L395.3,445.2z M393.9,444.9l-0.2-1.1l-0.5-0.8l0.2-1.2l0.6-0.4l0.6,1l-0.7,0.9V444.9z M398.1,442.6l0.3,0.6l-0.3,0.8
	l-0.9-0.9L398.1,442.6z M389.3,434.1l-1.1,0.8l-1.9-1.3l1.8-0.7h0.9L389.3,434.1L389.3,434.1z M377.8,428.5l2.3,2l0.4,1l1.1,1.5
	l2.8,1.9l1.9,1.6l0.7,0.1l1.7,0.9l0.9,1.1l1.4,1l1.1,0.2l0.9,1l-0.1,2.3l0.6,1.5l-0.1,1.2l1.4,2.9l-0.5,1.1l0.2,2l0.5,0.2l1,1.5
	l1.3,0.6l1.3,1l0.4,1l0.8,0.4l-0.1,1l0.8,0.6l0.1,1l-0.4,0.6l0.9,2.1l-0.3,2.4l1,0.5l0.3,2.2l-0.8,0.3l-0.4-0.6l-1.3,1l-0.8-0.1
	l-0.8-0.8l-0.8-0.3l-3.2-2.9l-1.8-1.3l-0.9-1.2l-1.7-1.6l-0.4-1l1.7-0.7l0.6-0.9l-1.3-0.5l-0.7,0.3l-1-0.8l-1.1,0.5l-0.8-0.9
	l-0.5-1.2l0.7-1.3l-0.6-1.4l-1,0.1l-0.3-2l0.4-0.6h-1.7l-1-0.6l-0.9,0.2l-0.3-0.5l0.7-2l1-0.2l0.1-0.9l-0.8-0.6l0.3-1.9l-0.8-0.5
	l-1.5,0.1l-1.4-0.6l-0.3-1.1l1-1.2l-1.6-0.1l-0.5-1.4l-0.9-0.2l-0.1-0.7l-1.3,0.6l-0.6-0.9l1.3-0.7l-0.3-1.5l-0.7-0.2l0.9-1.2
	l2.4,0.6l0.3-0.8l-2,0.1l-1.8-0.2l-0.8-1.2l-0.3-1.2v-2.1l2.7-0.2L377.8,428.5L377.8,428.5z M380.3,421.7l-0.7,0.4l-0.7-1.1l0.1-1.7
	l1.4-0.7l0.1,1.6L380.3,421.7L380.3,421.7z M382.1,414.8l-0.2,0.9l-1.2,1.4l-0.3,0.9h-0.8l0.5-1.3l-0.2-1.3l0.8-0.7L382.1,414.8
	L382.1,414.8z M383.2,413.9l-0.8,0.7l-1-0.5l0.7-0.6L383.2,413.9L383.2,413.9z M380.2,414.7l-0.2-1.2l0.8-0.7l0.5,0.2l-0.4,1
	L380.2,414.7L380.2,414.7z M380.7,412.1l-0.6,1.1l-1.4-0.8l0.8-0.7L380.7,412.1z M383.1,412.3v1.2l-1.2-0.2l-0.1-0.8l0.7-0.6
	L383.1,412.3z M387,414.2l-1.6,0.2l-0.7,0.4l-1,1.4l-1.5,0.1l0.6-1.4l0.9-1.2l2.6-0.5l1-0.7l1.3,0.1l-0.1,0.9L387,414.2L387,414.2z
	 M379,408.4v1.3l-1,0.3l0.4-1.7L379,408.4L379,408.4z M380.5,407.4l-0.1,1.4l-0.6,0.4l-1.1-1.4l0.5-0.9L380.5,407.4L380.5,407.4z
	 M359.9,397.7l1.3,0.8l-0.4,0.7l-1.1-0.8L359.9,397.7z M380.6,410.3l0.2-1.8l0.8-2.5l0.7,1l-0.5,2.1L380.6,410.3L380.6,410.3z
	 M377.4,404.8l0.4,1.6l-0.3,0.8l-0.9-0.3l-0.5-1.5l-0.1-1.8l0.5-0.6L377.4,404.8z M382.4,407.9l0.2-1.9l0.8,0.5L382.4,407.9z
	 M376.8,399.1l0.3,1.2l-0.8,0.4l-0.1-1.5L376.8,399.1z M361.4,391.4l-0.3,1l0.4,0.5l0.2,1.2l-0.7,1.5l-0.7,0.3l-1.1-0.3l-0.5,1.6
	l0.6,0.5l-0.3,2l1.3,1.7l-0.2,1.9l1.4,0.3v1.3l-1.1,0.8l-0.7-0.6l-0.3-0.9l-0.8-4l-0.9-1.5v-1l-0.9-1.7l-0.5-2.7l1.4,0.5l-0.3-1.1
	l-1.7-0.9l0.3-1.3l1,0.7l2.2,0.5l1.4-0.4L361.4,391.4L361.4,391.4z M382.2,400.9v1.8l-0.7,1.9l-1.5,2.5l-1-0.3l0.6-1.6l1.4-1.6
	l-0.7-0.3l-1,2l-1.2,0.3l-0.6-1.1V402l0.3-1l1-0.5l1-2.4l1.1,0.6l0.4,1.1L382.2,400.9L382.2,400.9z M378.5,400.2l-1.2-0.8l0.5-1
	l1.3-0.7L378.5,400.2L378.5,400.2z M381,398l-1.4-0.2v-0.6l1.5-1.5l0.2,1.7L381,398L381,398z M373.2,392.1l1.2,1.9l0.6,3.1l-0.3,0.8
	l-1.3-0.5l-0.4-2l-0.5-1.2l-0.6-0.3l-0.3-1.7l-0.4-0.8l0.6-0.8L373.2,392.1L373.2,392.1z M382.3,395.4l-0.7-0.2l-1.9,1l0.9-2
	l0.9-0.3l1.6,0.2L382.3,395.4z M374.2,392.1l-1-0.3l-0.6-1.5l1-0.4l0.8,1L374.2,392.1L374.2,392.1z M376.8,392.2l0.2,1.1l1.3,3.5
	l-1.1,0.4l-0.5,0.7l-0.6-0.1l-0.2-1.3l-0.6-1.1l0.2-1l-0.2-1.8l-0.7-0.1l0.1-1.6l-0.6-0.5l0.3-0.8L374,389l1-0.7l0.8,1.2l0.8,1.8
	L376.8,392.2L376.8,392.2z M375,387l-0.2,1l-1.2,0.8l-0.5-1.1l-0.4-0.2l-0.5-1.3l2.3-0.4L375,387L375,387z M357.8,378l1.2,1l1.3,0.7
	l-0.2,0.9l1.2-0.3l0.8,0.2l0.4,1.7l-0.3,1.4l-1.3,0.8l-1-0.2l-1.2,0.2l0.7,1l1.7,0.1l0.1-1l1.3-1l0.3-1.7l1.4,0.5l1.8-0.3l-0.5,1.5
	l-2.2,1.8l-1.1,1.7l-0.5,1l-0.6,2l-1.1,0.8l-1.6-0.3l-0.3,0.3l-1.7-0.1l-0.2-1.2l-0.9-1.5l0.6-0.4l1.1,0.5l0.4-0.5l-2.2-2.3l0.7-1
	l-0.4-3.8l1.4-1.3v-0.8L357.8,378L357.8,378z M374.5,379l-0.5,0.7l-1.6,0.6l1.1-1.9L374.5,379L374.5,379z M376.9,378.6h-0.6
	l-0.3-0.9l0.9-0.2V378.6z M377.5,378.2l-0.2-0.9l2-1l0.7,0.3l-1.3,1.1L377.5,378.2z M473.1,478.4l-8.4-1.8l-6.6-1.4l-7.5-1.7
	l-9.2-2.3l-6.6-1.7l-8.2-2.1l-8.2-2.3l-10.5-3.2l-1.2-1.4l-0.9,0.8l-0.4-0.1l-0.5-1.8l0.6-1l-0.3-0.8l0.5-0.6v-0.9l0.6-2.1l-2.1,0.4
	l-0.1,0.9l-0.8,0.3l-2.5-2.4l-0.3-1.5l0.6-1l0.9-0.4l-0.7-0.9l-1.1,0.4l-1.7-0.4l-1.7-2.9l1.9-2.8l-0.4-1.3l-1.8-0.8l-0.7-0.1
	l-0.1-1.4l-1.7-1.3l-1,0.2l-1.4-0.3l-0.6-1.3l-1.1,0.3l-1.9-1l0.7-0.7v-0.8l1.5,0.2l0.4-0.5l-0.8-0.7v-1.3l-1.5-0.5l-0.8,0.2
	l-0.3-1.3l-0.8,0.1l-1.1-1.2l-1.6,1l-0.6-0.8l-1.8-1.6l-0.5-1l0.7-1.2l-1-0.1l-0.7-1.1l0.1-0.8l2.3-0.2l-1.1-0.7l0.4-0.6l1.1-0.5
	l0.7-1.3l0.5-0.3l1.2,0.1l1.9,0.5l2.3,1.1l0.1-0.2l-2.6-1.4l-2.1-0.4l-1.3-0.9v0.9l-1.2,1.6l-0.8-0.1l0.1-1.8l-0.2-0.9l0.4-1.7
	l0.7-1h1.3l0.9-1.3l1.4-0.4l1.1-0.6l0.5,0.1l1.4-1l-0.1-1.3l-1.7-0.1l-0.5,0.5l-2.5,0.4l-1.2-1.6l0.2-2l-1.7,1.7l-0.4-0.9l1-0.6
	l0.3-1.1l1.6-1.9l0.3-1.1l-1.1,0.2l-1-0.7l-0.1-0.6l0.6-3.2l-0.7-1.1l-0.8-1.6l0.6-1.6l-0.3-0.6l1.5-0.4l0.2-1.2l0.6-1.3l0.8-0.3
	l0.1-1.2l-1.1,0.7l-2.2,0.6l-1.1,0.7l-0.9,2.1l-0.9,0.3l-1.8-5.4l-0.9-2.8l0.9-2.4l-0.9-1l0.6-0.4l0.1-1.2l-1.2-0.4l1.1-2.4l0.7-0.1
	l0.2-0.8l1.4-0.3l1.1-1.6l1.1-0.7l1-1.3l1.1-0.7l1.9-1.7l-0.2-1.4l-0.8,1l-0.4,1.1l-2.7,2.5l-0.3-1.2l1-1l1.2-0.6l0.4-2.3v-1.6
	l0.6-1l-0.1-0.7l1.5-1.7l0.4-1.1v-1l-1.9-1.3l-0.1-1.5l-0.8-0.7l-0.7-1.7l-1.5-1.1l-2.1-3.4l-1.4-0.5l0.2-2l0.3-0.5l-1.1-1.3
	l1.2-1.7l-1.6-1.4l1.2-1.1l-0.1-2l-0.4-2.2l-0.4-5.3l-0.3-1.9l0.1-1.8l-0.5-2.2l0.3-2.1l-0.5-1.4l-0.5-2.8l-1.5-2.2l-0.4-1.9
	l0.4-0.9l-0.6-1.2l-0.2-1.7l-1.2-1l-0.2-2.1l1.1-1.2l-0.6-2.4l-0.7-1.7l-3.2,0.3l-2.2-0.4l-0.8,1.4l-1.2-0.2l-1,2l-1.5,1.1l-1.4-0.6
	l-3.4,0.6l-1.3,0.5l0.1-1.1l0.7-3.2l-2.8-8.5l0.3-1.8l-1.4-2.3l10.7,5.4l8.1,3.8l5.4,2.5l5.5,2.5l8.2,3.5l5.5,2.3l5.6,2.3l5.6,2.2
	l5.5,2.1l5.7,2.1l8.4,3l8.5,2.8l5.7,1.8l5.7,1.8l5.8,1.7l5.7,1.7l5.8,1.6l-19.7,72.8l0.2,1.9l0.7,0.3v1.3l-1-0.4l-0.3,1.1l0.5,0.3
	l0.2,1.2l0.9,0.7l1.5,0.7l0.3,1.9l1.5,1.3l0.4-1l1,0.8l0.8,2.2v1.7l0.7-0.1l0.5,1.1l0.3,1.9l-0.4,0.5l0.3,1.8l-0.1,1.5l1.1-0.1
	l0.8-0.9l0.5,0.9l0.9,0.4l-0.1,0.9l-0.7,0.5l0.3,1l0.9,1.1l1.6,0.3l0.5,1.2l1.2,2l0.3,2.4l0.5,0.3l1-0.9h0.5l0.4,2.1l0.5,0.6
	l0.4,1.4l0.6,0.7l-0.2,0.8l0.2,1l1.3,1.3l-0.1,0.9l0.7,0.9l0.6,0.2l1.2,1.6l0.2,2.2l1.2,1v1.2l0.7,1.2l0.8-0.3l0.6,0.4l0.7,2
	l0.4,0.8l-0.1,2.8l0.2,1.7l-0.5,1l0.2,1.4L470,470l-0.6,0.5l1.3,0.8l-0.6,1.3l0.8,1.2l0.4,1.6l1.1,0.5l0.3,1.2l0.7,0.7L473.1,478.4
	L473.1,478.4z"/>
<path id="NU" class="st0" d="M734.6,444.3l-0.4,1.4l-0.5,0.4l-1.5,0.3l-0.4-0.5l2-1.8L734.6,444.3L734.6,444.3z M716.6,433.4h2.2
	l1.3,1l1.7,1.6l1.2,2.3l-0.8,0.3h-1.8l-2-0.8H717l-3.6-0.8l-0.9-0.4l1-2.1L716.6,433.4z M726.8,430l0.4,1l-0.7,0.2l-0.6-0.6
	L726.8,430L726.8,430z M729,392.7l0.3,1.9l-0.9,1l-0.7-0.4l0.4-1l-0.2-1.3l0.3-1h0.7L729,392.7L729,392.7z M722.5,393.8l-0.4,0.8
	l-1.5,1.6l-0.9-0.3l0.5-1.2l0.7-0.2l0.1-0.7L722.5,393.8L722.5,393.8z M725,389.7l-0.5,0.4l0.3,1l0.7-0.1l1,2.1l-0.1,1.6l-0.6,0.4
	l-0.6,3l-0.5,1.3h-1.2v-0.5l0.7-2.1h-0.8l-1.3,3.5l-1.2-0.4l1.4-3.5l1-1.5l1,0.2l0.2-3.1l-0.3-2.2L725,389.7L725,389.7z
	 M712.5,351.4l0.5,0.7l-0.7,0.8l-0.5-0.8L712.5,351.4z M804.9,320.2l-0.2,0.8l-1.6-0.2L802,320l1.2-0.8L804.9,320.2L804.9,320.2z
	 M782.6,324.9l0.5-0.1l1.5,1.1l-0.3,1.8l-1.7,2.3l-0.9-0.5v-4.3L782.6,324.9z M721.1,337.5l-0.5,1.1l-1.9,1l0.2-1L721.1,337.5z
	 M797.5,306l0.9-0.1l-0.2,0.9l0.5,1l-0.3,0.6v1.2l-1.7-0.6l-3.1-1.3l0.1-0.9l2-1.2l2-0.2L797.5,306z M630,334l0.4,0.7l-0.5,0.5
	l-0.8-1.2H630L630,334z M794.6,302.9l0.8,0.3l1.3,1.2l-0.3,0.6l-1.6-0.2l-0.7-0.5l-0.4-1L794.6,302.9z M710.2,319.5l1.3,1.5l0.2,1.3
	l-0.3,2.5l-0.4,1.5v1.1l-0.8,2.4l-0.6,0.2l-0.8-1.2l-1.6-0.9l-1-1.8v-2.7l0.9-2.4l0.2-0.9l0.5-0.6l1.6-0.4L710.2,319.5L710.2,319.5z
	 M794.1,294.8l1.6-0.6l0.4,0.4l-0.7,2l-2.1,0.1l-0.4-0.5l0.3-1.3L794.1,294.8z M738.2,309l0.5,0.4l2-0.3l-0.3,1h-1.5l-1.9-0.7
	L738.2,309z M758.6,302.1l2,0.4l2.4,1.7l-0.8,1.1l-1.9,0.3l-1.1-0.8l-0.1-0.6l-1.3-1.4l-0.6,0.3l-1.1-0.9L758.6,302.1L758.6,302.1z
	 M693.4,314.7l1.5,0.3l-0.4,1.7l0.3,1.3l-0.9,1.2l-0.9,0.5l-0.5,1.6l-1,1.1l-0.6,1.2l-1.7,1.9l-0.3,0.1l-1-0.8l-0.8,0.3l-1.4,1.4
	l-0.7-2l-1.1-1l-0.1-1.2l1-1.2l0.7-1.8l-0.1-1.6l1.2-1.5l1.1,0.9l0.7-0.2l1.4-1.3l1.8-0.1l0.9-1L693.4,314.7L693.4,314.7z
	 M713.4,304.3l0.3,0.4l1-0.7l2-0.1l0.9,0.3l0.6,0.9l1,0.9l-0.5,1.8l-1.6,1.1l-1.8-1.3l-2.3-1.9l-0.2-0.7L713.4,304.3L713.4,304.3z
	 M793,283.5l-1.5-0.6l-1-1.6l0.5-0.9L793,283.5z M720.1,300.6l0.1-0.3l2.7,1l1,1.1l-0.4,1.4l-1.7-0.1l-2.2-1.6l-0.8-0.2l-0.1-1.3
	H720.1z M788.5,278.1l0.9,0.4l-0.2,0.9l1.3,0.2l-0.3,0.8l-1.5-0.8l-0.5,0.4l-0.9-0.4l0.3-1L788.5,278.1z M717,296.6l-0.8,1.2h-1.5
	v-0.7l1.9-0.7L717,296.6L717,296.6z M737.9,285.5l0.3,1.6l-0.5,0.7l-0.5-1.4l0.5-0.4l-0.8-0.7l0.7-0.8L737.9,285.5L737.9,285.5z
	 M781.4,269.3l0.7,1l-0.6,1.1l-1.2,1.1l-0.3-0.4l0.7-2.2L781.4,269.3L781.4,269.3z M791.4,251l2,0.2l-0.6,1l-1.3-0.7L791.4,251
	L791.4,251z M681.3,278.3l-1.3,0.6l-0.2-0.7L681.3,278.3z M669.5,280.5l0.8-0.6l0.7,0.3l0.3,1.3l0.8,1.1l-1.3,1.2l1.4,0.9l0.5,1.4
	l1.2,1.7l0.4-1.1l-0.1-0.8l0.7-1.9l0.9,0.9l1.7,0.8l-0.4,0.8l0.9,0.8l1.5,0.4l1.6-0.2l0.9,0.2l0.5,1.3l0.9,1.1l1.9,0.6l1.1,1.1
	l1,0.3l1-0.4l1,0.9l0.5-0.1l1.8,1.8l0.5,0.2l0.9,3.3l0.8,0.8l-0.1,0.8l-1.5,1l-0.2,1l2.8-1l0.4-0.6l1.9,0.4l0.8-1.4l1.3,1.1l1.1,0.5
	l0.2,0.6l2.1,1.8l-1.5,0.6l-0.5,1.3l-0.9,1l-1.1,1.8l-2.7-0.8l-1.1-0.2l-0.7-0.6h-0.8l-1.3-0.5l-2.3,0.4l-0.5-0.7l0.1-0.7l0.8-0.8
	l-0.3-0.9l-0.9-0.5h-1.8l-1.3,0.6l-0.4-0.6l0.7-1.5l-0.3-1l-2.9,1.5l-0.6,1.4l0.6,1l-0.2,0.7l0.3,1.4l-0.8,0.1l-1.4,2.1l-1.3,0.1
	l-0.5,1l-0.2,2.2l-0.5,1.1l-1.9,1.8l-1.8,1.1l-1.3,0.1l-0.9-1.4l-0.4-2.2l0.2-1.1l-0.4-2.3l-1-0.4l-2.7,1.2l-1.3-0.2l-0.9,0.3
	l-1.1,1.4l-1.1,0.2l-0.7-0.4l-0.4-0.9l0.2-0.9l1.4-2.8l2.2-1.4l1.5-1.3l-0.2-1l-0.6-0.6l-0.4-0.9v-1.4l-0.4-0.3v-2.8l0.6-3.9
	l-0.4-0.6l0.3-1.4l-0.4-2.5l-0.1-1.3l0.3-3.8l0.4-1.4l1.5-2.1l0.7-0.3L669.5,280.5L669.5,280.5z M671.7,277.4l1.9,2.1l1.1,2.5
	l-0.6,1.2l-0.8-0.3l-0.2-1l-1.6-1.2l-0.6-2.4v-0.8L671.7,277.4L671.7,277.4z M675.1,275.5l1.6,0.5l2.2,1.6l0.1,1l-0.5,0.4l2,1l1-0.1
	l0.3,0.8l-0.5,0.7l-0.7-0.5l-1,0.2l-0.8-0.3l0.5-0.9l-1.1-0.3l-0.4,0.6l-1-0.2l-0.1-1.9l-0.5-0.8l-1-0.3l-0.7-0.9L675.1,275.5
	L675.1,275.5z M681.2,272.1l0.6,0.5l-0.1,0.9l-1.2-0.7L681.2,272.1L681.2,272.1z M784.7,232.9l0.1,0.4l-1.1,2l-0.5-0.5l0.3-1.3
	L784.7,232.9L784.7,232.9z M778.1,233.1l1,0.7l-1.6,0.5l0.1-1L778.1,233.1z M550.3,258.1l-0.3,0.6l-0.9-1l1.4-0.4L550.3,258.1z
	 M776.3,231.3l-1.3,0.3l-0.1-1.8l1.2,1L776.3,231.3L776.3,231.3z M544.9,249.5l1.3,0.6l-0.4,0.9l-0.9-0.9L544.9,249.5L544.9,249.5z
	 M722.4,239.8l2.8,0.1l1.1-0.1l0.7,0.4l0.7,2.5l-5,1.2l-1.5-0.7l-1-1.6l-0.2-1.1l1.4-0.4l0.5-1.6l0.6,0.4L722.4,239.8L722.4,239.8z
	 M761.1,226.2l0.2,1l-2,0.2l0.6-0.9L761.1,226.2z M661.6,252.3l-0.3,2l-0.5,1l-1.4-0.8l-0.7-1.7l0.4-0.6v-0.8l-0.8-0.5l0.2-1.5
	l0.7-1.7l0.4-0.3l1.4,1.2l0.1,1.6L661.6,252.3L661.6,252.3z M715.1,238.2l0.5,0.3l2,0.2l1,1.5l-0.3,2.3l1,1.7l0.8,3.5l-0.5,1.8
	l-0.6,1.2l-0.6,0.1l-1.6,1.8l-1.9,0.2l-0.5,0.5l-1.4,0.5l-1.8,0.2l-0.5-0.4l-1-1.8l-0.4-0.3l-0.2-1.2l-0.9-2.1l0.1-2.3l0.9-4.2
	l0.6-1.6l1.7-1.4l1.2,0.2l0.7-0.8L715.1,238.2z M698.4,243.6l-1-0.5l-0.1-1.7l1-0.3l0.8,0.8L698.4,243.6z M722.3,237.4l-1.7-2.1
	l0.4-0.7l1.4,1.4L722.3,237.4L722.3,237.4z M538.2,241.4h-1l-0.6-0.6l1.1-0.4L538.2,241.4z M569,246.5h-0.6l-1.2-0.9l-0.6-1.4
	l0.9-0.4l1,0.2l1,1.1l0.1,0.9L569,246.5L569,246.5z M699.4,237l-0.2,1l0.2,1.1l-0.5,0.6l-1-0.2v-0.7l0.9-0.6L699.4,237L699.4,237z
	 M719.6,233.6l-1.3,0.3l-0.8-0.7l0.4-0.8L719.6,233.6L719.6,233.6z M717.7,234.2l0.9,0.7l0.3,2.2h-1l-0.3-0.7l-2-1l-0.5-1.7l0.4-1.4
	l1.4,0.4L717.7,234.2L717.7,234.2z M583.3,242.3l0.4,1.6l-0.9,1.3l-2.2-1.4l-0.1-0.3l1.3-0.9l0.3-0.9L583.3,242.3L583.3,242.3z
	 M591.5,240.9l-0.2,1.6l-1,1.1l-1.2-0.8l0.1-3.1l0.5-0.6l0.6,0.2l0.8,1.5L591.5,240.9L591.5,240.9z M592.2,240.6l-1-0.8v-1.2
	l0.9-0.3l0.3,1.3L592.2,240.6z M638.9,234.4l0.7,1.8l-0.6,0.5l-1-2L638.9,234.4L638.9,234.4z M698,226.5l0.7-0.1l0.7,1.1l-0.4,1
	l-0.6,0.2l-0.1,1.9l-0.6,1.3l-0.3,1.4l-1.4,1l-0.3,0.5l-0.9-0.2l-0.3-0.8l0.3-0.7l0.3-1.7l1.1-0.5l0.4-0.7l0.2-2.5L698,226.5
	L698,226.5z M682.1,228.8l1.1,0.1l0.2,0.8l-1.7,0.3l-0.4-0.9L682.1,228.8L682.1,228.8z M640.8,233.9l-0.3,1.8l-1.2-0.9v-0.6l0.9-0.9
	L640.8,233.9L640.8,233.9z M704.7,224.7h2l0.1,1.1l-1,1.7l-0.1,0.9L705,229l-0.6-0.3l-0.9-1.5l-0.2-1.7l0.4-0.8H704.7z M586.6,231.9
	l0.8,0.2v1.1l-1,0.3L586.6,231.9z M609.1,232.4h2.4l0.2,1l-0.2,1.8l-0.8-0.4l-0.4-0.8l-1.1-0.8L609.1,232.4L609.1,232.4z
	 M750.3,210.5l-1.3,1.2l-0.6-0.1l0.9-1.3L750.3,210.5L750.3,210.5z M613.8,231.8l1.5,1.2l-0.2,1.9l-0.6,0.8l-0.9,0.1l0.3-1.2
	l-0.6-0.9l-0.5,1.8l-0.6-2l0.4-1.5l0.7-0.6L613.8,231.8L613.8,231.8z M747,209.3l1,0.8l-0.7,1.8l-1.5-0.7l0.4-1.1L747,209.3z
	 M699.5,222l0.2,0.5l-0.5,1.1l-0.9,0.5l-0.9,1.2l-0.7-0.2l-0.3-0.7l0.4-1.3l1.4-0.4l-0.3-1.1l0.6-0.3L699.5,222z M691,221.7l1.4,0.3
	l0.5,1.2l-1.1,1.2l-1.5,0.5l-0.1,1.5l-1.1-0.3l-0.2-1.1l-0.6,0.1l-0.9-0.6l-1.2,0.2l-0.3-0.4l1.2-1.4l1-0.2l1.7,0.5L691,221.7
	L691,221.7z M677.6,224.7l-0.2,0.4l-1.4-0.4l0.8-0.7L677.6,224.7L677.6,224.7z M634.3,228l-0.5,1.6l-0.9-1L634.3,228z M605.4,231.8
	l0.8-1.1l1.6,2.6l1.8,1l1.5,1.6l1.4,2.4l-0.2,1.3l0.6,1l0.1,1.2l1.4,0.8l0.8-0.9l1,0.6l-1.2,1.6l-0.8-0.2l-1,0.3l-0.4,1.7l-0.6-0.2
	l-1.5,2l-1.1,0.4l-2.6-1.5l-0.6,0.5l-2.1-0.7l-0.9-1.2l-1.2-0.6l-0.6,0.3l-0.8-1l0.1-1.1l-1.3,1l-1.7-1.3l0.3-1.2l-0.8-0.4l-0.7,0.6
	l-0.4,1l-1.1-0.8l-0.8-2.1l0.5-1.1l0.9-0.5l1.5,0.3l0.4-0.5l1.1-0.3l1.5-2.1l-0.9-1.3l0.1-1.6l1.1-0.1l0.3-1.9l0.5-1.3l1.5-1.4
	l0.9,0.6l0.3,0.7l0.9,0.5l0.7,0.9l-0.8,0.5L605.4,231.8z M655.4,222.4l1,0.3l0.7-0.4l0.7,0.9l0.2,0.9l-1.3,0.3l-1.2-0.5l-0.3,0.4
	l-1-0.6l-0.3-1.1L655.4,222.4L655.4,222.4z M590.1,216l1,0.1l0.6,1l0.4,2.1l-1.1-0.5l-0.8-0.8L590.1,216L590.1,216z M723.5,196.3
	l2.4,0.4l-0.1,1.2l-0.8,0.3l-1.9,1.7l-0.9-1.2l0.7-0.6l-0.2-1.5L723.5,196.3L723.5,196.3z M716.2,192.8l0.4-1.5l1,0.8l-0.7,0.6
	l0.2,1l-1.2,0.1l-0.1-0.9l-0.8-0.8l-0.1-0.6l0.7-0.8l0.6,0.4L716.2,192.8L716.2,192.8z M717.7,190.6l-1.2,0.2l-0.4-0.4l0.3-1.1
	l0.8-0.3l0.6,0.8L717.7,190.6L717.7,190.6z M619.7,358.6l-11.3,0.1l-11.3-0.2l-5.6-0.2l-8.5-0.4l-8.5-0.4l3.3-49.1l0.2-2.4l0.1-2.6
	l-14.3-3.9l-6.8-1.9l-6.1-1.9l-11.2-3.6l-1.2-0.6l-1.2-1l-0.6-0.9l-4.7-8.1l-0.3-0.3l-4.9-0.8l-4.9-0.9l-3.1-3.4l-5.6-6.2l-4.4-5.1
	l-5.1-6.1l-5-6.2l-4-5.3l-4-5.3l-3.4-4.8l-0.1-0.3l5.7-20.6l1.4,2.5l1.1,1.2l1,0.3l1.3,0.9l1,0.4l2.6,1.7l0.6,1.6l1.7,1.9l3,1.8
	l0.9,1h1l0.4,0.4l1.9,0.8l0.7-0.1l0.4,0.8l0.8-0.6l-0.9-1.1l0.8-0.3l1.1,1l0.3-0.5l1.4,0.2l1.6,1.5l1,0.6l0.9,1.8l0.9,0.7l0.5,1.7
	l0.7,0.6l0.4,2l0.6,0.7l-1,1.1l-1.6,0.6l-0.4-0.5h-1l-1-0.3l-0.6,1.4l-1.4-0.2l-0.7,1.3l0.5,0.6l-2.2,0.5l-0.1,0.4l1.2,0.7l0.6,1.1
	l1.7,0.2l1.8,1.4l1.1,0.2l1.5,1l2.8,0.3l1.3,0.8l3.2,0.5l0.6-0.8l0.7,0.4l1.6-0.2l1.6,0.8l0.2-0.6l1.3-0.6l1.3,1l1.1-0.4l0.5-0.6
	l0.9-0.2l0.9-0.7l1.1,0.2l0.3-0.7l1,0.6l-0.4,1.5l0.9-0.1l0.5,1l-0.3,1.2l0.9,0.5l0.5-0.7l1.9,0.6l0.3,0.6l0.1,2.1l-0.6,0.5l0.7,1.1
	l0.7-0.4l0.3-1.9l0.8-0.3l0.4,2.7l2.1,2.3l0.3,1.6l-0.1,1.6l-1.3-0.6L548,263l0.3,1.5l-0.2,0.8l0.7,0.5l0.7,1.2l0.5,1.8l1.8,3.7
	l0.4-0.2l-1.6-3.1l-0.3-1.5v-4.1l0.8,0.4l0.5,0.9l1.5-2l-1.2-1.9l-0.4-2.3l0.6-1.7l-1.8-2.8v-0.6l0.6-1.6l1.4-0.6l0.2-0.4l-1.2-1
	l0.3-1.2l0.7,0.1l1.5,0.9l2.7-0.8l0.8,0.4l-0.1-1.5l1.7-0.3l1.3-1.8l0.8,0.4l0.8-0.8l1.1,0.2l0.4-0.9l-0.7-2.1l-1.1,0.5l-2.3,0.7
	l-0.4,1.4l0.3,0.5l-0.7,1l-0.5-1.1h-1.4l-0.7,0.9l-1.9-0.6l-0.1-0.4l-1.6,0.1l-0.3,0.8l0.7,1l-1.1,0.7l-0.3-0.4h-1.8l-0.5-0.5
	l0.4-1.1h-1l-1.1-0.4l0.4-0.8l1-0.7l1.2-2.1l0.8-0.8l2.4-0.1l2-0.4l0.6,0.1l0.8-0.6l4.6-1.6l0.5-0.5l2.1,1.3l1.2,2.2l-0.5,0.9
	l0.5,1.7l-0.8,1.1l0.8,0.5l0.2,0.9l1,1.3l0.5-0.7l1,1.1l1,0.3L568,250l0.8,1.6l0.9-0.3l0.8,0.6l0.8-0.3l0.6,0.4l1-0.6l0.7,0.1
	l0.2-0.8l0.9,0.3l-0.2,1.3l1.3,1.3l0.7,0.1l0.9,1.6l1.5,0.6l1.1,0.8l0.6-0.6l1-0.1l0.5,1l1.5,0.6l0.5-0.7l1-0.5l1.5,0.4l1.3-1.3
	l2.9,0.2l0.4,0.4l1.6-0.1l0.7,0.5l1.1,0.1l0.8,1l1.7,0.2l2.9-1.3l-1.8-2.1V253l1.1,0.3l1.4,1.8l0.7,2.1l0.8,0.8l1.4,0.8l0.4,0.6
	l0.9-0.1l0.4-0.5l1.4-0.4l-0.7-0.7l0.4-0.6l-0.5-1.7l-0.5,0.3l-1.6-1.8l-1.2,0.5l-1.6,1.2l-0.2-0.8l-0.8-0.9l-0.3-1l0.7-1.3
	l-0.9-0.7l-0.2-1.7l0.6-0.5l1.2,1l0.5-0.8l1.5-0.5l-1-1.3l0.7-0.6l1,0.5l1.2,0.1l0.8,0.5l1.3,1.6l0.4,1.5l1.2-0.6l1,1l-1.6,2
	l0.2,0.7l1-0.3l0.2-1l0.7-0.8l2-1.1l-0.4,1.5l0.3,0.4l-0.3,1.1l-0.7,3.5l0.2,1.1l-1.5,2l0.7,1.5l1.1,0.4l-0.6,1.2l0.8,1.3l1.8-2
	l1,0.2l-0.2,0.8l-1.2,1.5l1.5-0.4l0.7,1.1l0.3,2.2l-1.4,0.4l-0.3-0.5l-1.1,0.5h0.2l0.4,0.6l1.6-0.4l0.8,0.4l0.4-1l-0.4-0.4l-0.2-2.1
	l0.4-1.4l-0.8-2.9l0.4-0.5L615,259l-1.2-1l0.1-0.7l0.7-0.6l-0.2-1.3l0.8-1.6l-0.2-0.7h1.1l2,0.5l2.6-3l0.6-0.3v-1.5l1.3-1.4l2-1.3
	l-1-0.6l0.5-2.7l0.2-0.8l-0.3-1.4l-1.3-0.7l-0.7,1.4l-0.3,2.2l-0.9,0.1l-0.6,0.4l-1.1-0.4l0.4-1.9l0.9-1.9l0.6-0.1l0.5-1.4l-1-0.3
	l0.4-2.5l1-0.4l1.1,0.7l-0.3,0.9l0.9,0.3l1.2-1.9l-0.7-0.2l0.5-1.5l-0.4-0.7l-1.6,0.7l-0.2,0.7l-1.9-0.2l-1.1-1.7l-0.2-0.9l-1.5,1
	l-2.6-1.6l-1.2-1.4h-1.6l-0.6-1.1v-1.3l-0.7-0.2l-1.1-1.8l-0.4-2v-1.1l1.5-3.3l0.3-1.1l-1-0.9l-1-2l0.6-2.9l0.4-0.5l-0.7-0.9
	l0.5-0.6l0.1-1.4l1-1.7l1.1-0.4l1.5,1.8l0.6-0.1l0.3-0.9l-0.4-0.9l0.4-0.9l-1.6-0.4l-0.6-0.6l0.4-1.1l1.6-1.4h0.9l0.3-3.3l3.1-0.8
	l0.6,0.8l-0.3,1.4l-0.8,0.5l0.6,0.7l2.2-0.3l1.5,1.1l-0.4,0.8l0.8,1.1l2,1.5l0.3,1.1l0.8,0.5l0.3,1.9l0.4,1l-0.1,3.6l0.5,1.3
	l0.6,0.5l0.4,1.2l1.7,0.8l0.3,1.3l0.5,0.9l0.7,2.1l0.6-0.7l0.6,0.2l0.3,1.8l0.6,0.4l0.1,0.7l-2.1,0.4l-1.4-1.2l-0.8,0.6l-0.1,1.1
	h1.7l0.9,0.9l-1.3,1.6l-0.2,0.6l-1.3,0.8l-1.5,1.7h1.9l1.9,1.9l1.5,0.5l1-1l0.7-1.2l0.9,0.3l0.8,1.8l1-0.4l0.7,0.6l0.5-0.7l1.1,0.6
	l-0.2,0.6l-1.5,1.2l0.1,1.6l-1.1,0.5l1.3,1.5l0.6,0.3l0.3,1.2l0.9,1.5v2.4l-0.3,1.2l0.4,0.5l-0.1,1.4l-0.4,0.7l1.3,0.9l0.6,1.7
	l0.7-0.3l-0.2-0.7l0.7-0.9v-0.8l0.6-0.7l0.1-0.8l-0.6-1l1.1-2.9l-0.4-1.3l0.3-1.8l0.5-0.7l0.9-2.3l0.7-0.5l1.3,0.6l0.5,1.2l0.7,0.8
	l2.5,1.9l1.3,1.6l0.7,1.9l-0.1,0.8l0.8,1.9l0.4,1.8l-0.7,1.9l-1.3-0.8l-0.4-1l-0.7,1l0.8,2l-0.4,1.3l0.1,0.8l0.9,2.6l0.6,1.3l1,0.8
	l1.9,2.3l1,0.9l0.2,1.2l0.8,1.3l0.8-1l1-0.3l-0.1-1.5l0.8-0.8l0.6,0.5l0.9-0.1l-0.2-3.3l-0.3-0.9l0.5-1.7l1.1-2.2l1-1.4l-0.1-1.8
	l0.5-3l-0.4-3.3l0.2-1.3l2.2-0.2l1.2-0.7l0.7-0.8l-1.7-0.1l0.9-1.5l-0.3-1.1h1.2l-0.4-1.1l-2.3-0.3l-0.7-0.9l-1.3-3.5l0.1-1.6
	l-0.5-1.1l0.4-0.5l-0.4-1.1l1.6-0.6l2.2-1.1l1.7-0.3l0.9,0.4l0.7,0.8l1.5,0.5l1.9,0.2l0.5-0.5l1.2,0.2l0.5-0.2h1.6v1.5l0.7,1
	l-3.4-0.1l4.7,0.9v0.9l0.6,1.7l1.1-0.8l1.2-0.1l1.4,0.7l0.8,0.1v1.2l-0.7,1.5l-0.6,0.2l0.1,1.3l0.7,0.4l1.1-0.1l0.8,1.1l0.2,1.9
	l-1.6,2l-0.7-0.1l-0.2,0.8l-0.8,0.7l-0.4-0.9l-0.9,0.7l-1.7-0.2l0.5,1l0.9,0.7l0.1,1.2l0.6,0.5v1.1l1.1,0.3l-0.1,1.6l0.6,1.3
	l2.7,2.5l1.1,0.6l1.5,2.1l-0.2,2.5l0.1,2.6l-0.4,1.4l-0.9,0.4l-1.3,0.2l-0.3,2l-0.4,0.9l-1,0.7l-1,2.4l-1.2,0.1l-0.8,0.4v0.7
	l-1.5,2.2l-1.1-0.1l-0.1-0.8l-0.8-1.2l-0.9-0.1l-1-1.1l-0.1-0.8l0.4-1.4h-0.7l-0.4,1.3l-0.7-0.2l-0.4-0.9l0.3-0.6l-1-0.5l0.1-1.2
	l-1.4,0.1l-1.9,0.4l-1,0.8l0.5,1l1-0.6l0.2-1l1.4-0.1l0.5,1.5l1.2,0.8l0.3,1l0.9-0.2l-0.2,1.3l1.5,1.4l2,3.5l-1.5,0.1l-1.5-1.4
	l-1,0.4l-0.4-1l-0.9,0.6l1.6,1.9l-0.5,0.4l-0.8-0.6l-2.1-0.3l-0.8-0.4l-0.7,0.2l-0.6-2.6l-0.6-1.1l-0.7,0.1l-1.1,0.8l-2,0.4
	l-2.6,0.2l0.1,0.9l-0.9,0.3l1.1,1.4l1.5,0.2l2.2,1l0.6,0.4l-0.5,0.9l0.1,0.8l-1.1,0.9v0.6l-1.1,0.5L664,281l0.2,0.9l-0.4,0.9
	l-0.7,0.5l-0.6,1.1l-0.7,0.4l-0.7,1l0.2,0.9l-1.5,1.1l-3,0.2l-1.7-0.8l-0.7-1.1l-1.3-1.1l-0.3-0.8l-1.5-0.7l-0.7,0.2l-2.1-1.8
	l-2-1.3l-0.7,1.6l-1.2-0.7l-1.4,0.5l-0.5-0.6l-4.3-0.3l-0.7-0.3l-1,0.4l2.1,1.3l0.2-1.2l1,0.3l2,0.2l3.2,1l1.2,0.8l0.8,1l0.7,0.4
	l0.6,1.4l1.2,0.8l0.9,1.4h2.4l2.8,0.2l0.9-0.2l1.1,0.2l2.1-0.3l1.8,0.3l0.8,1.2l-0.1,1.1l-0.7,0.9l-0.9,2.7l-1.3,3.3l-0.9,0.6
	l-0.4,1.1l-0.1,1.4l-0.6,0.8l-0.1,1.2l-0.9,0.6l-2.8,2.5l-2.5-0.7l-0.6,0.8l-0.6-0.7l-1,0.3l-1.6-1l-0.6,0.6l0.8,1.3l-1.7,0.1l0.2,1
	l0.7,0.8l-1,2.2l-3.2,1.3h-1.4l-1-0.7l-0.5,0.1l-0.8-0.9l-2.2-0.5l-1.7,0.1l-1.9-0.3l-0.8-0.7l-1.4-0.3l-0.3-0.5l-1.6-0.4l-0.6-0.5
	l-1.8-0.7l-0.6,0.5h-1l0.7,1.5l0.7,0.4l1-0.4l-0.6-0.7l0.3-0.6l1.1,0.8l1.8,0.9l0.8,0.1l0.8,0.6l0.5-0.5l0.8,0.9h0.8l0.8,0.4
	l-0.8,1.2l-1.4,0.8l0.3,0.5l2.8-2.1l1.1-0.5l1,0.8l0.2,0.8l1.6,1l1.8,0.3l0.3,0.8l1.1,0.5l0.6,1.1l0.1,2l0.3,0.7l-0.9,1.7l-1.2-0.1
	l-1,0.8l-0.8,1.3l-0.5,0.2l-3.2-0.7l-0.7-0.3l-0.4,0.9l-1-0.4l-0.7,0.6l1.5,1.6l1.9,0.3L636,326l-1.6-0.3l-1.5,1l-1.2,0.3l0.1,1.2
	l0.7,0.9v0.8h-1.1l-1.7,0.9l-0.3,0.6l1.1,0.3l-1.5,1.5l-0.8,1.2l-0.9-0.5v1.1l1.2,1.3l-3.2,2.5l-0.8,1.3l0.9,1.7l-1.2,0.6l0.2,0.5
	l-0.3,1.4l-1.1,2.9l-0.6,0.6l-0.3,1.9l-0.5,0.7l-0.2,1.3l-1,1l0.4,1l-0.5,1.6v2L619.7,358.6L619.7,358.6z M612.8,268.4l-0.3-0.7
	l-0.8,0.6l-1.9-1.6l0.3,1.1l1.3,1.2l0.7-0.7L612.8,268.4z M609.1,186.5l-0.3,0.4l-1-0.8l1.1-1.7l0.5,1.4L609.1,186.5L609.1,186.5z
	 M608.9,181.1l0.9,1l-0.4,1.3l-1.3,0.5l-0.7-1l-0.1-1.2l0.4-1.2l0.6-0.5l0.8,0.4L608.9,181.1z M511.4,219.6l0.9,0.5l-1.5-4.1
	l0.4-1.5l5.4,1.2l8.2,1.8l6.4,1.2l-0.4,2.4l1.1,0.1l1.3-0.2l-0.4-0.7l0.3-1.2l4.3,0.7l7.5,1.3l5.5-35v-0.6l0.1-0.4l0.9,0.5l-0.7-2
	l0.2-1.2l0.1-0.7l0.6-3.3l1.4,1.2l-0.6,0.5l1.4,1.8l0.8,0.2l0.4,1.2l-0.1,1.8l0.7-0.4l1,0.7l0.1,0.9l-0.7,2.1l0.3,2.4l0.4,1.1
	l-0.3,2l0.9,0.7l-0.6,0.9l-0.1,1.2l1.1,1.9l-0.1,0.7l1.6-0.9l0.6-0.9l1.6-1.6l-0.7-0.5l0.1-0.7L560,194l0.1-1.6l-0.6-0.3l0.2-1.6
	l0.4-0.7l-0.4-2.6l0.2-1.5l-0.3-1.9l-0.2-2.8l0.2-2.5l-0.4-1.2l0.2-0.6l1-0.8l-0.1-1.2l0.5-0.6l1.5,0.6l0.8,0.7l1,1.6l0.9-1.6
	l0.8,0.1l0.5,1.2l0.8,0.7l0.9,1.6l0.7,0.6l1,0.2l0.2,1.1l0.6,0.5l0.8,3l-0.6,0.7l0.7,0.8l-0.3,0.4l0.4,2.1l-0.4,0.6l1,4l-0.4,0.9
	l0.6,2.5v1.3l0.6,0.5l1,3.4l-0.2,1.3l0.4,0.6v1.6l-1.1,0.4l0.1,1.7l-1,1.2l0.2,0.7l2,2.7l0.2,1.7l0.8,0.6l1.3,2.2l1.9,0.5l-0.1-1.2
	l0.8,0.2l0.6,0.8l-0.1,1.1l2,1.5l1.3,1.2l0.8,1.1l1.2-0.4l0.5,0.5l-0.3,0.7l0.2,1.3h1.6l0.7-0.8l0.6,0.3l-0.1,1.4l0.3,0.9l-0.3,1.1
	l0.4,1.8l-0.6,2l-1.7-0.3l-0.5-1.2l-1.4,0.9L583,228l-1-0.7l-0.3,0.8h-1l-0.5,0.6l0.4,0.8l-0.2,1.8l-1.4,0.2l-1.7-1.2l-0.6-1.2
	l-0.9,0.2l-0.2,0.8l2.2,1.7l0.1,1.3l-0.3,0.7l-0.2,2.3l1.2-2.5l1.5-0.2l0.4-1l0.9-0.2l1.1,0.3l0.6,1l-1,1.1l0.3,0.7l-1,0.3l0.5,0.9
	l1-0.8l0.8,1l-0.1,1l-1.1,2l-2.1,0.5l-0.8,0.8l-2.5,0.7l-0.7-0.7l-0.8,0.1l-0.3,0.7l-2.8-1.4l-1.2-0.3l-0.2-0.9l-1-0.1l-0.8,1
	l-2.6-0.7l-0.5-0.8l0.6-0.6l1.2-0.6l-1.7-0.8l-0.9-0.2l-0.4-0.7l-1.6-0.5l-0.5,0.3l-1.1-0.1l-1-0.7l0.8-1.3v-1.6l-1.1-1.6l-0.9,0.8
	l-0.2,0.9l-1,0.1l-0.1,1.7l-0.6,1L557,235l-1,1.4l-0.8,0.4l-2.4,0.4l-1.4-0.1l-1.5-0.4l-0.3,1l-2.2,1.5l-2,0.3l-1.5,0.6l-3-0.3
	l-0.9,0.6l-1-0.7l-2.1,0.6l-0.5-0.5l-0.9,0.7l-1.3-0.6l-3.6-0.2l-1.7-0.3l-1,0.5l-0.7-0.3h-1.7l0.9-1l-1.1-1l-0.3-1.8l-0.7-1.3
	l0.2-1.5l0.7-0.7l0.2-1.2l-0.3-1.6l0.7-0.4l-2.6-1.2l-1.1-0.8h-2.4l-0.7-0.6l-0.9,0.4l-3.6-1.6l-1.9-1.9l-0.8-1l0.5-0.4l-0.1-1.1
	l-1.3-0.6L511.4,219.6L511.4,219.6z M563,171l-1.7,0.3l0.1-1.1l1.4,0.1L563,171z M575.4,176.4l-0.8,1.8l-1.3,1.5v0.7l-1.1,1.2
	l-1.1,0.5l-0.1-0.8l-0.9-1.4l-0.8-1.8l-0.6-0.6l0.1-1.4l-0.9-1l-0.5-1l-1.1-1l-1.1-0.4l2.3-3.1h3.7l1.5-0.4l0.9,0.4l1.8,2.1l0.7,1
	l-0.5,1.7L575.4,176.4L575.4,176.4z M678,165.8l1.1,0.7l0.7-0.3l1.3,0.2l0.9,0.6l2-0.4l0.8-0.5l2.6-0.7l1.3,0.7l2,0.3l1,0.6l1.1,1.4
	l0.1,0.6l1.3,0.3l1.1,1.4l0.5,1.2l1.2,0.2l0.1,2l1,0.2l0.3,1.3l-0.7,0.7l-4.4,0.3l-0.5-0.3l-3.3,0.4l-1.9,1.1l-2,1.9l-0.9,0.3
	l-0.8-0.1l-1.9-1l-1.5-2.7l0.1-1.2l-0.5-1.6l-0.9,0.1l-1.9-0.4l-0.4-0.4l-0.4-1.9l0.3-0.9l-0.8-1.5l0.2-1.7l0.9-1L678,165.8
	L678,165.8z M651.9,168l2.2-0.3l1.2,0.2h2.7l1.1,0.9l-0.2,1.2l-1.9,2.4l-0.5,0.2L655,176l-0.8,3.3l-1.3,4.2l-0.1,1.5l0.4,1l1.8,1.9
	l0.5,1.6l-0.6,1.3l-0.1,1.6l0.6,2.8l1.6,2.9l0.8,0.8l2.5,3l1.5,0.8l1.1,0.1l0.7,2.1l-1.6-0.1v0.5l-1.4,1.4l-0.7-0.4l-1.3,0.7
	l-0.9,1.5l-2.6,1.4l0.7,0.2l1.7-0.6l1.7-1.6l0.4-0.7l1.3-0.5l1.4,0.1l1.5-0.2l-0.3,1.2l0.2,2.2l0.9-0.7l-0.5-1.9V206l0.5-0.4
	l-0.7-0.9l0.2-2.1l0.7-0.7l-0.3-1.2l-1-1.7l-0.7,0.8l-1.7-0.3l-1-1.2l-0.2-1.1l-0.6-1l-2.2-0.9l0.1-0.7h1l0.8-0.6l0.1-2.3l0.8-0.8
	h1.2l0.9-1.7l-0.1-1.3l-1,0.8l-1.5,0.1l-0.8-0.7l-1.1-2.4l-0.2-1.5v-2l0.3-1.6l1.7,0.2l1.1,0.6l0.9-0.3l-2.1-1.2l-1.6-0.1l0.1-1.3
	l1.8-0.6l0.7,0.5l1.4-0.4l-2.9-1.4l0.2-1.4l1-1.1l3.3-2.2l1.4-1.5l1.8-1.4l0.5,0.2l0.8-1.4l3.2-0.5l2.3-0.1l1.6,2.5l0.5,1.8l0.1,1.4
	l0.6,1l2.2,0.8l0.6,1.1l-0.1,1.5l0.1,1l1.1,1.3l0.6,0.2l0.5,1.2l-1.1,1.6l0.3,0.7l-0.9,0.9l1.2,0.2l0.3,1.7l-0.5,0.5l-0.6,1.5v0.9
	l0.7,1.3l-1.2,0.4l0.5,0.7l0.6-0.2l0.4,0.9l1.4-1.3v-0.9l-0.7-0.9l1-0.6l-0.4-0.6l0.8-2.3l0.5-0.2l0.2-1.5l0.6,0.4l-0.1,1.1l1.4,0.9
	l0.7-1.2l0.8,0.6l1.2,2l-0.3,2.9l0.4,0.3l1.7,0.5l-1.2-1.4v-2.1l-0.4-0.8l0.4-0.6l-0.4-0.8l1-0.7l3.8,1l-0.3-0.5l-1.9-0.5l-1.6-1
	l-0.3-1.3l0.5-1.3l1.4-1.8l0.8-0.3l0.7-0.9l3.1-0.4l1,0.4l0.3,0.9l2.1,0.1l0.7,0.6l0.4-0.8h0.9l1.3,0.5l1.3,0.2l0.2,0.6l1.8,2.6
	l-0.3,1.1l0.2,0.8l3.7-0.1l0.9,1.4l-0.2,0.8l0.1,1.5l-1.2,0.6l-0.6,1.1l0.7,1l-0.5,1.7l0.9-0.4l0.1-1.5l0.8-1.3l0.8-0.2l0.7-0.8
	l1.4-0.2v0.8l-0.5,0.9l-0.4,1.8l0.2,1.5l0.5-0.1l-0.1-1.4l0.5-1l0.7,0.4v1.7l1-0.3l1.2,1.4l1.4,0.3l-0.5-1.7l1-0.6l-0.6-0.8l0.7-0.9
	l-0.2-1.3l0.5-0.3l2.7,0.3l1.8,0.5l0.9,0.6l2.1,2.2l-0.6,1.7l-0.1,1.4l-0.8,0.3l-1.3-0.3l-0.7,0.6l-0.1,1.8l-0.5,1.4l1,0.5l-0.5,1.2
	l1.6-0.9l1.4-1.6l1.1-0.5l0.2-2.3l1.4-1.6l0.8,0.3l1.1,1.8l-0.5,1.6v1.7l-1,1l-0.1,1.1l-0.4,0.5l0.7,0.7l0.5-0.2l-0.2-1.6l0.6-0.4
	l0.7-1.4l1.5-1.5l1.1-1.5l0.7,0.2l-0.3,1.9l-0.8,1.4l1-0.3l1.3-2.1l1.7-0.6l0.7,0.6l3.9,0.8l0.7,1.1l-0.2,1.9l-0.8,0.5l-0.2,0.6
	l-1.3,0.7l-1.8,1.4l-1.2,1.5l0.7,0.2l1.9-1.4l2.2-0.9l0.6,0.8l-0.5,2v1l1.3-0.2v-1.8l0.9-0.4l-0.6-2.1l0.4-1.5l1.8,0.2l1.7,1.2
	l2.2,2l1.6,2.9l-1,0.5l-2.1-0.2l-1.2,0.4l-0.7,1.2l-0.3,1.3l-1.5,0.2l0.6,0.7l3.2,0.8l1-0.5l2.7-0.7l2.6,1l0.7,0.6l0.5,1.3l-0.3,0.8
	l-1.1-0.2l-1.9,0.3l-0.5,0.7h-0.9l-3-1l0.9,1.1l-0.6,0.3l-2,0.3l0.6,0.5l0.8-0.2l1.4,0.3l2.2,0.6l-1.2,1.4l0.2,1.9l-1.3,0.3l-1,1.1
	l0.6,0.4l1.8-0.1l0.5,0.3l-0.9,1.1l2.5,0.7l1.2-0.9l2,0.3l1.2-0.1l1.1,0.4l-0.2,0.9l-1.9,0.1l-1.9,1.6h1.4l0.6-1l0.8-0.2l1.9,0.8
	h0.7l-0.1,1.2l0.4,0.7l1.2-1.1l1.2-0.1l1,1.5l1.1,0.2l1.5,0.9l-0.2-1.4l0.3-0.6l1.1-0.3l0.2,0.9v2.3l0.4-0.1l-0.2-2.1l1-1.1
	l-0.3-0.6l0.6-0.8l1.8,0.4l-0.6,0.9l-0.4,1.4l0.5,0.7l1-0.2l0.8-1l2,0.7l0.8,1.4l0.7-0.3l0.5,0.9l0.1,1.1l0.6-0.1l0.7,1.1l-0.1,0.8
	l-1.7,0.7l0.6,0.7l1.2-1l0.8,0.3l1.6-0.7l0.9,0.1l0.1-1l0.5-1l0.9,0.2l0.6,0.9l-0.1,0.9l-0.8,0.8l0.5,1.1l0.2,1.3l-1.1,1.2l1.1,0.8
	l-0.1-1.2l1.8-1.9l1.6-0.3l0.7,0.4l0.9-0.9l-0.4-0.9l0.6-0.8h0.8l0.1,1.3l1-0.8l1.7,0.8l2.4,1.8l0.5,0.9l-0.5,1.1l-0.7,0.2l-1.3-0.9
	l-0.7,0.1l2.3,1.7l1,1.2l-0.6,0.8l-0.7,0.2l-0.5,0.8l-0.9-0.2l-0.7,0.4l-0.4-0.9l-2.1,0.2l0.2,0.4l1.6,0.6l-0.4,1.5l2.3,0.6l1.6,0.8
	l-1.2,0.6l-1,0.9l1.4,1.6l-0.9,0.9l0.2,1.7l-0.7,1.3l-0.8-0.5l-1.3,0.5l-1.3-0.8l0.7,1.8v0.8l-1.2,0.5l1.4,0.9l-0.1,0.9l0.9,0.3
	l-0.3,0.7l0.7,1v0.6l0.8,1.4l-0.8,1.9l-0.8-0.4l-1.2-1.2l-1.1-0.1l-0.8-0.5l-1.6,0.2v1.4l-1.2-0.3l-0.2-1.1l-1.3-0.1l-0.5-1.9
	l-0.8,0.9l-0.8-1.4l-1.1-0.4l-0.4-0.8l-1-0.4l-0.6-1l0.1-2.1l1.9-1.9l0.2-1.5l-0.2-1.7l-0.5,0.1l0.3,1.5l-0.4,0.8l-1.8,1.9l-2.5,1.3
	l-1-1.9h-1.1l-1.4-1.4l-0.1,0.9l-0.7,0.1l-0.4-0.8l0.1-0.9l-1.4,0.1l-1.6-2.6l-0.3,0.9l-2.2,0.6l1.7,0.9l0.2,0.8l-0.4,1.5l-0.7-0.1
	l-1.2-1.2l-1.5-0.2l0.1,0.8l1.2,1.3l-0.1,0.5l2.1,1l0.9,0.1l0.4,1.5l1,0.5l-3.1,1.8l-0.7-0.1l-0.9-1l-0.2-1.3l-1.4-0.3l-0.5-0.9
	l-0.6,0.6l0.2,0.7l1.3-0.2l0.5,1.1l-0.7,0.4l0.2,1.4l1,0.3l0.6,0.8l1.1,0.2l0.6,0.8l-0.1,1l2.2-1.6l1.1,0.2l-0.1,0.9l0.6,0.4
	l-0.7,0.7h2.1l0.2,2.5l0.7,0.7l0.8-0.4l0.3,1.7h1l1.2,0.9l0.4-0.8l0.8,0.9h1.4l1.7,1.4l0.7,0.1l-0.5-1.8l0.2-0.2l1.9,1.1l0.4,1.3
	l-0.5,0.8l0.3,1.2l1.6-0.2l2-0.6l0.2,0.8l-0.4,1.8l0.3,1.4l1.7,0.9l-0.4,1l1.5-0.5l1.3-0.6l0.4,0.6l-1,1.4l-0.2,1l0.5,0.6l1.5-0.1
	l1.4,0.9l0.1,1.1l1.6,3.2l-0.6,0.8l-1.2-0.8l-1-1.7l-0.9-0.9l-0.8,0.6l0.6,1.1l1.6,1.7l-0.5,0.7l1.6,0.9l0.7,1v1.2l1.3,0.2l-0.5,0.8
	l-0.7,0.3l-1.6-0.7l-0.3,1l1.8,1.5l0.6,0.8l-0.1,0.7l-0.7,0.9l-1.6-1.4l0.1-1.1l-1.1-0.1l-0.9,0.3l-0.7-0.9l-1.3,0.1l-1.2-0.5
	l-0.6,0.9l-1.5-0.3l-0.8-0.6l-0.9,0.8l-1.1-1.4l-1.3-0.4l-0.3-0.7h-1.4l-1.1-0.8l-0.8-0.2l-0.5-1L773,287h-0.8l0.6,1.5l1,1l-0.7,0.6
	l-0.5-0.7l-1.9-1.2l-0.7,0.1l-1.1-0.4l-0.8-0.8l-2.5,0.5l-0.2,0.4l1.2,0.8l0.8,1.1l2.6,1.6l2.3,2.2l0.5-0.2l1.7,0.4l0.9-0.4l1,1.1
	l2.3,0.9l1.9,1.7l0.2,0.5l1.3-0.1l1.5,0.5l1.1,1.2l1.2,0.9l1,0.3l0.1,0.8l1.1-0.4l0.5,0.4l-0.7,1.8l0.4,0.7l1.4,1.2l-1.6,1.1h-1.9
	l-0.5-0.6l-1.1-0.3H783l-0.5,0.3l-0.8-0.5l-0.5,0.5l-0.7-0.8l-1.6,0.4l-2-0.1l-3.4,0.6l-2.8-1l-0.4,0.2l-1.9-0.9l-0.6-0.8l-0.5,0.3
	l-1.2-1l0.2-1.3l-0.9-0.3l-2.3,1.3l-1,0.2l-1.9-1l-2,0.2l-1.3-1l-0.4-1l-1.9,0.9l-0.9-0.7l-1.3-0.3l-0.8-1.3l-0.2-1.2l-2,0.2
	l0.1-0.7l2.1-0.2l1.8-2.4l-1.8,0.2l-0.3-1.3l-1.7-0.7l-0.3,1.3l-2.1,0.7l-0.4-1.3l-0.6-0.5L745,292l-2.3-2.4l-0.4-0.9l-1.1-0.1
	l-0.5-1.2l-0.8-0.1l-0.6,0.6l-0.9-1.4l0.1-1.2l-0.5-0.2l-0.1-1l-2.3,1.1l0.5,0.7l-0.5,0.6l0.2,1.7h-0.7l-0.2-3.2l-0.6-0.7l-0.8-0.1
	l-0.3,0.6l-1.4,0.3l-1.2-1.2l0.4-1.5l-0.9,0.2l-0.5,0.9l0.6,1l1.4,0.6l0.9,0.7l-0.9,0.6l0.9,1.2l-0.8,0.9l-1.4-0.4l-1.7,0.1
	l-0.9-0.6l-2.1-0.4l0.1,1.6l-0.4,1.2l-0.7-0.2l-0.4,0.6l-1.5,0.6l0.4,0.8l-2.3,0.3l0.5,1.3l-2-0.5l-0.8-0.4l-1,1l-0.4-0.9l-1.7-0.5
	l-0.5,0.6l-1.6-0.8l0.1-0.6l-1.5-1.3l-0.4-2.1l0.5-1l-0.8-1.7l0.8-1.4l1.5-1.6l0.6-0.1l1-1l-1.4-1.4v-1.8l1.1-0.4l0.9,0.6l1.4-0.5
	l0.9,0.1l3.3,0.9h0.6l1.6,0.5l0.2,0.7l1.8,0.7l0.5,1.2l-0.6,1.6l1.3,0.2l-0.4-1.9l-0.5-1l-1.1-1.1l-1.6-0.8l0.3-0.9l1,0.2l1.9-0.1
	l0.5-0.4l0.4-1.5l0.5-0.4l2.2,0.3l0.6-1.1l0.5-1.7l1.6-0.5h0.8l0.5,0.7l0.9-0.7l-1.6-2l-0.5-1.3l-1.8-0.7l-1.5-1.4l-1.4-1l-0.5-0.8
	l0.4-1.2l1.2-1.3l1.4-2.5l1-1.5l0.3-1.7l1-1.1l0.3-0.8l0.1-3.7l0.6-0.7l1.5-0.9v-1.5l0.2-0.8l-1.1-0.5l-1-2.5l-0.8-1.3l-1-0.7v-1.3
	l-1.5-0.5l-0.6-0.9l-0.1-1.2l-1-1.9l-0.9-0.4l-0.5-0.7l-1,0.3l-1.7-0.1l-1.4-1.1l0.1-1l0.5-0.5l-0.2-1.5l-1.1-1.1l-1,0.5l1.5,1.6
	l-1.2,0.7l-1.1,0.1l-1-0.8l-0.2-0.7l-1.8-1.1l-0.4-0.6l0.8-1l-0.3-0.8l-1.4,0.5l0.1-1.1l0.9-0.5l-0.6-0.7l-0.9,1.3l0.1,0.7l-0.5,1
	l-1.8-1.4l0.2,1.2l-0.4,0.8l-1.4,1.2l-0.3,0.7l-1.2,1.4l-1.4,0.5l-0.5-1l0.3-1.8L708,231l-0.2-1.2l1-0.8l1.3-0.1l0.9,0.3l0.6-1.2
	l1-0.2v-1l-1-1.7l-1.6-0.9l-1.3-0.3l-0.8,0.4l-0.5-0.8l-1.1-0.9l-0.1-0.7l0.5-1l1.3,0.3l0.1-0.8h-1.4l-0.8,2l-1.7-0.2l-0.9-0.4
	l0.2-0.6l1.2-0.3l-0.4-1.8l-1.3,0.3l-1.7-0.3l0.1,1.3l-0.9-0.6l-0.6-2.3l-0.4-2.7l-1.2-0.9l-1.1,1.1l-1.1,0.1l-0.6-0.8l-1.1-0.9
	l-0.7-1.4l-0.8,0.4l-1.2-0.6l-0.1,1.2l-0.9-0.5l-0.8,0.6l0.2,0.6l1.4,0.2l0.8,0.5l0.7-0.3l1.4,1.7l0.4,1.5l0.5,0.8l0.1,1.2l-0.8,0.7
	l-2.6,0.6l-1.1,0.7l-1-1.3l-1.9-0.5l-0.7,0.4l-1-0.6l-2.2,0.1l-0.4-0.4l-2.4,0.2l0.1,0.6l0.9,0.7h1l0.4,0.8l0.9,0.6l1.3,1.6
	l-0.8,0.4l-1.3-1.1l-0.6-0.2l-1.8-1.5l-0.7,0.2l-2-1.8l-3.8-1.4l0.3,0.6l2.9,1l1,0.6l1,1.1l0.9,0.4l-0.5,1.1l-0.9,0.1l-0.3,0.7
	l-1.6-0.1l-2.5-1.2l-0.7-0.7h-1.1l-0.3,0.6l-1.5,0.7l-2-0.3l-3,0.1l-1.3-0.7l-2.1-0.4l-1.1,0.6l1.3,0.5l-2,0.8l-2.5-1.4l-1.5-1.6
	l-0.6-1.2l-1,0.1l-1-2l-0.7,1.3l1.1,0.3l-0.1,1l-2-0.2l-1.9,1.3l-0.9-0.8l0.2-0.6l-0.9-0.8l-2.7-0.7l-1.1-1.1l-1-2.1l-1.1-1
	l-0.8-1.8l0.9-1.2l-1.6-1.5l1.5,0.2l0.5,0.6l2.3-0.5l1.3,0.5l0.3,0.7l2,0.2l0.9-0.5h1.6l0.5-0.9l-1-0.8l-1.6-0.8l-1-1.8l-0.6,0.9
	l-2.1-0.3l-0.4,0.2l-5.6-1l-0.8-1.2l-0.2-1.3l-0.1-2.2l0.7-1.6l-1.5-2.1l0.4-1.1l-0.1-1.2l1-0.8l-1-1.9v-1.3l0.4-0.9l0.1-3l0.8-0.8
	l-0.1-1l1-2.4l-0.3-1.2l0.1-1.2l0.9-3.2l0.8-0.8l0.6-1.8l0.7-0.7l0.3-1l2.5-3.1l2.5-1.5L651.9,168L651.9,168z M596.1,169l0.6,0.8
	l0.7,0.2l1.2,1.5l2-0.3l0.9-0.4l1.9-0.3l0.5-0.5l1.7-0.6l1.3,0.5l1.3,1.9l-0.2,1.7l-1.9,1.3l-0.7-0.1l-0.3,0.8l2.1,0.6v1.4l-0.5-0.2
	l-2.3,1.3l-0.2,0.6l-2.2,2.9l-0.6,0.3l0.3,1.8l0.7-1.1l1.2-1l1.4,0.1l1.7,1.2l-0.1,1.3l0.9,1.4l0.2,0.8l-0.7,0.8l0.5,0.8l0.6-0.9
	l1-0.5l1.1,1v0.7l0.7,2.5l-1.9,1.9l0.7,0.5l0.3,2l-0.2,0.7l0.2,2.4l-0.3,1.1l-0.8,0.6l-1-0.1l-0.6,1.5l-1.8,1.2h-1l-1.3-0.7
	l-1.8,0.1l1.5,1.8L602,206l-1.5,1.7l-1.3-0.2l-0.6-1.1l-1.3,0.4l-0.7-2.9l0.1-0.6l-0.9-0.8l-0.4-2l-0.7-1.2l-0.8-0.2l-1.7-2.9
	l0.2-0.5l-0.9-1.4l-1.3-0.3l-1.1-1.9l-1,0.7l-1.9-0.8l-0.4-2.6l-1-0.7l-1.7-1.9l-0.5-1.1l0.1-1.2l0.7-1.4l0.7-1.9l1.6-0.6l1.5,1.2
	l-0.3,0.7l0.8,1.2l0.4,0.1l0.9,2.5l1.8,0.5l0.6-0.8l1.4,0.2l0.5-0.6l0.1-1.3l1.1-0.4l-0.1-1.9l-0.8-1.7l-0.8,0.8l-0.5-1l0.7-0.8
	l0.4-1.2l1.4,0.7l-1.2-2.3l-0.2,0.8l-1.2,0.8l-0.9,0.3l-0.8-1l-0.9-0.6l-1.1-1.7l0.5-1.1l0.8-0.2l0.2-0.7l1.3,0.2l1.3,1.3l0.3-1.2
	l-1.4-0.4l0.1-0.7l-0.7-0.3l-0.2-0.9l1-1.3l1-0.3l0.9,0.2l1.6,1.3l-0.2-1l-0.9-0.5l0.4-0.9l1-0.4L596.1,169L596.1,169z M605.4,166.7
	l-0.8,1.4l-0.7,0.5l-0.7,1l-2.9,0.6l-0.2-0.4l-2-0.2l-0.1-0.9l1.2-0.5l1.5-1.1l1,0.1l1.5-1l1.8-0.3L605.4,166.7L605.4,166.7z
	 M625.8,166.3l0.4-0.3l0.9,0.6l0.7,1l0.7,0.1l1.2-0.7l1-0.1l2.4,0.3l1.6,0.7l1.9,0.6l-1.2,3.2l-1.5,3.1l-1,2.2l-1.2,3.9l-1.4,3.8
	l-1.3,1.8l-0.9,0.3l-1.1-0.4l-3.4-0.7l-3.3,0.5l-0.1,0.5l1.7,0.6l0.1,0.9l1,0.9l0.5,1.5l-1,1.9l-0.5,0.3l-0.9,2.4l-0.3,1.4l-1.1,0.5
	l-1.8,0.2l-1.8,0.8l-0.2-1.5l0.4-0.5l-0.6-1.4l0.2-2.3l-0.3-1.3l0.4-0.3l-0.7-1.2l-0.1-1l-0.6-1.1l-0.6-0.2l0.1-1.1l-0.4-0.4
	l0.2-1.9l-0.5-1.2l0.2-1.2l0.4-1.1l-0.1-3.4l-0.3-1.1l0.3-2l-0.5-0.7l0.3-0.9l0.9-1.1l0.8,0.2l1,1.4l0.7-0.3l-1-1.3l-1-1.8l0.3-1.7
	l0.8-0.3l1.3-1.2l1.1,0.1l0.4-0.6l2.5-0.1l0.4-0.5l1.6-0.2l2,0.7L625.8,166.3L625.8,166.3z M607,158.5l-0.4,1.5l-1.1,0.7l-0.5-0.9
	l1.1-1.6L607,158.5z M614.8,158.8l0.5,1.1l-0.4,0.3l-1.5-0.5l-0.7-0.8l1.3-0.9L614.8,158.8L614.8,158.8z M581.6,146.7l-0.1,0.7
	l0.5,1.1l-1.2,1.6l-1.5,0.6l-1.9-1l-0.7-0.9l0.9-1.9l0.4-1.4l1.2-1.3l1,0.1l1.2,1.1L581.6,146.7L581.6,146.7z M618.5,143l2.5,3.5
	l0.2,1l0.9,0.7l-0.3,1l0.5,1.3l-0.2,1.2l0.6,2.3l-0.2,2.7l-0.5,1l-3.5,0.5l-1.1-0.1l-1.5-0.9l0.2-0.6l-1.1-1.1l-2.4-0.3l-0.8-1.3
	l-1.2-0.4l-0.8-2l0.5-2l1.6-0.9l-0.4-0.6l0.9-1.4l-0.3-0.4l0.9-1.5l2-1.7l0.5,0.2l1-0.8L618.5,143L618.5,143z M611.1,142.3l1,0.7
	l0.5,0.7l-1.3,1.5l-1.1-1.3v1.4l-0.6,0.4v0.7l-1.2,0.1l-0.3-1.8l1.4-1.1l1.1-0.4L611.1,142.3L611.1,142.3z M588.9,136.4l-0.2,0.9
	l-1.1,0.4l-0.6,1.4l-1.5,0.6l-1.7-0.1l0.4-1.2l0.9-1.2l3.3-1.1L588.9,136.4L588.9,136.4z M618.8,140.5l-1.4,0.3l-0.6-1l-0.1-1.3
	l-0.3-0.7l1.7-0.5l0.2,1.4L618.8,140.5L618.8,140.5z M588,134.9l-0.2,0.8l-5.2,1.6l-0.9-0.3l0.9-1.1h0.8l0.8-0.6l3.4-0.8L588,134.9
	L588,134.9z M676.7,128.7l0.9,0.5l-0.1,0.7l-0.9,1.2l0.2,0.9l-0.4,0.8l-1,0.5l-0.7-0.3l0.4-1.2l0.9-1.4L676.7,128.7L676.7,128.7z
	 M587,131.5l0.4,0.7l-0.1,1.2l-1.2,1.1l-1.6,0.4l-2.2,0.1l-2.1-0.9l-0.3-1.1l0.8-1l3.3-0.8l2.8-0.4L587,131.5L587,131.5z
	 M582.6,125.5l0.5,0.1l0.7,1.6l1.3,1l0.7,0.9l-1.3,1.3h-2.1l-1.8-0.3l0.2-0.7l-0.1-1.6l-0.6-0.4l-0.1-1.8l1.2-0.9h1.2L582.6,125.5
	L582.6,125.5z M603.3,126l-0.1,0.7l0.7,0.4l0.5,1.1l1.6,0.8l-0.1,1l-0.4,1.6l0.8,1.5l0.2,1.1l-0.4,1.3l-0.2,2l0.3,1.4l-0.4,1l-1,1
	l1.9,0.6l-0.1,2.8l-1.1-0.8l-0.8,0.8l-0.9,2.3v1.1l1.4,1l0.3,1.1l-1.4,2.2l-2.9,0.5l-0.8-0.4l-2.8,0.5l-2.7-0.8l-0.3-0.7l0.1-1.6
	l-0.6-0.7l1.3-0.8l-1.7-1.2l0.5-1.4l2.1-0.4l0.4-0.6l-1.3-0.5l2.3-1l-0.4-1l3.4-0.3l0.1-0.5l-2.9,0.5l-2.1,0.1l-3.4,0.6l-1.2,0.5
	l-0.3-0.5l-2.4,0.8l-1.4,0.1l-0.9,0.6l-0.5-0.8l0.5-2.1l0.7-0.7l1,0.1l-0.4-1.4l0.5-0.9l1.7-0.4l0.2,0.5l1.5,1.6l-0.1-1.4l-0.6-1
	l0.8-0.7l-1.2-0.3l-0.7-1.6l0.8-1.5l-0.4-0.8l-1,0.1l0.2-1.5l0.4-0.6l-0.1-1l0.9-0.6l1.5,0.4l1.1,1.6l-0.2,1.3l1.5,1.4l0.3,0.9
	l0.6,0.4l1.1,2.3l1,0.8l-0.4-2.1l-0.8-1.6l0.7-0.3l-1.6-1.3l0.2-0.7l1.4,0.2l0.3-0.4l-1.2-1.5l-1.3,0.1l-1-1.7l0.9-1.3l1.8-1.3
	l1.5,0.7l1-0.2l1.2,2.6l1.5,0.1l-0.7-1.3l0.1-0.9l0.5-0.4l1.1,0.3L603.3,126L603.3,126z M596.1,125l-3.2,1.9l-0.6,0.3l-1.3-0.5
	l1-0.8h0.7l1.1-1.4l1.3-0.3L596.1,125z M635.8,127.6l-0.4,0.6l-0.9,0.1l-2.1-3.6v-1.2l1.2-0.8l0.8-0.2l1.2,1.4l0.1,0.7l-0.6,1.5
	C635.1,126.1,635.8,127.6,635.8,127.6z M555.9,150.4l1.6-10.6l4.2,1.4l-0.2-1.2l0.8-0.8l-0.3-1.3l-0.5-0.8l-2.1-1.2v-1.2l-1-0.2V134
	l1.3-0.3l1.1-0.8l0.4-1.3l-0.3-1.7l-1-0.9l-0.7,0.1l0.6-4.1l2.1-2.1l0.4-1.4l1.4-1.4l1,0.2l0.6-0.6l0.9,2.2l-0.2,0.7l-1,1.2l0.1,1.2
	l-0.2,1.7l0.9,0.5l0.8,2l-1.2,1.4l-0.7,1.3l0.3,0.8l1.9,0.1l0.7,1v0.5l-1.1,1.1l-0.8,1.4h0.7l0.7-1.1l1.4-0.4l1.2,0.7l-0.3,0.7
	l0.9,0.3l0.1-1.8l1.3-1.8l1,0.2l2.1,1.3l0.8,1.7l0.1,3.7l-0.6,1.4l-0.8,0.5l0.2,1.1L574,144l0.1,0.9l-1.1,1.4l0.1,1.2l-0.9,0.8v1.1
	l-3.1,0.5L568,151l-0.9-0.1l-1.1-0.5l-0.6-0.7l-0.1-1.1l-1.5,1.6l-1.4,0.2l-0.7-2.3l-0.6-0.3l-1.2,1.1l-1.2,0.5l-1.1,1.2l-1.2-0.4
	L555.9,150.4L555.9,150.4z M615,120.5l1.1,0.5l1.6,0.1l0.3,0.9l1.2,0.5l0.7-0.9l0.8,0.3l2,3.2l-0.4,2.7l-0.7,1.2l0.5,0.2l0.5-1.4
	l1-1.3l1,0.5l2-0.4l0.5-0.8l2.1-0.6l1.6,0.5l0.8,1.1l0.9,0.4l0.4,1.5l-1.9,0.4l2.1,0.5l4.5,1.5l0.4,0.8l-0.6,1l-4.1,0.4l-2.7-0.2
	l-0.3,0.6l2.2,0.5l0.5,0.4l1.5,0.4l-0.4,0.6l-1.9,0.6l2.1,0.4l0.6-0.4l1,0.3l0.6,1l2.1,1.5l0.1,0.7l-0.2,1.9l-1.5,0.3l-0.3,0.6
	l0.8,0.4l0.5-0.5l0.8-0.1l0.5,1.5l0.8,0.9l0.6-0.9l-0.8-1.9l1.2-0.9l1.1,1.5l0.5,1.2l1.8-1.8l0.9,0.5l0.5-1.1l1,0.2l0.3,0.7l1.2,1
	l0.8-0.1l0.8,0.7l0.8,0.1l1.5-0.4l-1.3-0.7l0.3-0.8l2.7-1l0.8-1.3l1.5-0.1l-0.1-0.7l1.4-0.5l0.4-0.8l0.9-1l1.5,0.1l0.5,0.6h1.3
	l1.6-1.5l1.1-0.5l4.8,0.3l-0.4,1.9l1.1,0.2l1.9-0.7l1.9,0.9l0.5,0.9l-1.3,1.2l2.8-0.6l0.8,1.1l-0.1,1.6l0.6-0.1l-0.4,1.8l-1.1,0.8
	l-0.1,0.7l-1.7,1.2l1.2,1.1l1.5-1.4h0.7l1.2,2.1l-2,1.3l-1,1.1l0.7,2l-0.3,0.7l-1.1,0.5l-2.4,0.1l-0.7,0.4l-1.7,1.9l-1.2-0.1
	l-0.7-0.4l-1.5,0.2l-1.4-0.4l-0.8-1.3l-0.4-1l0.2-1.1l-0.2-0.6l-2.1-0.9l0.5,1.1l0.7,0.5l-0.3,3.2l-0.7,0.4l-1.4,0.4l-0.8,0.7
	l-1.7-0.1l-2.1,0.8h-0.6l-0.5-1.4l-0.6,1.5l-2.1,0.4l-0.8-0.1l-1.1,0.5L648,159l-0.8-0.2l-0.7,0.5l-1-0.3l-1.5,0.1l-1.2-0.2
	l-0.2-0.9l0.3-3.1l-0.6-1.4l-0.7,1v0.9l-1.3,0.3l-0.2,1.8l-0.9,0.4l-0.2,0.5l-2,0.5l-3.2-1.6l-0.4-1.3l-0.5-0.4l-1.3,0.4l0.6,1.7
	l-1.7-0.2l-0.5-1l-1.7-0.9l-0.3-2.9l-0.5-0.9l-0.1-0.9l0.7-0.3l-2-1.8l0.2-1.9l-0.1-0.5l0.5-2.2l1.1-1.5v-0.9l-0.7-1.4l0.2-1.2
	l-0.4-1.1l-0.9-0.4l-0.9-1.5l-0.1-1.6l-0.6-1.4l-0.5-0.4l-0.8-2.1h-0.7l-1.1,1.2l-1.8,0.7l-0.4-0.4l-2.5,0.3l-0.7,0.6l-1.4-0.1
	l0.4-0.8l1-0.8l-0.4-0.5l-1,0.2l-1.6-0.7l-1.1-1.6l1.2-0.3l-0.1-0.8l-1.2-0.2l-0.9-0.9l-0.4-1l-1.4-0.1l-0.4-0.6l0.9-0.9l0.3,0.7
	l1.3-0.9l-1.1-0.5l-0.9-0.8v-0.7l1.8-1l0.1-0.5l2.1-0.9l1.2,0.3L615,120.5L615,120.5z M651.3,110.8l-1.2-2h1.1l0.9,1.2L651.3,110.8z
	 M632.4,109.7l2.3,2.7l0.4,2.2l-0.5,0.9l-1,1.2l-3.1-1.5l-1.1-1.6v-3.5l0.9-0.7L632.4,109.7L632.4,109.7z M579.9,112.3h0.8l1.2,2
	v1.2l-0.4,1.3l-1.1,0.6l-0.8-1.2l-0.8-0.6l-0.9-1.7v-1.2l-0.6-1.5l0.4-0.8l-0.5-0.5V108l-0.5-1.4l0.7-0.4l1.3,0.9l1.5,3.2l0.1,0.8
	L579.9,112.3z M614.3,107.8l0.6,0.6l1-0.8l3.1,0.3l0.5,0.6l1.1-0.8l1.5,1l0.4,0.9l-0.8,0.4l-0.5,1.4v1.2l-1.1,0.8l-1.9-0.6h-5.9
	l-1.2-1.8l0.3-1.9l1.2-0.9L614.3,107.8L614.3,107.8z M676,101.2l-0.8-0.6l0.9-0.7l0.4,0.8L676,101.2L676,101.2z M594.8,108l-0.8,0.3
	l-1.4-0.2l-0.9,0.8l-1.3-0.4l-0.9-0.7l-0.2-1l0.5-1.5l2.7,0.1l1.4,0.9C593.9,106.3,594.8,108,594.8,108z M563.5,101.6l0.4-2.8
	L565,99l0.2,0.8l-0.5,1.3L563.5,101.6z M587.9,101.1l-0.7-0.1l0.1-1.1l0.7-1.1l0.9,0.2v0.7L587.9,101.1z M564.5,95l0.9-6.1l1,1.9
	l0.8,1l0.1,1.4l-0.5,1.7l-0.7,0.5l-1.1,0.2L564.5,95z M684.5,83.8l-1.6-0.2l-0.1-1.1l1.8,0.6L684.5,83.8L684.5,83.8z M609.2,92.3
	l1.2,0.3l0.7,1h0.6l-0.4,1.5l1.2,0.9l0.7-0.7l0.8,0.2l1.2,1l1,1.5l-0.2,0.5l-1.6,1.5l0.6,0.7l1.1,1.6v0.7l-0.6,1.6h-1.1l-1.5,1.2
	l-2,0.7l-0.9-0.3l-0.8,1.5l-0.9-0.3v-1.2l0.4-0.8l-1.2-0.6l-1.3-1.4l0.3-0.9l2.5,0.3l0.2-0.9l-1.2-1l-2.1-0.6l0.2-0.3l-0.8-1.6
	l-0.1-1.1l-1-0.8V95l1,0.1l0.2-0.6l-1-1.3V91l0.7-0.8l2.3,0.4l1.6,1.1L609.2,92.3L609.2,92.3z M587.5,80.2l0.9,0.8l0.8,0.2l0.6,2.2
	l0.8,1.7l-0.3,1.5l1.8-0.8l0.8-0.8l0.8,0.2l1,1.9l1,0.8l-0.8,1.8l1,0.9l1.3-0.8l1.7,1.6l0.3,0.7l-0.6,1l1.6,0.7l-0.5,2.1l-0.5,0.3
	l0.2,1.3l-0.2,1.2L600,99l0.4,1.4l0.5,0.5l0.8,1.7l0.2,1.3l-0.5,0.7l0.3,1.2l-0.7,0.8l-2.1,0.3l-0.5,0.6l-2.3-1.5l-0.1-0.8l-0.6-1.7
	l0.2-1.4l-0.6-0.5l-0.1-1.2l-0.9,0.1l-0.7-0.9l-2.2-1l-1.3,0.7l-0.8-0.6l0.2-1.8l-3.2,0.8l-1.1,1.2l-1.7-0.7l-1.1-1.6l-0.4-1.3v-1.5
	l0.8-0.8l0.6-0.1l1.9,1.3l1.8,0.4l0.6-1.4l-0.2-0.6l-1.9-0.1l0.4-0.8l1.4,0.1l-0.1-0.6l0.8-0.5l-0.2-0.6l-1.8-0.1l-1-0.4l1.4-1.5
	l-0.6-1.9l-1.3,0.4l-0.5,1.6l-1,1l-0.6-0.5l0.6-1.1l0.9-2l-0.8-0.8l-1.6,0.6l-0.5-0.3l0.1-2.4l0.7-1.8l0.3-1.1l0.7,0.7l4.7-0.7
	L587.5,80.2L587.5,80.2z M601.6,67.4l1-0.3l0.8,0.9l0.4,2.1l-0.2,1.2l0.3,1.9l-0.5,1.5l-1.6-1v-1.6l-0.8-0.9l-1.5,0.3l-0.3-0.6v-2.2
	l0.5-1.1l0.9-0.9L601.6,67.4L601.6,67.4z M613.8,56.8l1.2,0.4l0.3,0.8l-0.7,0.5l-2.5-1.4L613.8,56.8z M621.4,45.3l1.5,1.1l1.3,1.7
	l0.4,2.3l0.6,1.7l1.3,2.4l0.2,1.2l1.2,0.7l0.3,1.3v1.2l2.5,0.5l1.5-0.2l0.9,1.2v1.2l-0.4,1.8l0.8,1.9l1.5,1.3l1.4,0.2l-2-3.3
	l-0.1-1.6l0.6-1.2l2.3,0.3l0.5,1.5l0.3,2.7l-1.3,0.9l0.4,1.2l0.6-0.3h1.5l0.9,2.1l0.3,1.2v2.6l-0.3,2l-0.6,0.7l-0.1,1l0.8-0.1
	l0.1-0.7l1.6-1.5l1-0.1l1,1.3l-0.2,0.9l0.8,0.3l-0.1-1.7l1,0.2l0.8,2.1l1.1,1.3l0.7,1.3v0.6l-0.8,0.5l-0.8,1.3l-3.1,2.1l-0.2,1.6
	l-1.3-0.1l0.4,1.2l-1.1,2l-0.5,2.4l-1.1-0.3l-0.7-2.3l-0.2-2.2l-0.7,0.2L638,89l0.5,2.6l0.8,0.9l0.2,1.1l-0.3,1.3l-0.6,0.3l-1.5-2.3
	l-0.4,1l0.8,1.9l-0.4,4.3l-0.9,0.1l-0.8-1.3l-0.5-1.3l-1.1-1.5l-1.2-2.7l-0.5,0.6l0.6,2.1l0.7,0.6l1.4,3.9l-0.6,0.1l-0.4-1.1
	l-0.6,0.2l-0.9-1.7l-0.7-0.2l0.1,3.2l-1.8,0.2l-1.1-0.5l-1.4-0.2l-1-0.8l-0.8,0.3l-0.7-1.3l-0.7-0.1l-0.4-0.7l-1.2-1.4l0.2-1.2
	l0.8,0.2l0.6-0.4l2.4-0.8l-3.1-0.8l-2.3,0.2l-1.7-2.7l0.8-0.4l1.4,0.8l0.3-0.7l-1.6-1l-1.1,0.2l-0.3-0.9l-1.1-1.4l0.2-0.7l0.9-0.7
	l1.1-0.3l0.5-1.7l0.7-0.2l1.2,0.4l1-0.4l0.8,0.2l1.4-0.3l4.3-1.2l0.3-0.7l-2,0.3l-1,0.4l-2.3,0.5l-1.8-0.6l0.1-1.1h2.1l0.8-0.6
	l1.6-0.4l0.1-0.7l-3.3,0.9l-1.4-0.5l-0.1-1.2l-1.5,1.5l-0.5-0.8h-0.6l-0.2,1l-0.9,1.4l-0.8,0.4l-0.4-0.7l0.2-1.6l-1,0.4l-1.8,1.4
	l-0.9,0.1l0.2-1.2l-1.5-0.7l-0.4-1.4v-1.2l0.5-0.3l2.8-0.9l1.2-1.4l-0.1-0.8l-0.7-0.2l-0.6,1.1l-1.3,0.7l-2.1-0.1l-0.9-1.5l-0.5-1.2
	l-0.8-0.8v-1.8l-0.7-2.2l0.2-1.4l1.1,0.2l1.1,1.2l2.6,0.7l1-0.2l0.1-1l0.8-1.1l-2.6,0.6l-0.8-0.9l0.1-1.2l-1.1,0.8l-1.1-1.1
	l-0.7-0.3l0.2-0.9l0.7-0.8l1.6-0.8l-0.2-0.6l-0.8-0.6l0.5-1.1l-0.4-0.7l2.2-0.1l1-0.3l1.2,0.9l1.7-0.7l-1.1-0.5l-1-0.9v-1.2
	l-1.4-1.2l-1-0.1v-1.9l0.6-0.7l0.1-1.3l1.1-0.9l1.2,0.9h0.9l0.3-0.7l-0.4-0.9l1-0.1l1.5,0.3l0.4-0.2l0.1-1.1l-0.3-1.1l-1.1-0.2
	l-0.5,0.4l-1.1-0.3l-0.7-0.7l0.5-2l2,0.6l0.7-0.8L621.4,45.3L621.4,45.3z M675.8,1l0.8,1.2l0.1,1.2l1.3-1.1l0.3,0.8l0.8-0.8l0.9-0.1
	l0.3,1l1.2-0.9l1.3,0.4l0.8-0.1l0.9-0.7l0.5,0.9l-1.4,3.1l-2.3,2.5l-0.1,1.2l2.7-1.4l0.2-0.8l2.4-4l0.9-0.3l0.4-1.4l1-0.6l0.4,1.6
	l1,1l0.4-1.7l1.7-0.4l0.6,1.1l-0.3,1.2l0.5,0.6l1,0.3L694,5.6h1.1l0.1,1.1l2-0.4l0.6,0.3l1.4-0.4l0.8,0.5l1,1l1,2.3l-0.1,1.3
	l-1.3,1.7l0.6,0.4l-0.4,2l-2.6,5.6l-0.6,0.1l0.2,1.1l-0.3,0.6l-2.6,0.7l-0.6,1.3l-0.1,1.1l-2,0.7l-2.5,1.5l-1.3,1l-0.7,1.2l3.2-2.2
	l1.8,0.2l0.2,0.6l-3,3.5l-0.7,1.4l-2.1,2.1V37l3.9-3.8l1.2-1.6l2.8-2.7l0.4-0.7l1.2-0.8l1.6-1.3l0.7,1.1l-0.1,1.8l-0.8,1.5l-0.3,1.4
	l-1.4,1.2l-0.6,2.4l-0.1,1.6l-1,2.3l-0.9,0.2l0.3,0.8l-0.4,1.6l-0.9,1.5l-1.2,4.6l0.1,2.6l-0.7,1l-1.9,0.5l-0.3,0.4l1.8,1l-0.3,1.5
	l-1.7,0.1l-0.9,0.7l-0.9,1.4l-1.1,0.5L685,59l1.9-0.7l1.3-1.4l0.9-0.7l0.9,1.3l-0.3,1.4l-1.8,1.4l1.7,0.5l-0.2,1.9l-0.8,1.2l-1.2,1
	l-0.8,0.9l-1.2,0.1l-1.1-0.3l-0.9-1.6l-1.1-0.3l-1.2,0.6v-0.7l-1.6-0.2l-0.2,0.4l-1.4,0.8l0.7,0.8l0.9-0.5l3.2,0.3l1.1,1.4l0.6,1.7
	l-0.4,1l-1.9,0.9l-0.1,0.7l-0.7,0.3l-1.4,0.2l-0.7,1.5h-1.6l-1.7-0.3l-0.3,0.8l0.9,0.6l-3.1,0.6l-0.8-0.8l-0.2-0.8l-0.9,0.2l1,2.1
	l-0.3,0.8l1.8-0.3l1,0.1l1.1-0.5l0.7,0.5l2.9-0.5l0.8-0.5l1.1,0.1l-0.7,1.4l1.3,1.1l0.1,0.7h-1l-0.9,0.5l-1.5-0.4l-0.9,0.1l-0.7-1.4
	l-0.8-0.4l-2.8,0.8H673l-2.7,0.9l3.5-0.2l0.8-0.2h2.1v0.9l-1.7,0.1l-1.4,0.7l-1.6,1.5l0.1,0.5l3-1.8l3.3,0.3v1l-1.3,0.6l0.1,0.5
	l1.6-0.7l1.5-0.1l1.9,0.4l0.4,3.3l0.6,0.1l-0.6,1.7l-1.2,0.7l-3.8,0.3l1.4,0.5l0.3,0.5l3.6,0.8l0.3,1l-0.9,0.3l-0.2,1.6l-0.3,0.4
	l-2.1-0.4l-0.5,0.4l-0.9-0.2l-0.8,0.7l0.3,0.6l1.9,0.2l0.5,0.2l1.7-0.5l0.4,0.4l-0.6,2.6l-1.3-0.6l-0.7,0.6l-0.1,0.8l-1,1l-1.1-0.6
	l-2.4,0.7l-1.1-0.2l-0.7,1l0.7,0.7l1.1,0.6l0.4,0.9l-0.3,0.5l1.5,1.9l-0.7,1.1l0.1,1.2l-0.7,0.9l0.1,0.8l-0.7,0.4l-1.2-0.1l-0.8,1.7
	l-1.9-0.2l-1.1,0.9h-1.5l-1.5-0.4l-1.1-0.9l-1-0.4l-0.3-0.6l-1.3-0.6v1.5l1.1,0.8l1-0.1l0.1,0.8l-2.2,0.9l0.1,1.7l1-0.4l1.6-1.7
	l3.6,0.6l0.5,0.3l0.9-1l1.1-0.2l1.6,1.1l0.3,1.1l-0.9,2l0.1,0.8l1.2-0.4l0.6,0.1l-0.1,1.4l1,0.1l-0.2-0.9l0.5-0.4l-0.1-0.9l0.6-1.1
	l0.8-0.3l0.8,0.8l0.4,1.5l0.8,0.6l-0.1,0.8l0.4,1.8l-0.8,0.6l-0.4,1.3l0.3,0.5l-1.1,1.3l-0.6-0.5l-0.1-0.9l-0.7-0.2l-0.4,2.5
	l-0.5,0.3l-0.4,2l-0.8-0.2l-1.8,1.8l-0.4-0.3l-1.5,1.7h-0.9l-0.9-0.6l0.8-2.9l-0.1-0.5l-2.1-1.8l-0.4,1.2l-0.5,0.2l-1.5-0.1
	l-1.1,1.7l-1.9,0.5l-1.3-1.1l-0.4-2l-0.5,0.1l0.4,2.9l-1.6-0.1l-1.6-1.8l-0.7,0.4l0.3,1.4l-1.2,0.4l-0.7-0.3l-0.9-1.7l-0.3,1.6
	l0.5,0.7l2.2,1.1v0.5l-3,0.7l-0.2-0.5l-2.9-0.6l-0.8,0.1l-0.8-0.6l-0.1-1l-0.7,0.1l-0.3,2.1l-1.4-0.3l-0.4-1.1l-1.4,0.1l0.4,0.8
	l-0.6,1.1l-3-0.7l0.1-1.5l-1.1-4l-0.5,0.5l0.5,1.2l0.6,2l-0.3,0.7l-1.2,1l-1-0.2l-2-2.1l0.2-1l0.6-1l-0.7-2.7l0.2-0.4l1.7-1.4l0.9-1
	l1.4-2.1l0.7,0.4l0.9-0.6l1.4,0.3l0.3-1.1l0.8-0.7l-1-1.8l-1.2-0.3l-0.5-1.3l0.4-0.9l-1.4-1.9l-0.7-0.4l-0.2-2.7l0.4-0.4l2.9-1.6
	l1.2,0.1l2.4,1.4l1,1.2l1,3.4l1.6,1.5l1.5,0.1l0.9,0.9l1.1,0.2l-0.7-1.2l2-0.6l2.2,0.6l-0.2-0.7l-1.2-0.5l1.4-1.8l1.2-3.5l0.7-4
	l-1.1-0.9l0.4,1.7l-0.6,0.7l-0.4,1.6l-0.1,1.3l-0.5,1.8L656,109l-1.3,0.6l-1-0.3l-1.5,0.4l-0.4-1.1l-1.7-1l0.1-2.3l-0.7-0.2l0.1-1
	l-1.4-1.1l1.9-2.1v-1.7l1.2-0.9l-1.2-0.5l0.4-1.8h-0.7l-0.6,2.6l-0.7,1.5l-2.4,1.2l-0.2-1.7l0.8-1.3l-0.5-0.2l-0.6,1l-0.8-0.1
	l-0.7,1.5l-2.5,0.2l-0.4-3.4l-0.1-2.1l1-1.7l0.4-1.8v-1.1l0.9-1.8l0.4,0.1l1.6-0.8l0.8,0.1l1.5-1.7l0.7-0.2l1.2,0.8l3.2,0.1l1.6,1
	l0.6,0.7l1.4,0.3l0.7,1.2l1,0.7l0.3-0.6l-1.4-1.6l-1.2-0.9l-1.2-0.5v-0.7l0.7-0.2l2,0.1l1.2-0.8l0.8-0.1l-0.1-2l-0.7-0.6l-0.5,1.9
	l-1.3,0.8l-1.5-0.8l-2.3,0.5l-1.1-0.4l-1,0.3l-0.9-1l-0.8-0.3l-0.2-0.8l0.8-1.1l1.1,0.1l0.8,1.3l0.9-0.5l-1.7-1.7l-0.7-0.1l-1-3.7
	l-1.4-1.2l-0.7-1.7v-0.5l-1.1-1l-1-0.4l-0.7,0.3l-2-0.8l-0.2-1l-0.1-2.2l0.4-0.7l-1-1.3l-0.4-1.8l0.3-3.1l1.6-0.5l1.9,1.1l2.1-0.5
	h1.8l0.8,0.2l1.6,1.7l0.9,1.2l1.5,1.2l1.9,2l1,2l1.5,2.4l0.6-0.9l2.7,0.9l-0.2-0.6l1.5-1.1h0.5l0.4-1.2l-2,0.7l-1.4,0.9l-2.6-1.6
	v-0.7l-0.5-1.8l0.5-0.9l-1.8-0.4l-0.6-0.4l-3-3.6l-0.8-1.6l3.3-1.7l1.1-0.3L659,57l-0.1-0.6l0.9-0.5l2.9-0.9l0.9-0.6l1.8-0.2
	l0.1-0.7l-2.3,0.1l-3.4,0.8l1.3-1.9l0.9-0.4l1.4-1.6l0.9-0.6l1.8-0.9l2.7-0.8l-0.3-1l-1.2,0.5l-1.1-0.1l-1.8,0.4l-0.2,0.3l-2,1
	l-0.7-2.8l0.9-1.9l-0.2-1.2l0.7-0.6l0.6-1.8l1.1-1.3l1.3-2.1l-0.3-0.4l-2.2,2.4l-1,1.2l-0.9,2.3l0.1,1.5l-1.1,0.4l-0.2,2l0.6,0.4
	l-0.5,0.9l-0.3,2l-1.1,1.4l-0.8,0.5l-1.3,1.7l-0.9,0.8l-4.7,2.4l-0.9-0.8l0.2-1.2l0.5-0.7l1.9-1.1l0.9-1.8l-0.7-0.3l-1.4,1.5
	l-0.1,0.6l-2,1l-0.9-0.6l-0.7,0.1l0.5,1.9v1.4l-1.7,1.1l-0.9-0.3l-1.2,0.7l-1.7-0.5l-1.3,0.2l-2.1-1l0.4-2.1l1.8-4.5l1.5-1.6l2.8-1
	l0.1-0.3l3.8-1.7l1-1.1l-5,2.4l-3.3,1.1l-1.1,0.6l-0.8,0.9l-1.1,2.3l-0.1,0.7l-1.1,2l-0.5,1.9l-1.3-0.1l-1.2-0.5l-1.7-1.5l-0.9-0.5
	l-1.4-1.4l-0.3-0.9l0.5-0.4l2.4-1.1l1.7-0.1l0.6,0.2l2.6-0.7l1.1-1.3l0.8-0.3l1.1-2.1l1.8-1.6l-0.6-0.7l-0.6,0.1l-1.7,1.3l-1.6,2.4
	l-1.1,0.3l-1.3,0.9h-1.3l-5.6,1.7l-1.1-1l-0.6-1.9l1-1.5l1.2,0.7L631,46l-1.3-0.9l-0.3-0.7l0.9-0.4l0.9-1l0.9-1.8l1.1-0.5l1.5-0.3
	l0.2,0.4l1.6-0.3l-3.2-1l-0.5,0.7l-1,0.3l-1.4,1.1l-2.2,2.3l-1.6-1.3l0.1-0.3l2.4-2.7l-0.5-0.5l-1.7-0.9l-0.8,1.4l0.1,0.8l-1.2,0.5
	l-0.2-1l-1.4-0.6l0.6-2l1.5-1.4l0.3-0.8h0.8l0.3-0.7l0.9-0.5l1.7,0.6l0.8,0.8l0.5-1.3l-0.6-0.4l0.2-0.8l1.4-2.3l1.8-1l0.6,0.5
	l1.1-0.1l0.6,1.1l0.5-0.7l0.9-0.3l1.3,0.1l1.3,0.6l2.5,0.1l-5.5-2.3l-0.5-1.5l3-0.9l0.8-0.9l-0.5-0.6l-0.2-1.5l-1.1-0.4l0.3-0.9
	l2.7-0.6l0.2,0.8l-0.7,0.4l2.1,0.8l1.4,0.3l0.8,0.8l0.4,1.4l0.9,1l0.4,0.8l-0.3,1.1l2.7-0.1l-0.1-0.8l-1.3,0.3l-1.5-2.5v-1.3
	l1.1,0.8h0.5l0.9,1l1.6,1.1l2.9,1.6l1.7,0.6l1.8,2.5h0.9l-2.5-2.9v-0.8l-3-1V26l-1.2,0.1l-4.3-3.6l-0.1-0.6l0.3-2l1.4-0.5l-1.1-1.1
	l-0.3-1.4l0.6-0.4l1.7,0.6l1.7,1.6l0.6-0.5l-1.6-2.1l-0.3-0.8l-1.3-1.3l0.2-0.8l3,0.3l0.6,1.3l0.7-0.1l2.1,0.6l1.4-0.6l-3.7-0.9
	l-0.3-1.1l-1.2-0.7l-0.3-0.7l0.5-0.9l1.9-1l1.2,1.7l0.3-1.4h0.4l0.7,1.3l1.2-1.4l2,0.9l2.3,3.4l1.9,1.1l-0.4,1.8l0.4,1.2l0.6-3
	l0.4-0.8l-1.9-0.8l-2.2-3.5L658,8.1l0.5-0.5l2.1-1l0.1-0.4l2.7-0.3l2.2,0.3l1.2,1.5l0.4,0.9L671,11l0.1-0.6l-1.8-0.8l-1.4-1.9
	l-0.6-0.4l0.5-2.1l0.7-0.6L668.2,4l0.8-0.8l2.3-0.6l0.2,2.1l0.7,0.9l2,0.3L672,4.1l1.1-2.2L675.8,1L675.8,1z"/>
<path id="NT" class="st0" d="M514.1,207.1l-1.6-0.2l0.2-0.7L514.1,207.1L514.1,207.1z M492.9,216.2l-5.7,20.6l0.1,0.3l3.4,4.8l4,5.3
	l4,5.3l5,6.2l5.1,6.1l4.4,5.1l5.6,6.2l3.1,3.4l4.9,0.9l4.9,0.8l0.3,0.3l4.7,8.1l0.6,0.9l1.2,1l1.2,0.6l11.2,3.6l6.1,1.9l6.8,1.9
	l14.3,3.9L578,306l-0.2,2.4l-3.3,49.1l-6.2-0.5l-6.3-0.5l-6.2-0.6l-6.3-0.7l-6.2-0.7l-6.2-0.8l-6.3-0.8l-6.2-1l-7.7-1.2l-7.8-1.4
	l-7.7-1.5l-7.7-1.5l-7.6-1.7l-7.7-1.8l-7.6-1.9l-7.6-2l-5.8-1.6l-5.7-1.7l-5.8-1.7l-5.7-1.8l-0.6-1.4l-0.4-3.2l0.4-1.6l-1.1-0.6
	l0.1-1l-0.4-1.3l0.1-1l1-0.6l0.1-2l-1.4-0.7l-0.7,1.1l-1.7-0.4l-1.2,0.4l-2.1-1.3l-0.5-0.8l-0.8-0.1l-1,0.4l-1.9-0.2l-0.6-0.7
	l-1.1,0.5l-1.2-0.9l0.9-3.3l-0.8-0.2l0.9-1.6l0.5-2.4l-0.1-1.2l-0.7-1l-1.3-0.3l-1.7-3l0.1-1l-0.1-1.4h-0.6l-0.3-2.8l-0.4-1.2
	l-0.8-0.3l-0.7,0.5l-1-1.4h-0.8l-0.1-2.8l0.8-0.5l-0.3-0.8l1-0.7l-0.6-0.7l-0.6-1.2l0.2-0.9l-0.5-2.6l1.8-2.3l-1.2-0.7l0.2-1.2
	l-0.6-2.2l1.4-0.2l1-1.1l-0.1-2.1l-0.6-0.2l0.1-1l0.5-0.9l-1.1-1.3l-0.5-1.5l-0.9-0.9l0.2-1l-0.4-1.6l0.6-2.2l-0.3-1.5l-0.9-1
	l-0.6,0.5l-1.2,0.1l-0.7-1.1l1.1-0.9l-0.7-0.7l-0.3-2.2l-1.1-1.4l-1.2-0.7V256l0.8-0.3l0.3-1l1.5-1.2l-0.8-0.8l0.4-0.6l-0.6-1.3
	l1.1-0.3l0.7-1l1.3-0.4l0.8-1.2l0.6-0.3l0.2-1l-0.2-1.7l-0.6-1.3l0.6-0.6l1-0.1l-0.6-1.5l-0.6-0.1l-1.1,0.8l-1-0.4l0.9-1.1l-1-0.4
	l-1.9,0.3l-0.9-0.6l0.5-1.1l-0.3-0.4l1.1-0.7l0.7-1.8l-1.1-0.7l1-1.4l0.5,0.2l0.4-1.3l0.5-0.1l-0.3-1.6l0.1-0.9l0.7-0.8l-0.2-2.9
	l-6-2.9l-4.2-2l0.1-0.9l0.7-1.5l1.2-1l0.2-1.6l0.9-1.9v-1l-0.5-0.6l0.3-1l7-14.7l1.6,1.1l0.6,0.9l0.6,1.6l1.2,1.1l0.1-0.8l-0.5-1.9
	l-1-0.7l0.1-1.6l1.4-0.1l-0.6-1l0.5-1.5l0.8-0.2l0.3-0.6l1.4,0.1l0.7,1.2l0.6,0.1l0.4-1.6l1-0.6l1.3,0.5l1,0.5l0.5,0.9l0.6-0.6
	l-0.2-0.7l1.1-1.3h1l-0.4,2l1.2,1.3l-2.2,1.3l-0.5,0.9l2.3-0.1l0.6-0.6l0.9,0.1l1.2,0.6l1.6-0.9l0.3-1l0.8-0.7l1,0.5l1-0.9l1.5,1.5
	l0.4-0.4l1.4-0.1l1.6-1l0.8,0.1l0.4-0.7l0.7,0.4l0.6,1l1.6-2.2l1.5-0.1l1.6,0.4l-0.3,0.8h1.1l0.6,0.7l1.2-1.1l0.8-0.3l0.6,1.8
	l-0.9,1l-0.7,0.3l-5.5,1.4l-0.4,0.6h-0.9l-1.4,1.2l-0.3-1.1H443l-0.7-0.4l-1.7-0.1l-1.4,1.3l-0.1,0.8l-1.3,0.1l-2.3-0.1l-1.3,1.4
	l-0.7,1l-0.4-0.6l-0.8,0.2l-0.5,1.1l-1,0.8h-0.9l-0.1,0.7l1.7,0.4l1.1-0.3l1.6,1.6l0.9-0.5l-0.4-1l-1.2,0.1l-0.1-0.7l0.7-2l1,0.2
	l0.6-0.4l1,0.2l0.7-0.6l0.6,0.1l1.7-0.3l1-0.9l-0.3-0.6l1.6-0.4l0.6,0.8l1.5-0.3l0.8,0.6l-0.7,2.2l1.6-1.5l1.9-1.1l1.2-1.4l0.8,0.2
	l2.5-0.2l0.7-0.3l2,0.7l-0.6,1.5l0.6,0.8l2.7-1.8l1.9-1.1l0.3-1.5l1.6-0.8l0.5,0.3l2.1-0.1l-1.7-1.5l-0.2-1.4l0.2-0.9l1.1-1.3
	l0.7,0.1l1.4,3l0.6,2.5l0.1,3.8l-0.4,3.4l1,3.9l0.9,2l1,0.6l0.9,1.4l1.6-0.4l0.4-0.9l-0.7-0.5h-1.6l1-0.8h1.1l0.3-0.7l-0.7-0.4
	l0.6-1.2l0.6,0.3l1.2-0.4l0.3-1l1.2-1.4v-1.6l1.6,0.1l0.2-1.1l1.4,0.7l-0.2,0.9l-0.7,0.5l-0.6,1.4l0.2,0.9l-1,1.5l0.9,0.8l1.1-0.1
	l-0.3,0.9l-0.7,0.3l-0.8,1.1l-1,0.6l-0.5,1.4l1.2,0.7l0.6-0.3l2.4,0.8l1.5-1.4l0.8,0.4l1.1-2.3l0.1-1.4l1.2-0.6l2.1,1.2l2.1,0.3
	l2.6,1.6l2.4,2.7L492.9,216.2L492.9,216.2z M550.9,182.4l-0.2,1.2l-0.5-1L550.9,182.4z M551,181.7l-0.8-1.1l-1.1-0.4l-0.6-1.5
	l0.1-1.2l3,0.9L551,181.7L551,181.7z M550.4,186.1l-5.5,35l-7.5-1.3l-4.3-0.7l-0.3,1.2l0.4,0.7l-1.3,0.2l-1.1-0.1l0.4-2.4l-6.4-1.2
	l-8.2-1.8l-5.4-1.2l-0.4,1.5l1.5,4.1l-0.9-0.5l-1-1l-0.6-1l-0.1-3.3l0.6-0.7l2.1-0.7h2.2l2.4-0.3h2l4.2,0.3l1.2-0.1l1.6,0.3l0.5,0.7
	l1.8,0.6l0.9-0.2l2.1,1.2l0.2-0.3l1.7,1.1l1.8-1.2l1.4,0.9l1,0.2l1-1.3l-1.2-0.1l-1.1-1l-0.1-1.2l-2-0.9l-0.5-0.7l-1-0.1l-1.1-1.4
	l-1.6-0.2l-0.6-0.9l-1.2-0.6l-1,0.5l-0.7-0.4l-0.9,0.5l-1.7-0.2l-0.9,0.2l-0.9-0.3l-1.7,0.1l-0.6-0.5h-1.5l-0.7-1l-1.6-0.3l-0.6,0.3
	l-1.4-0.3l-1.7-0.8l-1,0.1l-0.4-0.5l0.1-0.9l-1.7-2.5l-0.5-2.1l0.2-0.7l3.2-1.4l1.5,0.2l1.9-0.4l0.9,0.2l0.6-0.6l4.4-0.5l-0.5-0.9
	l1.6-0.6l-0.3-0.6l-1.7,0.3l-1.8-0.1l-1.3,0.4l-1-0.3l-0.9,0.3h-1.6l-0.6-0.3l-2.1-0.4l-0.5-0.9l0.5-0.9l0.7-0.4l1.5,0.5l0.3-0.8
	l-1.1-1.4l-0.8,0.8L511,191l-0.4-1.1l-1.5-0.4l-1.1,0.2l0.2-2.2l0.9-2.1l1.8-1.4l0.6-1.1l2.7-0.6l0.3-1.2l-0.3-0.7l-0.8-0.2
	l-0.5-1.3l0.7-1.1l1.8-1.4l1.6-0.6l1.5-1.2l1.4-1.4l2.2-0.3l1.3-0.7l2.1-0.8l2.1-0.6h0.8l4.8-1.8l1.2,1l0.6,2v1.4l-0.8,2.1l-0.4,2.5
	l-1-0.1l-0.6,0.6v1.1l-0.9,0.6l0.6,0.6l1-0.5l1.1-0.2l0.3,0.4l1.2-0.6l0.7-0.7l-0.7-0.5l1.3-1.8l1.1-1l0.8-0.2l1.9,1.2l0.6,0.8
	l1.2,0.5l2.1,1.7l0.2,0.9l1,0.5l-0.7,2.3l-1,0.7l-0.5,0.9l-1.4,0.7l-0.3,0.4l0.9,1l0.6-1.3l0.8-0.5l1.4,0.5l1.9-2.1l1.3,0.9l0.8,0.1
	L550.4,186.1L550.4,186.1z M509,144.7l1.6,1.2l0.4,1.5l2.5,3l1.8,1.3l1.7,0.4l0.3,0.4l-0.2,1.8l0.2,1.2l1.1-1.5l-0.2-0.8l0.8-0.5
	l2.9-0.2l2.4,1.4l1.7,2.6l2.7,6.2l1,1l0.6,1.9l0.2,0.9l-0.9,1l-1.4,0.8L526,169l-1.1,0.1l-3.8,2.1l-0.8-0.1l-3.4,1.8l-1.9,0.7
	l-0.6,0.7l-0.8-0.1l-2.4,1.2l-0.5,1.4l-0.7,1l-0.6,1.4l-2.3,1.2l-1.9-0.3l-0.1,1.1l-0.4,0.7l-1.5,1.5l-0.1,1.2l-0.6,1.8l-0.1,0.7
	l-1.2,2.1l-0.7,0.5l-1.8,0.5l-2.1,0.1l-0.5-1.4l-0.4-0.2l-2.8,2.3l-2.5,0.5l-1.1,1l-1.4-0.3l-0.5-0.9l-0.3-1.9l0.1-3.2l-0.4-1.3
	l-0.1-1.7l-0.3-0.9l-2.2-2.2l-0.9-1.7l-0.9-1v-0.6l-1.3-0.4h-1l0.9-1.7l0.1-0.9l0.7-1.1l1.1-0.9l1.8-2.1l1.3-0.8l0.5-1l0.6-0.8
	l0.2-1.9l1.4-0.5l1.4-0.1l0.2-0.7l-0.9-0.9l-0.1-1.2l1.2-1.1l1.5-2l0.5-1l1.4-0.6l0.7-0.6l0.6-1.8l1.6-1.1l-0.1-1.2l-1-0.5l0.1-1.1
	l-0.3-2.6l0.3-0.6l0.3-2.2l-0.6-0.4l0.1-1.1l2.2,0.2l0.7-0.2l2.5,0.5l0.8-0.2l2.7,0.7l2.2,0.1L509,144.7L509,144.7z M530.3,125
	l0.6,0.7l-0.9,1.6l-0.9,0.9l-1.2,1.9l-0.1,0.6l-1.7,1.5v0.4l-1.8,1l-1.9-1.5l-0.7-0.7l0.5-0.9l1.7-1.2l2-2.1l2.1-0.5l0.4-0.7
	L530.3,125L530.3,125z M559.2,129.1l-0.4-0.9l-0.8-0.5l0.2-1.5l1.6-1.2L559.2,129.1L559.2,129.1z M557.5,139.8l-1.6,10.6l-1.5,0.7
	l-1.4,0.1l0.2,0.8l-1.9,1.4l-1.7,0.4l-1.2,0.9l-2.5,0.3l-0.9,0.4l-2.4-0.2L540,154l-1.6-2.2l-0.6-1.3l-0.1-0.7l1.1-1l2.1-0.7
	l1.1,0.1l1.3-0.6l0.5-0.7l1.4-0.4l2.9,0.2l1.1,0.5l0.9-0.2l1.3-1l0.2-0.5l1-0.7l0.5-1.1l-1.1-0.4l-0.7,1.1l-1.3,0.4l-1.5-0.3
	l-1.2,0.2l-1.2-1l-0.8,0.8l-0.9-0.1l-2.4,0.3l-0.9-0.2l0.2-1.9l1-2.3l-0.9-0.6l-1,2.1l-0.6,0.5l-0.9,1.7l-2.3,1l-0.8-0.7l0.4-1.4
	l-0.9-0.3l-0.8-0.9v1.8l-0.9,0.9l-1.5-1.5l-0.4-1.3l0.6-1.4l-1.2,0.2l-1.1,0.7l-2.6-1.8l-0.4-0.8l0.1-0.8l2.1-2.2l0.4-0.2l2.9,0.7
	l1.6,0.3l2.1-1.2h1.3l-0.2-1h-1.3l-1.9,0.7l-4.1-0.9l0.1-1l1.9-2l4.2,0.2l0.9,0.2h2.7l0.2-0.6l-5.2-0.5l-1.8-0.9l0.2-0.9l1-0.3
	l-0.6-1.2l1-1.5l1.5-0.3l1.2,0.5l1.4,0.3l1,0.6l0.6-0.6l-0.8-0.6l-1.8-0.4l-0.4-0.9l0.5-1.2l1.6-1.2l4.1,0.2l0.8,0.6l0.1,1.4l-0.4,1
	l0.4,1.2l-0.1,1h1l1.5-0.7l1.3,0.1l0.7,1.3l1.1,0.7l-0.4,0.9l0.3,1.3l0.9,0.5l0.8,1.1l0.1,0.9l-1.6,0.5l2.5,1l0.2,1.7l-0.4,1.5
	l0.3,1.4l3-0.2l0.3,0.6L557.5,139.8L557.5,139.8z M547.3,116.2l0.7,0.9v1.1l-1,0.9l-0.6-0.4l-2.1-0.5l-1.5-0.9l0.3-0.7l1.7-0.9
	l2.1,0.2L547.3,116.2L547.3,116.2z M540.8,105l1.1,1l0.9,2l-0.7,0.7l-0.9,0.1l-0.6,0.5h-1.2l-0.4,0.8l-0.1,1.7l1.1,1.4l0.2,0.7
	l-1.1,0.4l-0.7-0.9l-0.5,0.4l0.9,1.6l0.1,2.1l-1,1l-1,0.5l-1.6-0.2l-1.4,0.5l-0.1,2.7l-1,0.9l-0.9,0.3l-0.7-0.4l-0.7-1.1l-0.4-1.3
	l0.4-1.6l0.4-0.4v-1.1l0.5-1.2l1.1-1.4l-0.3-0.8l-0.9,0.8l-1-0.4l-0.5,2l-0.2,1.2l-0.7,0.2l-1.8-0.1l0.7,1.7v1.4l-0.5,0.8l-1.2,0.3
	l-0.2,1.3l-0.8,0.6h-0.7l0.1-1.2l-0.3-1.6h-0.9l0.1,1.6l-0.7,1.1l0.5,1l-0.9,0.6l-0.4,1l-0.9,0.8h-1.5l-0.8-0.5l0.9-1.8l-0.1-0.7
	l-0.9-0.5l0.6-2l-0.5-0.8l-0.5,0.5l-0.6,1.5v0.8l-2,0.5l-0.1-0.7l-1-1.2l-1.1-0.1l-0.5,0.7l-1,0.4l-1-1l1.5-1.6l0.2-0.6l-1.2-1
	l0.4-0.8l0.8-0.3l0.6-1.3l1-0.6h1.6l1.5,0.5l1-1.7l1-0.8l0.3-0.9h1.1l0.6-0.5l1-0.1l0.9-0.7v-0.9l0.9-0.3l0.9-1.5l0.6-0.1l0.7-1.1
	l2-1.1l0.7-1.4l0.8-0.5l1.2-0.3l2.2,0.6l1.3-0.2l0.2,0.9l0.9,0.3l0.6,1l1.5-0.2l1-1l-1.2-0.4l-0.3-1.1l0.9-0.1l2-1L540.8,105
	L540.8,105z M548.9,97.5l0.7,0.4l0.3,1.5l0.6,0.4l0.2,1.6l-0.5,0.6l-1.8,0.7l-0.4-0.2l-1.5-2.8l-0.5-1.8l1.2-0.2l0.6-0.7l1.4-0.2
	L548.9,97.5z M563.9,98.8l-0.4,2.8l-0.9,0.4l-2.2,0.1l-0.2,0.8l0.4,1l2.1,0.1l-0.2,2.5l-0.2,0.9l-0.7,1.1l-2.6,1.1l-1.3-0.6
	l-0.5,0.4l-2.7,0.8l-1.2-0.9l-0.2-1.5l-1.2-0.5l-0.7-1l0.3-2.4l0.4-1.1l-0.2-1.2l0.5-1.5l1.2-0.2l2.5-1h2.1l0.6-0.4l2.9-0.2
	L563.9,98.8L563.9,98.8z M565.4,88.9l-0.9,6.1l-1.2,0.5l-1.7-0.8l-0.8-1.4l-1,0.9l-0.3,0.9l-1.2-0.2l-0.2-1l-0.8-1l-2.1,0.5
	l-1.2,0.7l-0.6-0.3l-0.1-0.9l0.6-1.1l4-1.9l1.1,0.4l1.5-0.8l0.7-1l2.1-1l1-0.1L565.4,88.9L565.4,88.9z"/>
<path id="YT" class="st0" d="M416.9,197.3l-7,14.7l-0.3,1l0.5,0.6v1l-0.9,1.9l-0.2,1.6l-1.2,1l-0.7,1.5l-0.1,0.9l4.2,2l6,2.9
	l0.2,2.9l-0.7,0.8l-0.1,0.9l0.3,1.6l-0.5,0.1L416,234l-0.5-0.2l-1,1.4l1.1,0.7l-0.7,1.8l-1.1,0.7l0.3,0.4l-0.5,1.1l0.9,0.6l1.9-0.3
	l1,0.4l-0.9,1.1l1,0.4l1.1-0.8l0.6,0.1l0.6,1.5l-1,0.1l-0.6,0.6l0.6,1.3l0.2,1.7l-0.2,1l-0.6,0.3l-0.8,1.2l-1.3,0.4l-0.7,1l-1.1,0.3
	l0.6,1.3l-0.4,0.6l0.8,0.8l-1.5,1.2l-0.3,1l-0.8,0.3v0.6l1.2,0.7l1.1,1.4l0.3,2.2l0.7,0.7l-1.1,0.9l0.7,1.1l1.2-0.1l0.6-0.5l0.9,1
	l0.3,1.5l-0.6,2.2l0.4,1.6l-0.2,1l0.9,0.9l0.5,1.5l1.1,1.3l-0.5,0.9l-0.1,1l0.6,0.2l0.1,2.1l-1,1.1l-1.4,0.2l0.6,2.2l-0.2,1.2
	l1.2,0.7l-1.8,2.3l0.5,2.6l-0.2,0.9l0.6,1.2l0.6,0.7l-1,0.7l0.3,0.8l-0.8,0.5l0.1,2.8h0.8l1,1.4l0.7-0.5l0.8,0.3l0.4,1.2l0.3,2.8
	h0.6l0.1,1.4l-0.1,1l1.7,3l1.3,0.3l0.7,1l0.1,1.2l-0.5,2.4l-0.9,1.6l0.8,0.2l-0.9,3.3l1.2,0.9l1.1-0.5l0.6,0.7l1.9,0.2l1-0.4
	l0.8,0.1l0.5,0.8l2.1,1.3l1.2-0.4l1.7,0.4l0.7-1.1l1.4,0.7l-0.1,2l-1,0.6l-0.1,1l0.4,1.3l-0.1,1l1.1,0.6l-0.4,1.6l0.4,3.2l0.6,1.4
	l-5.7-1.8l-8.5-2.8l-8.4-3l-5.7-2.1l-5.5-2.1l-5.6-2.2l-5.6-2.3l-5.5-2.3l-8.2-3.5l-5.5-2.5l-5.4-2.5l-8.1-3.8l-10.7-5.4l-0.1-1.5
	l1.7-1.9l0.1-0.6l-3-1.4h-0.7l-1.6,0.6l-0.7-0.1l-1.6-2.3l-1,0.5l-2-2.2v-0.4l58.6-108.6l1.3,1.3l1.8,1.1l1.4,0.5l0.6,1l2.1,2
	l0.1,1.8l0.5,1l0.1,1.2l0.5,1.1l0.6,0.3l0.4,1.6l2.9,4.4l0.9,0.5l0.5,1.1l0.5,0.5L416.9,197.3L416.9,197.3z M410.4,183.5l-1.7-0.1
	l-0.1-0.7l1.1-0.5L410.4,183.5z"/>
<path id="ON" class="st0" d="M719.1,520.3l0.7,1.1l1.3-0.7l0.7-0.8l1.4-0.7l0.3,0.7l1.3,0.7l0.3-1.1l1-0.7l0.5,0.9l1.3,0.4l1.4,1
	l-1.2,2.6h-1.8l-1.3-0.2l-1.5-0.8h-0.9l-2.1-0.8l-2.2,0.1l-1.1-0.5H716l-0.1-0.5l2.2-0.7H719.1L719.1,520.3z M715.2,520.6l0.4,0.5
	l-0.8,0.8l-0.9-0.6l0.4-0.8L715.2,520.6L715.2,520.6z M708.7,517.6l1.7,0.1l0.6,0.5l-0.6,0.8l-0.3,1.1l-1.4-1.4V517.6L708.7,517.6z
	 M694.4,502.2l-1.1,0.5l-1.6,0.1l0.5-1l1-0.1L694.4,502.2L694.4,502.2z M676.1,491.7l-0.3,0.5l-1.3,0.1l-0.9-0.6l0.9-0.7l1.5-0.1
	L676.1,491.7L676.1,491.7z M735,457.7l-1.3-0.9l-0.8-1.5l0.2-1.5l-0.3-0.8l1.1-1.2L735,457.7z M735.1,458l6.6,36.3l0.6,2.9l-0.3,1.5
	l1.5,1.8l0.5,2.2l1.4,1.6l1.3,1l0.7,1.3l0.8,0.6l0.7,1.2l1.9,1.2l0.6,0.6l3.2,0.3l1.6-0.3l3.8,0.1l1.7,0.5l1.7,1l0.2,0.6l1.4,1
	l1.5,0.3l0.1-1l1-0.3l0.7,1.5l0.5,0.3l0.7,1.4l1.9,0.3l0.8,0.4l0.9-0.8l1.4-0.3l1.6,1.1l0.9-0.2l0.4-0.8l2.5-1.6l0.6-0.5l1.7-0.7
	l0.9-0.7l1.3-0.2l0.9-0.5l2.3,0.4v3.1l1.3,0.9l-1,1.1l-0.1,0.7l-1.2,1.4l-1.3,0.1l-1.9,1.5l-1,1l-2.7,4l-0.5,1.1l-1,1.4l-2.2,1.3
	l-1.6,1.4l-1.6,0.6l-1.3,1l-0.9,1.2l-1-1l-0.1,1.6l1.1,0.2l0.8,0.6l-1.5,1.3h-1l-1.2-0.8l-1.1,0.4l-1.1-0.8l-1.6,0.6l-0.8,0.5l-3,1
	l-1.7,1h-0.9l-3.8,1.8l-1.9,2.5l-0.8,0.1l-0.9,1.1v0.9l-1,2.1l0.9,0.9l1.3,0.2l1.8-0.2l1.1-1l1-0.4l0.3,2l0.4,1.1l1.1,0.5l-0.2,0.7
	l-1,0.7l-1-0.2l-2,0.4l-1.6,0.7l-0.7-0.2l-1.2,0.7l-2.9,1.1l-1.5,2l0.1,0.4l2.9-0.2v0.4l-2.2-0.1l-1.3,0.3l-3.7-0.5l-2.5,0.4
	l-1.1,0.4l-1.4,1.2l-1.8,2.2l-0.4,1.3l-0.5,0.5l-1.1,0.2l-2.4,1.9l-1.3,1.9l-0.7-0.5l-0.8,0.2l-0.9,0.7l-0.8,0.1l-1.9-0.7l-0.1-2
	l0.1-0.7v-0.1h0.1l1-0.6l1.5,0.2l1.3-0.2l1.5-0.6l-0.1-1.8l-1.5,0.1l-0.5-0.5l0.5-0.3l0.5-0.9l-0.1-2l0.2-2.4l2.1-1.2l1-1.6l1-0.7
	l1-1.6l0.1-1.6l-0.5-1.9l-0.4-3l-0.5-1.6l0.5-0.9l0.2-2.1l0.7-1.2l0.7-0.5l0.1-0.7l0.6-1.7l-0.4-1.9l-0.8-0.8l-0.1-1h-0.7l-0.3-0.7
	l-1.4-1.3l-0.2-0.8l2.5-0.4l0.1,1.2l0.6,1.4l1.2,1l1.1-0.2v1.3l0.8-0.1l0.5,0.6l-0.2,1.5l1.3-1.3l1-0.2l0.6,1l1.3,0.5l1.8,0.2
	l1.2,0.4l0.6-0.8l-0.1-1.9l-1.1-0.6l-0.1-0.7l1.2-0.8l0.8,1h1.1l-1.1-2l-0.8-0.1l-1.3-1.2l0.3-1l-1.2-0.7l0.6-1.2l-0.9-0.8l-1.4,0.8
	l-0.9-1l-0.1-1l-1.3-0.8l-1.2-1l-0.5-1.3l-1.9-0.9l-3,0.3l-2.9-0.2l0.4-0.9l-3.8,0.4l-2.6-0.1l-0.7-0.4l-2.1,0.7l-0.3-0.4l-2.2,0.6
	h-2.2l-3.1-0.5l-0.6,0.2l-1.8-0.4h-1.6l-0.6-0.9l0.3-1.2l-0.7-0.1l-0.8,0.6h-1l-0.5,0.7l-0.9-0.9l0.2-0.7l0.8-1.2l-1.1-1.4l1.2-0.3
	l0.2-0.7l-0.6-0.5l-1.9,0.1l-0.9-0.3l0.2-1.9l0.9-2l-1.2-1.3l-1.7-0.8l-1-1v-1.2l0.6-1l-0.3-0.7l0.6-0.8l-0.7-0.6l-2.8,0.5l-1,0.5
	h-2.6l-0.9-0.3l-2-1.9l-1.5-3L688,493l-1.7-2.1l-0.8,0.5l-1.3-0.7l-0.8,0.7l-1.6-0.2l-2,0.4l-1.4-0.8l-0.6,0.2l-1-0.6l-2.2-0.4
	l-0.6-0.4l-2,0.1l0.6,1.7l0.8,0.4l0.2,1.1l-0.6,1.2l-1.8,0.7l0.7-2.2l-0.4-1.1l-0.6-0.1l-0.8,0.9v1.8l-0.4,0.2l-0.1,1.2l-0.5,1.7
	l-1.1,0.1l0.2-2.3l-2.5,1.2l-0.5,0.5l0.2,1.3l-0.8,2.6l-0.8,0.3l-1.1,1.3l-1.7-0.1l-0.8,0.4l-0.6-0.2l-0.8-1l-0.8-0.2l-2.8,0.6
	l-2-0.1l-0.5-1.4H652l-1.1,0.7l-1.5,1.3l-1.2,0.4H647l-0.9-0.6l-0.6-1l-1.6-0.4l-0.7-1.2l-0.9-0.2l-1.1,0.5l-0.6,1l-1.2-2.5
	l-1.4,0.1l0.4-1.1l-1.9-0.5l-0.7-0.4l-2.2-0.1l-1.5,0.4l-0.3,0.7l-2.1,0.4l-0.9-1.4l-2.8-0.2l-0.6-0.7l-1.3,0.2l-0.9-0.3l-1-0.9
	v-1.3l-0.8-3l-0.1-1.4l-1.2-0.8l-1.4-0.1V483l-0.3-36.3l9.9-10.4l0.9-1l13-17l8.7-11.2l8.6-11.2l1.6,1.1l0.6,0.7l1,0.5l1.4,1.2
	l2.3,1l2.8,4l1,0.9l1.2,0.5l2.6,0.5l0.5-0.1l4.2,1.8l2.7,0.5l1.7,0.7l1.8,1.8l2.1,0.5l0.3,0.7h1.2l2.4,0.3l2.6-1l1,0.1l1-0.7
	l1.1,0.4l1.9,0.2h1.9l1.3-0.4l0.8,0.1l0.9,0.8l0.9-0.4l1.6,0.1l1.4,1l0.4,1.8l0.5,0.6l-0.3,3.2l-0.4,2.4l0.2,1.9l0.5,0.9l1.1,0.8
	l1.3,2.9l-0.3,2.6l0.8,2.1l0.5,1.7l-0.7,0.8l-0.2,1.4l0.2,1.7l1.5,0.7l1,0.9l0.7,1.4l0.9,0.4l0.9,1.1l1.2,0.7l0.2,1.7l-1.1,1.1
	l1.7-0.3l1.1,1.2l1.9,0.7l1.3,0.3l0.6,1l1.2,0.5l1.6,1.4l0.9,2l0.7,0.6l0.3,1.4l-1,0.7l-0.9,1.5l0.4,0.4l0.9-1.7l1-0.8l2.1,0.2
	l3,1.5l0.4,0.7L735.1,458L735.1,458z"/>
<path id="QC" class="st0" d="M793.8,508.5l-0.9,1.9l-1.1,0.1l1.2-1.8L793.8,508.5z M794.5,510.4l-0.4,1.1h-1.5v-0.6l0.7-0.8l0.2-0.8
	l1-1.1V510.4L794.5,510.4z M810.1,490l-0.5-0.4l1.1-1.8l0.4,0.9L810.1,490z M838,467.5l-0.6,0.5l0.1,0.9l-0.9-0.1l-0.9,0.8l-0.9,0.2
	v0.6l-2.3-0.4l-0.2-0.7l-3.8,1.2l0.3,0.8l-2,0.6l1.2,4.2l-0.8,1.8l-1.4,1.3l-2,1.5l-0.4-1.4l-1.4-0.1l-0.3,0.3l-3.2,10l0.4,3.3
	l-0.6,1l-0.3,1.9l0.5,0.7l-0.3,0.9l0.2,0.8l0.7,0.8l-0.8,1.8l0.3,0.6l-1.2,1.4l-0.5,1.1l0.1,1.2l-0.7,1.1l0.3,1h-1l-1,0.6l-0.3,0.7
	l-1.3-0.1l-0.6,0.8l-0.2,2.8l-6.3,1.8l-8.4,2.2l-10.9,2.8l1.7-1.3l0.4-1l1.8-1.5l0.8-0.2l0.9-1.5l1.4-1.5h1.1l0.3-0.7l-0.4-0.8
	l0.3-0.9l-0.1-1.7l1-1.5l0.3-2.6l0.7-0.4l0.7-1l1.5-0.8l0.2-0.9l1.1-1.6l1.5-1.2l0.4-1.3l1.2-0.9l1-1.5l1.1,0.2l2.9-2.2l0.8-1.4
	l1.4-0.6l0.4-0.7l2.5-2l0.7-1.5l0.9-2.7l0.7-0.9v-1.2l1.2-2.2l1.2-3.1l-0.1-0.5l0.4-1.4l0.8-0.7l1.3-2.9l1.4-2.2l0.6-0.2l1.2-1.5
	l0.2-0.8l0.7-0.6l0.8-1.3l1.6-1.2l2.5-2.8l0.9-0.4l1.9-1.8l3.1-3l2.6-1.9l2.4-1.1l2.1-1.2l4.6-1.1l2.9,0.2l2.1,0.7l1.7,0.8l-0.3,0.9
	l-1.9,0.1l2.5,1l1.2,0.8l-0.6,0.4v0.7l0.8,0.2l-0.6,1.5l-1.4,0.9l-0.9,1.1l-0.1,1.5l-0.9,0.7l-0.4,0.8l-1.7,2l-1.1,0.5l-0.7-0.4
	l-2.3,0.1l-1.6-0.5l-0.7,1.5l-1.3,0.2l-1.8,0.7L840,466L838,467.5L838,467.5z M850.3,438.7l1.5,0.1l4.4-0.7l3.3-0.2l0.7,0.3l2.9,0.1
	l1.6,0.8l1-0.1l0.6,0.5l2.6-0.3l2.5,1.6l-0.8,1.3l-0.5,0.1l-2.6,1.2l-2.2-0.1l-1.3,0.4l-3.3,0.2l-1.7-0.4h-2.5l-0.9-1.2l-1.3-0.7
	l-1.4-0.3l-4.2-0.2l-0.8-0.5l0.2-0.6L850.3,438.7L850.3,438.7z M794.7,351.1l-0.7,0.3l-0.4-1.3l0.5-0.3L794.7,351.1L794.7,351.1z
	 M781.2,344.2l1,0.4l-0.6,1.7l-1.3-1.7L781.2,344.2L781.2,344.2z M804.6,321.2l-1.6,1.1l0.9,0.9l1.1,0.4l-0.9,1.3l0.2,1l1.1-0.1
	l0.2,0.7l-0.6,1l0.8,1.4l-0.5,0.6l0.3,1.2l1.8,0.9l1.2-1.5l0.6,0.4l-0.6,0.9l0.3,1.8l1.1,2l0.9,0.2l0.6,0.8l-0.5,0.3h-1.7l-0.5-0.3
	l-0.6,1.2l0.6,0.8l0.6-0.6l1,0.4l1.6-0.6l0.7,1.1l1,0.1l0.6-1.2l0.8-0.4l0.5-0.8l0.9,0.1l1.1,0.8l-0.2,0.5l-2.8,1.6l-0.1,1.2
	l0.7,0.6l0.7-0.8l0.8,0.8l-0.8,1l-0.1,0.9l-0.6,0.6l0.1,1.6l-0.8,0.7l0.4,1.4l1.2-0.2l0.4,0.8l1.4,1.7l1.1-0.2l0.5,0.7l1.6,0.1
	l0.4,0.3l-0.5,1.2l0.4,1.2l0.7,0.7l-0.5,1l1,0.9l0.2,1.6l-0.4,0.5l0.3,1.7l0.5,0.4l-0.6,0.9l-0.1,2l1.7,1.3l0.3,0.7l-0.6,1.6
	l0.6,1.2l1-0.2l0.1,2.1l1-0.3h1.3l1,0.3l-1.4,1.6l1.1,1.1l0.6,0.3v1.3l0.7,0.2l0.3,2.2l2.4-0.4l-0.8,1l-0.4,1.2l0.9,0.2l0.3,1.9
	l0.6,1l0.1,0.9l-1.5,0.1l0.4,1.3l-0.3,0.7l1.7,1.1l-0.9,1l-1.6,0.1l-0.7-0.7l-2.2-0.3l-0.5,1.1l-1.3,0.3l-0.3-0.9l-1.6-0.9l-1.2,0.1
	l-0.3,1.5l-1.6,1l0.5,0.7l-1.6,0.8l-1.1-0.8l-0.6-0.8l-1.4,0.2l-1.6-0.5l-3.2-2.2l-0.6,0.7v1.4l1.1,1.2l-0.2,0.7l1.3,1.2l-0.6,1.1
	l-1.6-0.3l-0.8-0.8l-2.3-0.8l-0.1-0.7l-1.1,0.4l0.4,0.7l1.6,1.5l1.6,0.8v1.5l-0.6,0.8l0.3,1l-1.9-0.8l0.3,1.3l-1.4,1.2l1.6,2.5
	l-0.5,0.6v1.5l1.7,0.9l0.9,0.8l-0.1,0.9l1.4,0.5l1.1,1.2h2.2l1.3,0.8l-0.6,1l0.6,0.5l0.5,2.2l-1.4-0.1l-0.9,0.3l-0.4,0.7l1.4,2.6
	l2.2,0.4l1.6,0.9l0.6-0.7l-0.3-0.7l0.6-0.6l-0.3-1.7l0.5-0.2l0.5-1.4l0.6,0.3l1.1,1.6l-0.8,0.3l0.9,1v1.9l1.3,2.5l-0.8,0.5l1.5,2
	l0.7-0.4l-0.8-1.4l2,0.8l0.3,0.9l0.8,0.1l0.9-0.9h0.8l0.5,0.6l1.6-0.6l1,0.6v0.7l0.9,0.1l1,0.8l1.1-0.2l0.7,0.2l0.5-0.8l1.4,0.1
	l1.6,1.1l1-1.3l0.1-1l-0.7-0.7l-0.8-1.6l0.9-0.5l-0.7-1.5l0.6-0.4l-0.8-0.9l-0.3-0.9l0.2-1.1l-1.2-2l-0.2-1.2l0.2-0.6l3.1-2l1.7,0.5
	l0.4,0.4l-2.8,1.4l-0.8,0.9l-0.4,1.5l1.2,1l1.5-0.3l0.8,1.1l1.1,2l-0.3,0.6l10.7-4l11.8-4.8l7.8-3.3l8.4-3.6l6.4-2.9l2.9,6.3
	l-0.6,0.3l-0.8-0.8l-1.2,0.8l-0.3,0.5l-1,0.8L888,404l-0.9,2.1l-1.5,1.4l-1.7,0.2l-0.9,1.8l0.1,1.3l-1.2,1.4l0.8,2.9l-0.9,0.2
	l-0.3,1l-1.1,1.4l-0.3,2.5l-1.4,1l-0.2,1l0.5,0.6l-1.2,1.3L877,424l-0.8,0.8l-1.1,0.3l-0.5,0.7l-1.3,0.5h-1l-0.4,0.9h-0.8l-0.8,0.8
	l-1,0.3l-2.5,2.2l-1.4-0.9l-2.7,0.7l-1-0.2l-0.7,0.6l-3,0.8l-2.3,0.9l-0.3,0.8l-1.3,0.7l-0.7-0.3l-0.6,0.4l-1.1-0.3l-1.9,0.7
	l-0.9,0.8l-0.8,0.3h-1.8l-0.9,0.8l-1.8,0.8l-2.9,0.4l-3.2,1.9l-1.5,0.1l-0.5,1l-0.8,0.6l-1.4,0.4l-0.6-0.5l-0.8,0.8l0.1,0.7
	l-0.7,0.5l-0.2,1.2l-1.3,1.2l-0.1,2l-0.6,0.2v1.1l0.3,0.7l-0.2,0.9l0.5,1.7l-0.6,1.7l-2.5,1.1l-0.5,0.6l-1,0.1l-1.2,0.7l0.1,1.8
	l-1,0.6l-0.5-0.3l-1.5,2l0.3,1.1l-1,0.4l-1.1,1.9l-0.5,0.5v1.9l-0.6,0.3v1.6l-0.6,2.3l-1.2,1.9l-1,0.4l-1.8-0.9l-1.2,0.4l-2-0.7
	l-0.5,0.3l-2.6-0.1l0.3,0.9l2-0.6l1.6,0.1l1.1,0.4l1-0.3l0.9,0.1l0.6,0.6l1.2,0.1v1.6l-0.3,2.8l-1.5,2.6l0.1,1.2l-1.8,1.3l-0.2,2.3
	l-0.5,1.7l-1.5,1.6l-1.3,2.4l-0.1,0.7l-0.8,1l-0.8,0.3l-1.6,1.1l-1.5,0.2l-1.1,1.5l-1.2,0.8v1l-1.4,1.2l-0.8,1.5l-1.8,0.9l-1,0.9
	l0.1,1.2l-1,0.7l-0.4,2.5l-1.2,2.1l-1.4,0.6l-0.6,0.5l-0.8,1.9l-1.1,1.2l1.2,1l-1.4,0.7l-0.3,0.7l-1,0.9l-1.3-0.9v-3.1l-2.3-0.4
	l-0.9,0.5l-1.3,0.2l-0.9,0.7l-1.7,0.7l-0.6,0.5l-2.5,1.6l-0.4,0.8l-0.9,0.2l-1.6-1.1l-1.4,0.3l-0.9,0.8l-0.8-0.4l-1.9-0.3l-0.7-1.4
	l-0.5-0.3l-0.7-1.5l-1,0.3l-0.1,1l-1.5-0.3l-1.4-1l-0.2-0.6l-1.7-1l-1.7-0.5l-3.8-0.1l-1.6,0.3l-3.2-0.3l-0.6-0.6l-1.9-1.2l-0.7-1.2
	l-0.8-0.6l-0.7-1.3l-1.3-1l-1.4-1.6l-0.5-2.2l-1.5-1.8l0.3-1.5l-0.6-2.9l-6.6-36.3l-0.1-0.3l-1.1-5.9l-0.4-1l0.6-0.4l0.7-1.1
	l0.8,0.2l0.1,1.3l0.9-0.4l1.1,0.9l1,0.4l0.5-1l-0.3-1.6l-1.1-0.4l-0.9-1.4l1.2-0.8l-0.6-1.2l0.9-0.5l0.1-1l0.8-0.8l0.2-1.1l-0.4-1
	l0.3-0.9l-0.5-1.5l-0.9-0.4l-1.4-1.3l-0.1-1.5l-0.3-1l-0.9-0.4l-1-1.7l0.3-1.6l-0.7-2.1l-0.5-0.8l-1-0.5l1.2-0.8l-1.1-0.6l0.1-0.9
	l-0.4-0.7l0.1-1.1l-1.3-3l-0.8-0.5l-1-0.2v-0.7l-1-0.5l-1-2.6l-0.1-0.5l-1.2-1.2l1.2-1l3.3-1.8l0.5-0.8l3-2.1l1.4-1.6l2.2-2.1
	l0.7-1.5l2.2-3.1l0.6-1.2l-0.4-0.3l0.6-1l1.9-4.1l0.1-2.8l-0.1-1.7l-0.5-1.9l-0.4-2.3l-1-2.9V381l-0.8-2.1l-2.3-3.8l-0.2-0.8l-1.7-2
	l-0.7-1.1l-1.6-1.2l-0.3-0.1l-1.3-1.2l-1-0.5l-3-0.9v-0.5l-1.8-0.8l-0.4-0.6l-1.6-0.1l-0.2-0.7l0.4-0.8l-1.1-2.6l1.6-0.5l-0.1-1.2
	l0.8-0.8l-0.1-1.3l1.6-1.4v-1.5l-0.9-0.8l0.8-0.8l-0.1-1.1l-0.6-0.6l2.1-0.4v-1.5l0.7-0.2l-0.7-1.1l0.2-1.7l-0.5-0.3l-1.3,0.3
	l-0.4-0.7l0.5-1.4l-0.7-0.5l-0.6-1.1l-0.8-0.6l0.7-1.2l-1.8-1.4l1-1.7l-1.6-0.1l-0.4-0.5l-1.6,0.9v-1l1.6-3.2V332l-0.8-2.8l1-0.3
	l-1-1.8l-0.8-0.8l-0.7,0.1l-1.4-2.2l-1.1-3.4l-0.3-1.7l0.5-1.3l0.5-0.3l2.1-2.8l2,0.1l1.2-0.2l1.3,0.2l1.1,0.4l3.9,0.5l0.9,0.3
	l2-0.2l0.9-0.5l2,0.2l1.5,0.8l0.3-1l1.7-0.4l0.6-1.1l0.8-0.3l0.7-0.8l0.4-1.2l1.1-0.5l0.8,0.9h1.2l1.2,0.5l0.2,0.6l1,0.7l1.1,0.3
	l0.8-0.3l1,0.4l0.6,2l2.3,0.2l2.1,2.1l0.1-0.5l2,0.3l0.9,0.7l-0.8,0.7l-0.5,1.7l1.2,0.3l0.2,1.2l2.2,1.1l0.9-0.5l2,0.7l1.1-0.5
	l1.1,0.4l1.4-1.3l1.4,0.1l1,2.4l1,0.3l0.2-1.3l0.6-0.9l-0.1-1.3l0.6-0.4l1.6,2.1l0.3,1l-1.1,1.2l-0.5,0.8l0.7,1.5l-0.7,0.6l0.7,0.7
	l0.4,1.5l1.3,1.1l0.4,1.5l-0.6,0.8l-0.6-0.1l-0.2,0.9l-2.5,0.5l1,0.5h0.8l1.6-0.8l0.5,0.8h0.9l0.2,2.2l1,0.1l-0.1,1l-0.6,0.7l-0.1,1
	l0.6,0.2l0.8,1.7l0.9-0.9h1.3l0.5,1.2l-1.6,1l1.5,3.3l-0.4,1.3l-0.7,0.2l-0.5-0.6l-1.7,1.2l-0.5,0.9l1.5,0.2l1,1l0.7-1.5l0.1-0.8
	l0.6-0.6l0.4-1.1l0.7-0.6l1.7-0.5l0.6,0.1l0.5-0.7h1l2.1,0.8l0.7,1.9l0.6,0.5l0.9,1.3l0.1,2.5l0.4,0.1l-0.3-3.6l1.6-0.2l0.1,1.1
	l1.5-0.7v1.2l0.8,0.8l1-0.8l1.5-1.7l0.6-0.3l0.3-1.5l2-0.7l-0.4-1.1v-1.5l0.5-0.3l-0.3-1.4l0.2-0.3l2.2,0.9l-0.2-0.7l0.2-1.9
	l0.7-0.5l0.1-0.9l0.7-1.1l-0.8-0.9l-0.6-1.2l1.2-0.4l-0.7-1.1l0.8-0.3l0.1-0.7l-0.6-1.3l-1.6-2.1l0.5-1.2l1.3-1.6l-0.4-1.4l0.3-1
	l-0.1-1.5l-0.3-0.8l0.5-0.8l-0.3-0.7L804.6,321.2L804.6,321.2z"/>
<path id="NB" class="st0" d="M850.4,502.9l0.9,1.3l-0.9,0.5l-0.5-0.3l0.1-1.3L850.4,502.9z M855.9,462.8l-0.2,1.4l-1-0.3l0.1-0.7
	L855.9,462.8L855.9,462.8z M867,482.3l-0.8,0.6l-0.4,1.7l-0.7-0.3l-0.2,1.2l-1.4,0.1l-0.4,1.1l-0.2,1.6l-1,0.3l-0.5,1.1l-2.1,2
	l-1.3,2l-2.4,2.3l-1.3-0.5l-0.6,0.3l-0.1,1.3l-1.6,1.7l-0.7-0.6l-1.7,1.7h-1.4l-0.6-0.9l-0.8,1.4l-0.9-0.7l-0.7-0.1l-0.7,0.7l-1.4-1
	V498l-0.9-1l0.4-0.6l-0.4-0.8l-1.3,0.2l-2.1-1V494l-0.5-1.5l-4-11.9l-1.8-1.5l-2.3-1l-0.9-0.1l-0.4,1l-1.2,0.4l-0.6,0.8l-0.8,0.4
	l-1,0.9l-1.5-0.8l2-1.5l1.4-1.3l0.8-1.8l-1.2-4.2l2-0.6l-0.3-0.8l3.8-1.2l0.2,0.7l2.3,0.4v-0.6l0.9-0.2l0.9-0.8l0.9,0.1l-0.1-0.9
	l0.6-0.5l0.9-0.2l2.3-1.9l1.1,0.5l2.5,0.2l1.2-0.2l0.8,0.4l0.9,1.3l0.6,0.4l1.1-0.5l0.6-1.2l0.9-1.1l1.3-0.8l0.4,0.6l1.2-0.7
	l1.4,0.6l-0.4,0.6l-0.5,1.8l0.5,0.7v2.4l-0.5,0.4l-0.3,1.1l-1.2,1.7l3.8-1.3l0.6,1.1l-0.4,1.4l0.8,1l1.5,0.7l0.4,1.2l1.4,1.5
	l0.2,0.9l1.3,0.8l2-0.7l1,0.5l0.9-0.6l1.8-0.1l-0.4,1.2l-1.2,0.4L867,482.3L867,482.3z"/>
<path id="NS" class="st0" d="M892.4,477.7l0.2,0.9l-0.9,0.3l-0.5-0.4L892.4,477.7z M865.8,484.6l0.4-1.7l0.8-0.6l1.1-0.3l1.1,0.8
	h1.2l0.5-0.5l1.2-0.4l0.1,0.6l2.3,0.2l0.8-0.8l2.6-0.8l1.7,0.4l0.9,0.4l0.5-1l0.7-0.6l1.8-3l1,1.9l1,0.3l1.5-0.1l0.1-0.8l0.8-0.4
	l1.7,1l0.8,0.2v0.7l-0.8,0.7l-0.1,0.9l2.3-1l1.5-0.1l-0.4,1.3l-2,0.7l-0.2,0.9l-1.3,0.8l-0.3,0.8l-1.3,0.4l-0.3,1l-1,0.4v0.5
	l-2.4,1.9l-0.2,0.8l-0.8,0.2l-0.6,1l-1.1,0.6v0.9h-0.7l-0.6,0.8l-1.6,0.7l-0.2,0.6l-1.1,0.3l0.1,0.7l-1.4-0.3l1.1,1.4l-0.1,0.5
	l-1.2,0.7l-0.9-0.4l-1,0.4l-0.5-1.1l-1,0.1l-0.2,1.1l-0.7,0.5l-0.7,1.2l0.6,1.4l-0.7,3.4l-0.6,0.4l0.1,0.8l-1,0.9l0.4,1.1l-0.5,0.3
	l-0.7,1.8h-0.6l-1,1.1l-0.7-0.1l0.3,1.3l-0.7,1l-1.5,0.9l-1.2-0.5l-0.3-1.1l-1.7-1.3l-0.1,1l-1.3,0.4l-0.9-1.5l-0.3-1.3l-0.9-0.9
	l0.1-1.6l-0.2-1.3l0.3-1.3l1-1.8l-0.9-0.1l0.9-1.6l3.3-4.4l0.2-0.6l1.9-2.4l1-1l1.4-1l0.9-1.5l0.4,1.4l1.4,0.6l0.4-1.5l2-1.5
	l0.7-0.8l1.9-0.7l-1.3-0.4l-2.6,0.9l-1.1,0.2l-1.8,0.8l-0.5,0.6h-1.6l-0.7,0.6l-0.1,0.8l-1.8,0.3l0.3-1.7l1.1-1.4l1.1-2.2l0.1-1.1
	L865.8,484.6L865.8,484.6z M889.3,460.9l0.5,1h1.6l0.8,2.7l-0.1,3.2l1,0.6l-0.7,2.3l-0.5,0.7l-0.2,2l-1,0.7l0.3,1.1l-0.8,0.8
	l0.8,0.7l0.5-0.9l1.8-0.3l-0.2-0.9l1.4-2.9l-1.9,1.9l-0.7-0.5l0.9-1.3l-0.4-0.8l0.5-1.9l0.6-1.2l1.7,0.3l0.6-0.4l1.8,0.1l0.6,0.7
	l-0.2,0.8l0.8,0.2l0.1,0.8l-0.6,1l-1.1,0.6l0.7,0.6l-0.7,0.8l-0.1,0.7l-0.9,1.2l-2.2,1.8l-0.3-0.2l-2,0.7l-0.7,0.9l-0.8-0.2
	l-0.8,0.7l-1.5-1.2l-1.1-1.8l-1-1.5l0.1-1.4l0.9-1.6l0.2-1.9l0.3-1l0.2-4.4l0.5-0.8l0.4-2.6L889.3,460.9L889.3,460.9z"/>
<path id="NL" class="st0" d="M932.5,433l0.3,1.3h-0.7L932.5,433z M931.5,426.5l2.6-0.9v0.8l-2.3,0.9L931.5,426.5z M921.8,410.7
	l0.8,0.5l-0.4,0.9l-1.1,0.9l-0.5-0.8l0.6-1.4L921.8,410.7L921.8,410.7z M899.8,396.5l0.6,0.6v0.7l1.4-0.7l-0.6-0.4l1.2-1.2l0.8-0.1
	l0.4,2.4l-0.5,0.2l0.1,1.1h-1.5l-1.1,0.6l0.3,1.6l1.1-0.7l1.1,0.1l0.4,1.3l-0.1,2l-0.4,2.8l0.1,1l-0.3,1.1v1.1l-0.4,1.7l0.2,2.2
	l-0.6,2.5l0.5,0.8l0.2,1.8l-0.4,0.6l1.5,0.4l0.6-3l0.4-0.1v-2l0.6-1.8l0.9,0.4l3.2,0.6l0.8-0.9l0.3,0.8l-0.5,1.3l-0.5,0.5l-0.2,1.2
	l0.4,0.4l-0.2,0.9l3.2,1.4v-1.1l2.6-2.2l0.6,0.7l-0.2,1.1l0.5,1.4l1.1-0.9l2-1.3l0.3-2.9l0.9,0.3l0.2,0.9l1.4-1l1.2-1.4h3.1l2.2,0.5
	l-0.1,1.6l0.1,1l-0.9,1.2l0.1,0.7l-0.7,0.6l1.2,1.6l-0.4,0.4l0.9,0.9l0.6-1.4l0.6,0.4l-0.9,1.7l1-0.3l2.2,0.1l-0.1-2.1l0.5-0.2
	l1.1,0.7l0.2-1.6l0.7-0.7l0.6,0.5l0.4,2l-0.5,1.3l-1.2,0.5l0.2,0.9l-0.9,1.1l-0.3,1.1l-0.9,0.1l-1.2,0.9l0.7,0.8l1.6-0.7l0.8,0.5
	l0.2,2.4l-0.2,1.6l2.6,0.9l0.1-2.1l-0.5-0.5l0.2-1.9v-1.7l0.6-1l0.8-0.5l0.1-1.1h0.8l-0.3,2.7l0.3,0.7l-0.2,1.6l0.5,0.6l-0.1,1.3
	l1.8,1.2l0.7-2l0.1-0.7l-0.5-2.1h0.8l0.4,0.9h0.5l0.3,1l0.7,0.2l0.2,2.4l-0.3,0.4l0.6,2.5l0.5,0.7l0.6,2.8l-0.3,0.9l0.1,0.9
	l-0.9,0.8l-0.8-0.6l-0.9,0.2l-0.2,1l-0.5,0.9l-0.7-0.2l-0.4-1.2l-0.6-0.7l-0.1-0.8l-0.8-0.7l0.3-1.9l-0.7-0.2l-0.7,3l-0.8,2.4
	l-1.1,0.3l-0.7-2l-0.2-4.7l-0.6-1.7l-2.4-2.5l-1.1,0.1l-0.5,4.7l0.2,1.5h-0.7l-0.9,1l-0.9,0.2l-0.3,1.5v1.6l0.3,1.1l-0.5,0.7
	l0.1,1.3l-0.9,1.1l-1.4,0.3l-0.3,0.5l-1.5,0.7H923l-0.5-0.6l0.3-1.5l1.2-0.9l1.2-1.1v-0.5l0.7-1.5l-0.4-1.7l0.3-0.8l1.4-1.3l0.4-0.9
	L927,436l-1.1,0.8l-2.7,0.1l-0.3,1l0.8,0.3l0.2,1.2l-1.2,0.8l-0.5-0.5l-0.7,1l-2.3,0.1l1-1.3l-0.8-0.9l-0.8-0.5l-0.9,1.3l-0.3,1
	l-1,0.8l-2.2,0.7l-0.3,1.4l-0.5,0.2l-1.2-0.1l-0.9,0.6h-1.8l-1.7,0.7l-0.3,0.6l-1.1-0.2l-0.8,0.4l-2,0.3l-0.7,0.9h-0.6l-1.9,1.2
	l-1.2,1.1l-1.1,0.5l-1.2,1h-1.7l-0.5-1.6l-1.4-0.9l0.5-2l1.3-1.9l1.1-2.9v-0.8l0.7-1.3l-0.2-0.7l-1.5,0.1l-0.8,0.7l-1.7,0.9l-1,0.9
	l-0.1-1l1.1-2l0.5,0.7h1.3l0.6-0.8l-0.5-1.4l0.2-1.9l-0.3-1.6l0.2-0.8l2-1.3l-0.2-1.1l-1.3-0.5l-0.5-1.1l-0.1-0.9l0.7-1.8l0.5-0.6
	l-0.7-1.2l0.1-6.1l-0.5-3.9l0.3-2.3l-0.6-0.6l1-0.9l0.6-2l-0.5-1.1l0.4-0.6l-0.3-1.1l0.4-0.5l-0.5-1.1l0.1-1.1l1.1-1.7l2-2.5
	L899.8,396.5L899.8,396.5z M890.1,376.2l1-0.2l0.2,1l-1.5,0.1L890.1,376.2z M869.8,367.1l0.5,1l-0.2,0.5l-0.9,0.3l-0.9-0.8
	L869.8,367.1L869.8,367.1z M844.5,361.5h0.5l0.2,1.2l-1.2,0.1l-0.3-1.4L844.5,361.5L844.5,361.5z M838.3,360l2.6-0.5v0.8l-1.8,0.1
	L838.3,360z M838.3,353.2l0.8,0.7l0.1,1l0.5,1l-0.2,0.9l-1.7-0.9l-0.4-1.7L838.3,353.2L838.3,353.2z M834.3,347.5l0.3,1l-1.1,0.3
	l-0.1-0.7L834.3,347.5L834.3,347.5z M832.5,346.9l0.9,0.7l-0.6,0.9L832,348L832.5,346.9L832.5,346.9z M832.3,343.7l0.7,0.3l-0.2,1.1
	l-1.2-0.5L832.3,343.7z M830.9,343.4l0.5,0.5l-0.3,0.8l-0.7-0.2l-0.2-0.8L830.9,343.4z M810.2,326.3l-0.5,1.1l-0.6-0.2l-0.1-1.4
	L810.2,326.3L810.2,326.3z M892.6,402.5l-2.9-6.3l-6.4,2.9l-8.4,3.6l-7.8,3.3l-11.8,4.8l-10.7,4l0.3-0.6l-1.1-2l-0.8-1.1l-1.5,0.3
	l-1.2-1l0.4-1.5l0.8-0.9l2.8-1.4l-0.4-0.4l-1.7-0.5l-3.1,2l-0.2,0.6l0.2,1.2l1.2,2l-0.2,1.1l0.3,0.9l0.8,0.9l-0.6,0.4l0.7,1.5
	l-0.9,0.5l0.8,1.6l0.7,0.7l-0.1,1l-1,1.3l-1.6-1.1l-1.4-0.1l-0.5,0.8l-0.7-0.2l-1.1,0.2l-1-0.8l-0.9-0.1v-0.7l-1-0.6l-1.6,0.6
	l-0.5-0.6h-0.8l-0.9,0.9l-0.8-0.1l-0.3-0.9l-2-0.8l0.8,1.4l-0.7,0.4l-1.5-2l0.8-0.5l-1.3-2.5v-1.9l-0.9-1l0.8-0.3l-1.1-1.6l-0.6-0.3
	l-0.5,1.4l-0.5,0.2l0.3,1.7l-0.6,0.6l0.3,0.7l-0.6,0.7l-1.6-0.9l-2.2-0.4l-1.4-2.6l0.4-0.7l0.9-0.3l1.4,0.1l-0.5-2.2l-0.6-0.5l0.6-1
	l-1.3-0.8h-2.2l-1.1-1.2l-1.4-0.5l0.1-0.9l-0.9-0.8l-1.7-0.9v-1.5l0.5-0.6l-1.6-2.5l1.4-1.2l-0.3-1.3l1.9,0.8l-0.3-1l0.6-0.8v-1.5
	l-1.6-0.8l-1.6-1.5l-0.4-0.7l1.1-0.4l0.1,0.7l2.3,0.8l0.8,0.8l1.6,0.3l0.6-1.1l-1.3-1.2l0.2-0.7l-1.1-1.2v-1.4l0.6-0.7l3.2,2.2
	l1.6,0.5l1.4-0.2l0.6,0.8l1.1,0.8l1.6-0.8l-0.5-0.7l1.6-1l0.3-1.5l1.2-0.1l1.6,0.9l0.3,0.9l1.3-0.3l0.5-1.1l2.2,0.3l0.7,0.7l1.6-0.1
	l0.9-1l-1.7-1.1l0.3-0.7l-0.4-1.3l1.5-0.1l-0.1-0.9l-0.6-1l-0.3-1.9l-0.9-0.2l0.4-1.2l0.8-1l-2.4,0.4l-0.3-2.2l-0.7-0.2v-1.3
	l-0.6-0.3l-1.1-1.1l1.4-1.6l-1-0.3h-1.3l-1,0.3l-0.1-2.1l-1,0.2l-0.6-1.2l0.6-1.6l-0.3-0.7l-1.7-1.3l0.1-2l0.6-0.9l-0.5-0.4
	l-0.3-1.7l0.4-0.5l-0.2-1.6l-1-0.9l0.5-1l-0.7-0.7l-0.4-1.2l0.5-1.2l-0.4-0.3l-1.6-0.1l-0.5-0.7l-1.1,0.2l-1.4-1.7L816,347l-1.2,0.2
	l-0.4-1.4l0.8-0.7l-0.1-1.6l0.6-0.6l0.1-0.9l0.8-1l-0.8-0.8l-0.7,0.8l-0.7-0.6l0.1-1.2l2.8-1.6l0.2-0.5l-1.1-0.8l-0.9-0.1L815,337
	l-0.8,0.4l-0.6,1.2l-1-0.1l-0.7-1.1l-1.6,0.6l-1-0.4l-0.6,0.6l-0.6-0.8l0.6-1.2l0.5,0.3h1.7l0.5-0.3l-0.6-0.8l-0.9-0.2l-1.1-2
	l-0.3-1.8l0.6-0.9l-0.6-0.4l-1.2,1.5l-1.8-0.9l-0.3-1.2l0.5-0.6l-0.8-1.4l0.6-1l-0.2-0.7l-1.1,0.1l-0.2-1l0.9-1.3l-1.1-0.4l-0.9-0.9
	l1.6-1.1l0.9,0.3l0.6,1.2v1.1l1.5-0.2l1.1,1.4l0.2,1.7l-0.4,0.3l1.1,0.7l1-0.5l0.5,0.9l1.7,0.7l0.1,1.8l1.8-0.3l1.5,1.2v1.3l1.8,0.1
	l0.1,0.7l1.2,1l1.3,0.5l1.2,1.6l-0.2,1l-1.1,1.6l1.4,0.5l1-1.3l1.3-0.5l-0.1,1.2l0.4,0.4l0.6,2.3l-2.4,1.3l0.9,0.4l2-1.7l0.9,0.6
	l1.4,0.3l-0.3,0.6l1.2,0.3l0.4-0.7l0.8,0.7l-0.2,1l1.1,0.2l1.2,1l0.2,0.6l-0.8,0.6v0.6l-1.2,0.9l-0.1,1.3l2-1.2l1.7,0.4v1.4l0.6,1.1
	h0.6l1.5-0.7l1.1,0.1l0.9,1.4l-1,0.5l-0.4,1.6l0.2,0.5l-0.8,0.8l1,0.4l-0.7,1.5l0.9,0.6l0.5,0.9l-1.5,0.2l1.5,1.2l1.7,0.5l-0.6,0.6
	l-0.7-0.2l-1.6,0.6l1.3,0.6l0.2-0.4l2.3-0.4l1-0.8l0.7,1.4l-0.4,0.4l1,1.1l1.9-0.2l0.4,0.8l0.7-0.5l1.1-0.3l0.5,0.8l1.2,0.2l0.4-1.2
	l0.5,0.2l0.7,1l-0.6,0.5l1.3,0.6l0.4,0.6l-0.1,1.2l0.5,0.3l0.1,1.4l0.4,1.5l0.7-1.4l2.2-0.9l0.4-1.3l0.9,0.3l-0.3,1.8l2.7-1.1
	l0.7,0.3l0.1-1.6h1.9l0.6,0.7l-0.1,0.8l1,0.3l0.5,0.7l1.7,0.3l2-0.6l1.1-0.5l0.7,0.5l1.9-0.9l1.7,0.7l1.3-0.8l0.9,0.3l0.2,1.1
	l-1.7,1l1.2,0.3l-0.7,0.9l-1.5,0.6l-1.7,1.1l0.1,1.4l-1.3,0.8l-1.3,1.7l-1,0.4l-2.9,2.6h0.8l3.4-2.8l0.7-1.3l0.8-0.5l-0.5,2.2
	l-0.6,0.6l-1.1,0.2l-0.3,1.2l-1.4,1.2l-1.6,2.1l-1.8,0.4l-0.5,0.9l-1.2,1l1,2.3l0.8,0.6l-1.6,1.9l1.8-0.2l0.4-0.4l0.5-2.1l2-1.6
	l0.5-1.4l1.7-1.2l0.3-0.5l-0.7-0.8l0.7-1.5V380l1.8-1.7l1.7-1.4l-1.6-0.3v-0.8l0.7-0.8l1.4-0.7l3.4-0.6l0.3-0.5l1,0.3l1.1,1.3
	l0.9,0.5l0.2,0.7l1.2,0.6l-0.1,0.7l-1.5,1.9l1.2,0.4l0.8,0.8l0.6-1l-0.3-0.8l0.4-1.6l2.2-1.2l0.4,0.9l1.5-0.2l2.8-0.8l-0.1,0.5
	l0.8,1.1l1.5,0.1l0.5,0.4l0.6,1.5l0.8,0.3l-0.6,1l-0.1,1l1.3,0.6l0.6,1l-0.9,0.6l-0.4,0.9l1.5,1l-0.6,1.1l0.8,0.4l1.8-0.6l0.9,0.3
	l-0.5,2l1.2,0.6l0.7,1.1l-0.4,1.3l-0.4,0.4l0.1,1.1l-0.9,1.2l-0.3,1l-0.8,0.6l-1,2.1l-0.5,0.3l0.1,0.8l-0.4,1.5l-0.8,0.5l0.2,0.6
	L892.6,402.5L892.6,402.5z"/>
<path id="PE" class="st0" d="M863.7,473.1l-0.3,0.6l2.6,1.2l0.1,1.1l0.7,0.5l0.7-0.1l-0.3-1.3l0.5-0.3l2.6-0.1l1.3,0.4l1.9-0.7
	l3-1.8l3.2-1.3h1l-1,1.6l-1,0.5l-0.5,1.8l-1.1,0.2l0.2,0.7l1.4,0.7l-0.5,0.4l0.3,1l-1.8,0.8l-1.5-0.4l-0.1-0.7l-0.9-0.6l-1-0.1
	l-0.7,1.1l-3.3,0.3l-1.6-0.7l-0.4-0.5l-1.2-0.2l-1.4,0.7l-0.4-1.5l-1.3-0.7l-1.1,0.5l-0.5-0.5l0.1-1l0.5-1v-0.9l0.8-1.8l1.1,1.2
	L863.7,473.1L863.7,473.1z"/>
<polygon id="_x31_" class="st0" points="781.1,749.5 781.1,749.5 781.1,749.5 781.1,749.5 "/>
<polygon id="_x32_" class="st0" points="405.8,658.2 405.8,658.2 405.8,658.2 405.8,658.2 "/>
</svg>
