<?xml version="1.0" encoding="utf-8"?>
<!-- Generator: Adobe Illustrator 24.0.2, SVG Export Plug-In . SVG Version: 6.00 Build 0)  -->
<svg version="1.1" id="Layer_1" xmlns="http://www.w3.org/2000/svg" xmlns:xlink="http://www.w3.org/1999/xlink" x="0px" y="0px"
	 viewBox="0 0 1000 902" style="enable-background:new 0 0 1000 902;" xml:space="preserve">
<style type="text/css">
	.st0{fill:#ECECEC;stroke:#000000;stroke-width:0.1;stroke-linecap:round;stroke-linejoin:round;}
</style>
<path id="MX" class="st0" d="M682.6,800.4l1,1.2l-0.2,1l-0.7-0.4l0.4-0.7L682.6,800.4z M405.7,660.4l13.1,1.7l10.5,1.3l-1.1,1.2
	l-0.4,1.1l7.7,4.7l7.4,4.5l7.5,4.4L462,686l0.5,0.2l10.3,1.7l9.1,1.3l0.8,0.1l7.5,1.1l0.7-5.3l16.9,2.3l1.4,0.7l0.5,1.7l1,1.7
	l1.6,0.8l1.2,1.4l0.8,1.4l1.7,1.4l0.2,0.9l1.8,1.9l1.3,0.6l1.3,1.4l0.7,0.4l1.1,1.6l0.2,1.4l0.9,2.1l0.6,0.9l-0.4,1.9l0.1,1.1l1,1.9
	l0.2,1.4l1.8,1.7l0.8,0.2l1.9,2.4l1.3,0.7l1.4,0.3l0.1,0.5l1,0.8l1.3,0.4l0.6,0.8l1,0.8h0.7l1.6,0.7l0.5-0.9l1.3-1.3l1-0.4l0.3-1.4
	l1.2-2.9l1.1-1.7l1.8-0.4l1.1,0.2l0.4-0.8l0.8-0.4l1.8,1.1l1.5-0.1l3.4,0.8l0.8-0.2l1.5,0.4l0.4,1.1l0.5,0.6l0.8,0.4l-0.4,0.7
	l1.6,1.1l0.6-0.1l0.2,0.9l2,1.5l0.5,1.2l0.9,0.7l0.4,2.3l1,1.4l0.2,1.2l0.9,1.4l1,3.6l0.9,1l1.2,0.7l0.7,1.7l1.2,1.4l0.2,1.2
	l0.5,0.4l1,1.2l1.1,0.4l1,0.9l0.3,1.7l-0.3,1l0.6,1.6l-0.4,1.8l0.5,1.1l0.5,0.4l0.1,1.1l1,0.5v2.7l0.8,0.1l0.6,0.5l0.2,1.5l1.3,0.1
	l0.8,0.4h1l0.6,0.8l1,0.8l0.7-0.2l2.2,0.8l0.7,1l0.8,0.5l3,0.3l1.5-0.1l1.3,0.4l2.7,2.2l1.9-1.3h1.2l-0.3,1.6v1.3l-1.7,4l-1.6,2.4
	l-2.2,8l-0.8,6l-0.1,3.3l-0.5,3.6l-0.2,2.1l0.3,3.5l-0.7,2l-0.4,0.5l-0.7,1.7l0.8,2.3l0.4,2l0.1,2.1l1.7,3.2l1.1,1.4l1.9,1.5
	l0.2,0.5l-0.3,1.7l-1,0.9l-0.4-1.1l1.1-0.8l-0.1-0.6l-1.2-1.1l-1.5-1.9l-0.9-0.4l0.5,2.3l0.9,1.7l1,0.2l-0.1,1l1.1,2.4l0.6,1.8
	l1.6,3l-0.1,0.9l0.6,1.1l1.3,1.7l4.1,4.4l2.5,3.5l0.5,1.6l0.6,2.5l0.9,2.8l1.4,1.1l1.3,1.9l0.8,0.1l0.8,2.2l0.6,2l1.5-0.5l2.7,0.6
	h3.4l1.8,1.2l0.6,0.7l2.3,0.3l1.1,1.8l1,1.1l0.6,1.2l1.3,0.5l3.9-0.8l3.2-1.3l2.1-0.7l1.1,0.1l0.1-0.8l1.6-0.4l5.9-0.2l1-0.3l1-0.9
	l0.9-1.1l2.4-0.5l0.8-0.2l4-0.6l1.4,0.1l0.9,0.7l-0.4,0.5l-1-0.3v1l1.4-0.1l0.6,0.8l1.7,0.2l1.6-0.1l0.4-0.7l2-0.9l0.5-0.8l0.2-1.2
	l-0.5-0.6l-0.7,0.2l-0.8-1.3l1.7-1.2l1.3-0.7l0.9-0.9l1.6-1l0.9-1.2l0.6-0.4l0.8-1.2v-3.8l0.4-1.2l2.1-1.8v-1.2l-0.3-0.6v-4.2
	l-0.3-1.5l0.3-2.6l0.7-1l-0.4,0.1l0.5-2.3l0.3-0.4l2.6-1.8l1.3-0.5l0.6-0.5l1.5-0.7l7.4-1.4l4.7-1.6l1-1l1.7-0.6h1.9l1.7-0.8h1.9
	l2.2,0.4v0.5l1.7-0.3l1,0.2l0.7,0.3l2.7,0.1l1.1-1.1l-0.1-1.2l1.6,0.5l0.9,1.4h1.1l0.5,2.8l0.8,0.4l-0.7,1.8l-0.4,2.1l-1.9,3.1
	l-1.7,1.7l-2.1,3.9l-0.1,1.5l0.2,2.2l-0.3,0.7l-1.1,0.9l-0.2,0.8l-1.2,0.4l0.1,1l0.8,0.5l1.2-0.3h1.6v0.8l-1,1.2l-0.6-0.3l-0.9,0.8
	l-0.2,1.6l0.6,0.2l0.7-1.2l0.8-0.2l-0.4,2.4l-0.5,1.5l-0.4,3.1l-0.6,1.2v1.8l-0.2,1.6l-0.7,1.8l-1.3-2.1l-1.7-0.5V848l0.7-2
	l-0.2-1.1l-0.4-1.1l-0.7,1l-1.8,4l-2.4,0.3l-0.5,0.5l-0.1,1.2l-0.6,1.4l-0.9,0.8l-0.4,1.6l-1.5,2.2l-2.1-1.2l-1.1,0.6v1.8l-13,0.8
	l-8.2,0.5l-0.4,0.2l0.4,6.8l-5.2,0.3l0.8,0.7h0.9l1.5,1.9l0.6,0.1l0.7,1.2l4.1,2l1.3,1.8l-0.1,0.8l1.3,0.4l0.8,0.7l1,0.1v0.9
	l-0.6,1.1l0.4,1.1l-0.6,1.3l-6.1,0.4l-8.8,0.4l-0.3,0.3l-5.1,9.8l0.1,0.7l1.6,1.9l-0.9,1.1v1.2l-0.4,1.1l0.5,1.4l-0.5,1.7l-0.5,0.3
	l-0.8-0.8l-5-4.7l-1.5-1.7v-0.4l-2-1.1l-3.1-2.9l-3-2.4l-2.3-1.7l-3.5-2.1l1.1-0.2l-0.6-0.8l-2.2-0.7l-0.6-0.9l-1.1,0.3l-1.7-1.1
	l-0.6,0.7l1.5,1.2l0.7-0.3l0.6,0.5l1.1,0.2l-0.3,0.6l-3.9-1.6h-3.2l-0.1-0.5l1.5-0.6l0.1-0.6l-0.9-0.5l-1.3,0.9l-0.6-1.2l-0.5-0.4
	l-0.8,0.4l-0.7,0.9h-0.7l-0.3,0.7l1.9,0.3l0.1,0.4l-2,0.4l-1.1-0.1l-1,0.4l-2.4,2.3l-1.6,0.2l-1.1,0.6l-3.6,1.1l-2,0.9l-1.3,0.9
	l-2.4-0.2l-1.5,0.5l-1.5-0.7l-2-0.3l-1-0.6l-1.1-0.3l-1.7-1.3l-1.3-0.4l-2.3-0.1l-0.8-0.3l-3-0.2l-3.7-2.4l-0.4-0.6l-3.9-1l-1.3-0.5
	l-2.5-3l-1,0.3l-3.4-1.2l-2.7-0.8l-2.8-0.3l-1.6-0.6l-2.9-2.4l-8.4-3.4l-3.5-1.5l-1.9-2.1l-0.9-0.6l-2.3-1l-0.4-1.1l-1.7-0.8
	l-0.3-0.9l-0.8-0.7l-0.7-1.2l-2.6-1.5l-0.7,0.1l-0.9,0.7l-4.9-1.9l-1.7-0.4l-3.2-1.7l-1-0.2l-2.8-1.1l-1.6-1l-0.7-2l-1.5-1.5
	l-0.2-1.1l-2.6-2.5l-2.2-1.4l-1.7-0.8l-0.2-1.1H514l-1.6-0.7l-1.6-1.2H510l-2.3-2l-0.5-1v-1.4l-0.7-0.4l-1.1-1.1l-1.7-2.9l-1-1.9
	l-0.1-2.1l-1-1.5l-0.4-1.2l1.5-0.8h2.9l1-0.8l0.2-0.6l-0.6-0.7l-0.7-1l-0.6,0.3l-1.1-0.6l1.5-1.7l1.1-1.2l0.9-0.3l0.4-1.7l-0.1-1.7
	l0.8-1.1l-0.8-1L506,809l-2-4.5l-0.2-1.2l0.3-2.5l-0.4-3.1L503,796l-1.4-1.9l-0.9-0.6l-1.8-2.9l-0.6-0.5l-1.5-1.9l-0.7-2.3l-0.9-0.8
	l-1.3-2l-0.5-0.2l-0.9-2.7l-1.2-1.8l-3.4-3.2l-0.2-0.5l-1.4-1.4l0.8-0.5l-0.3-1.4l-1.2,0.5l-1.2-0.7l-0.7-1.2l-1.8-0.9l-0.3-1.7
	l-1.1-1.3l-0.2-1.3l1-0.3l0.1-1.1l-0.7-0.1l-0.4-0.7l-1.3-0.1l-1-1.4l-1.1-0.6l-0.9-1.2l-0.8-0.2l-0.5-1.7l-0.9-0.4l-0.1,0.8
	l-1.2-0.3l-0.4,0.4l-0.8-1l-0.4-1.4l-2.6-2.1l0.4-1.2l0.1-1.5l1.1-1.2l0.7-1.1h0.1l0.6-0.2l0.9-0.4l0.2-0.3l-1.1-0.4l0.2-1.7
	L470,743l-0.1-0.5l-1.1-0.3l-1.6,0.4l-0.7-0.5l-0.8-1.2l-0.3-1.9l0.1-1.3L465,737l-1.2-0.1l-2-0.8l-1-1.4l-0.7-1.9l-0.6,0.1
	l-0.3-2.8l0.6-1.3l0.2-1.3l-0.7-0.9l-1.4-0.5l-0.7,0.5l-1.2-1.3l-0.7,0.2l-1.7-1.6l-1.4-3.4l-0.2-0.9l-2.3-1.3l-0.3-1.5l-1.3-1.9
	l0.4-0.7l-1.3-1.2l-0.5-1.2l-0.5-0.2l-0.3-2.7l0.3-0.7l-0.3-1l-1-0.1l-0.5-0.7l0.6-1.2l-1-1.8l-0.1-0.9l-1.1-2.8l-0.6-0.3l0.4-1
	l-0.2-0.6l0.3-1.5L442,695l0.1-1.7l-0.9-1.4l-0.7-1.8l-0.1-1.7l0.6-1.9l0.6-0.5l0.3-1.4l-0.5-0.8l-4.1-1.8l-0.5-0.7l-0.1-1.8
	l-1.9-1.6l-1,0.3l-0.8,0.6l-1.2-0.2l-2.9-2.8l-0.7-1.2l-0.9-0.2l-0.6-0.5l0.6,1l-0.5,0.2l-0.7-0.8l0.6-0.4l-0.4-0.3l-1.1-1.4
	l0.7,1.6l0.2,1.6l-1,1.4l-0.4,1.6l-0.9,2.5l0.2,1.9l0.9,1l-0.1,2.3l-0.4,1.2l0.3,1.1l-0.1,1.5l-0.9,2.7l0.6,1.5l0.2,1.3l0.9,0.9v1.5
	l0.5,0.5l0.7-0.1l1.9,2.5l0.6,0.4l1.1,1.8l0.6,0.5l1.1,2.1l-0.4,0.3l0.9,2.2l0.3,1.3l0.9,0.7v1.2l1.1-0.2l0.4,1.2l0.4,3l1,0.7h1
	l0.4,1.2l-0.5,1.1l0.6,1.2l-0.3,0.8l0.2,1.5l-0.4,1.6l0.5,1.4l0.9,1.3l2.1,1.5l0.3,0.6l0.2,1.9l0.7,1.5l0.2,1.1l1.4,0.8l0.3,0.7
	l-0.6,0.9l1.2,2.1l-0.6,1l1.4,2.6l0.7-0.4l-1-1.5l-0.2-2.3l0.4-0.1l1.4,2l0.9,0.8l-0.4,1.4l1.2,0.9l-0.4,1.3l0.6,1l-0.2,0.9l0.4,2.2
	l-0.6,1.2l0.2,2.3l0.7,0.8l0.2,1.3l0.6,1.2l1,0.3l-0.2,0.7l0.7,3.9l0.8,1.5l0.5,0.3l0.7,2.6l-1,1.4l-0.4,1.5l0.4,1.1l-0.1,1.2l1,2
	l1.6,0.7l0.5,0.8l0.7-1.1l-0.1-1.4h1.1l0.5,1.2l1.5,1.3l0.1,1.5l0.6,0.3l1.1-0.3l-0.3,1.3l1.3,2.1l-0.1,1.8l2.1,1.4l0.3,1.3
	l-0.2,1.9l-0.6,1.2l-0.9,0.9l-2.2,0.6l-0.3,0.5l-2,1.1l-0.6-0.1l-1-1.1l-0.3-0.9l-0.2-3.7l-1.1-2.9l-1-0.9l-1.7-1.2l-0.7-0.8
	l-1.5-2.3l-2-2.8l-1.8-1.6l-2.1-1.7l-1.6-2.1l-0.4-1.4l-1.6,0.7l-0.1-1.8l-1-1.7l-0.6,0.3l-0.7-0.5l-0.2-1.3l0.4-0.7l-0.1-1.8l0.3-1
	l0.7-0.9l1-4.3v-1.1l-0.4-1.3l-0.3-2.2l-0.9-0.8l-0.2-1.6l-0.9-1.2l-0.6,0.2l-1.1-1.2l-0.8-0.2l-0.3-0.6l-2.9-3.3l0.1-0.6l-0.6-1.5
	l-0.7-0.5l0.9-0.6l0.3-0.9l-0.6-0.2l-0.4,1l-1.1,1l-0.7-0.6l-1.4-0.3l-0.6,0.8l-1-0.3l-0.7-1l-0.6-2l-1.4-0.8l-0.5,0.1l-0.8-1.7
	l-1.2-0.8l-0.6-0.1l-1.8-1.4l0.2-2l-0.7-1l-1.3-0.9l-0.3-1l-0.9-1.3l-1.1-0.5l-0.3-1.3l1.4,0.1l3.1,1.4l1.1,0.2l2-0.8l0.1,1.7
	l1.2,1.1l0.4,0.6l0.7-0.5l0.9,0.4l0.5-0.6l-0.7-0.5l-1.2,0.2l-0.5-1.5l0.6-0.5l-0.5-1.6l0.6,0.1l0.5,0.1l0.3,0.1h0.1l-0.2-1.5
	l0.7-0.9l-0.6-0.7l1.4-2.2l-0.9-2.4l-1-0.4l-0.8-2.6l-0.6-0.9l-0.6-0.1l-0.6-2.2l-0.9-0.4l-1.8-3.5l-2.1-1.1l-0.7-1.4l-1.9-1.4
	l-1.7-2.1l0.3-0.8l-0.1-1.3l-0.8-0.6l0.6-1.3l0.3-1.8l-0.2-1.3l-0.8-0.8l-0.8,0.3l-0.1-1.5l0.5-1.6l0.2-2.2l-1-0.8l-0.5-1.3
	l-0.8-0.2l0.8-2.1l-0.2-0.9l-1.2-2.9l-1.2-1.7l1.2-2.3l0.2-1l-1.2-0.9v-0.8l-0.6-0.3l-0.1-1.7l-0.3-1.5l-0.6-0.5l-0.4-2.2
	L405.7,660.4L405.7,660.4z M595.9,768.7l-0.6,0.9l-1.3-0.7l-0.4,1.3l0.4,1.2l-0.4,1.6l0.2,0.8l0.8,0.5l-1.1,1.2l0.4,2.4l-0.4,1.2
	l-0.6-0.5L592,779l0.2,1.1l1.2,0.6l1.2-4l0.3-1.5l0.7-1.7l-0.1-0.8l1.4-2.8l-0.3-1.6L595.9,768.7L595.9,768.7z M413.5,715.6
	l-0.7,0.7l-0.8-1.4l1.2-1v-0.8l0.6-0.8l0.3,1.4L413.5,715.6L413.5,715.6z M384.9,699l-0.7,0.2l0.1-1.3L384,697l0.9-0.6l0.3,0.9
	L384.9,699L384.9,699z M433.9,702.4l0.9,1.1l0.3,1l-0.4,0.8l1.9,0.6l-0.3,1.9l0.6,1l-0.3,0.8l-1-1.1l-1-1.5l-1.9-3.3l0.7-1.3H433.9
	L433.9,702.4z M461.6,772.2h-0.7l-0.3-0.7l0.5-0.8L461.6,772.2z M438.9,764l1.2,0.2l1,1.1l0.5,1l-0.3,0.6L438.9,764L438.9,764z
	 M454.7,760.4l-0.1,1.8l-0.7-0.8v-1.3L454.7,760.4L454.7,760.4z M437.9,758.1l-1.1,2.2l-0.5-0.7l1.2-1.9L437.9,758.1z M451.8,747.4
	l-1.6,1.8l0.3-1.7L451.8,747.4L451.8,747.4z M445.6,708.4l-0.1,1l0.5,1.5l-1.3,2.8l-1.1-0.3l-1.9-1.5l1.2-1l0.1-1.2l0.9-1.4
	L445.6,708.4L445.6,708.4z M438.7,835.4H438l-0.9-0.8l1-1.1l0.4,0.4L438.7,835.4L438.7,835.4z M492.4,806.3l1.2,0.6l-0.3,1.2
	l-0.9-0.6V806.3z M717.8,821.7l-1.7,3.3l-0.7,0.7l-0.4-0.8v-1.3l0.7-1.4L717.8,821.7L717.8,821.7z"/>
<polygon id="_x31_" class="st0" points="781.1,749.5 781.1,749.5 781.1,749.5 781.1,749.5 "/>
<polygon id="_x32_" class="st0" points="405.8,658.2 405.8,658.2 405.8,658.2 405.8,658.2 "/>
</svg>
