<svg xmlns="http://www.w3.org/2000/svg" style="display: none;">
    <symbol id="down" viewBox="0 0 512 512">
        <title>down</title>
        <path d="M466.271,21.333L256,21.354L45.729,21.333C20.521,21.333,0,41.979,0,67.375c0,6.938,1.583,13.667,4.688,20 c34.083,69.958,91.25,169.167,141.688,256.708c26.354,45.75,51.25,88.958,69.25,121.792c8.521,15.521,23.604,24.792,40.396,24.792 c16.771,0,31.854-9.271,40.375-24.792c17.979-32.813,42.854-76,69.188-121.708c50.458-87.563,107.625-186.813,141.729-256.75 C510.417,81.063,512,74.313,512,67.375C512,41.979,491.479,21.333,466.271,21.333z"/>
    </symbol>
    <symbol id="up" viewBox="0 0 512 512">
        <title>up</title>
        <path d="M507.333,424.604h-0.01c-34.073-69.917-91.188-169.063-141.594-256.521c-26.396-45.833-51.323-89.104-69.344-121.979 c-8.5-15.521-23.604-24.771-40.396-24.771c-16.792,0-31.896,9.25-40.396,24.771c-18.01,32.875-42.917,76.104-69.292,121.896 C95.885,255.5,38.76,354.667,4.667,424.604C1.573,430.979,0,437.708,0,444.604C0,470,20.51,490.667,45.729,490.667L256,490.625 l210.271,0.042C491.49,490.667,512,470,512,444.604C512,437.708,510.427,430.979,507.333,424.604z"/>
    </symbol>
    <symbol id="logout" viewBox="0 0 512 512">
        <title>logout</title>
        <path d="M330.667,384h-21.333c-5.891,0-10.667,4.776-10.667,10.667v74.667h-256V42.667h256v74.667 c0,5.891,4.776,10.667,10.667,10.667h21.333c5.891,0,10.667-4.776,10.667-10.667V42.667C341.333,19.103,322.231,0,298.667,0h-256 C19.103,0,0,19.103,0,42.667v426.667C0,492.898,19.103,512,42.667,512h256c23.564,0,42.667-19.102,42.667-42.667v-74.667 C341.333,388.776,336.558,384,330.667,384z"/>
        <path d="M508.542,248.135l-128-117.333c-3.125-2.844-7.656-3.625-11.5-1.896c-3.875,1.698-6.375,5.531-6.375,9.76V160 c0,3.021,1.281,5.906,3.531,7.927l74.151,66.74H138.667c-5.896,0-10.667,4.771-10.667,10.667v21.333 c0,5.896,4.771,10.667,10.667,10.667h301.682l-74.151,66.74c-2.25,2.021-3.531,4.906-3.531,7.927v21.333 c0,4.229,2.5,8.063,6.375,9.76c1.375,0.615,2.844,0.906,4.292,0.906c2.615,0,5.198-0.969,7.208-2.802l128-117.333 C510.75,261.844,512,258.99,512,256S510.75,250.156,508.542,248.135z"/>
    </symbol>
    <symbol id="login" viewBox="0 0 512 512">
        <title>login</title>
        <path d="M469.333,0h-256c-23.564,0-42.667,19.103-42.667,42.667v74.667c0,5.891,4.776,10.667,10.667,10.667h21.333 c5.891,0,10.667-4.776,10.667-10.667V42.667h256v426.667h-256v-74.667c0-5.891-4.776-10.667-10.667-10.667h-21.333 c-5.891,0-10.667,4.776-10.667,10.667v74.667c0,23.564,19.102,42.667,42.667,42.667h256C492.898,512,512,492.898,512,469.333 V42.667C512,19.103,492.898,0,469.333,0z"/>
        <path d="M238.198,344.073c-2.25,2.021-3.531,4.906-3.531,7.927v21.333c0,4.229,2.5,8.063,6.375,9.76 c1.375,0.615,2.844,0.906,4.292,0.906c2.615,0,5.198-0.969,7.208-2.802l128-117.333C382.75,261.844,384,258.99,384,256 s-1.25-5.844-3.458-7.865l-128-117.333c-3.125-2.844-7.656-3.625-11.5-1.896c-3.875,1.698-6.375,5.531-6.375,9.76V160 c0,3.021,1.281,5.906,3.531,7.927l74.151,66.74H10.667C4.771,234.667,0,239.438,0,245.333v21.333 c0,5.896,4.771,10.667,10.667,10.667h301.682L238.198,344.073z"/>
    </symbol>
    <symbol id="user" viewBox="0 0 551.13 551.13">
        <title>user</title>
        <path d="m275.565 275.565c-75.972 0-137.783-61.81-137.783-137.783s61.811-137.782 137.783-137.782 137.783 61.81 137.783 137.783-61.811 137.782-137.783 137.782zm0-241.119c-56.983 0-103.337 46.353-103.337 103.337s46.353 103.337 103.337 103.337 103.337-46.354 103.337-103.337-46.354-103.337-103.337-103.337z"/>
        <path d="m499.461 551.13h-447.793c-9.52 0-17.223-7.703-17.223-17.223v-118.558c0-17.795 9.099-34.513 23.732-43.663 129.339-80.682 305.554-80.665 434.759-.017 14.649 9.166 23.749 25.885 23.749 43.679v118.558c0 9.521-7.703 17.224-17.224 17.224zm-430.57-34.445h413.348v-101.336c0-6.004-2.893-11.555-7.552-14.464-118.256-73.819-279.905-73.87-398.26.017-4.642 2.893-7.535 8.443-7.535 14.448z"/>
    </symbol>
    <symbol id="user-1" viewBox="0 0 515.556 515.556">
        <title>user-1</title>
        <path d="m348.918 37.751c50.334 50.334 50.334 131.942 0 182.276s-131.942 50.334-182.276 0-50.334-131.942 0-182.276c50.334-50.335 131.942-50.335 182.276 0"/>
        <path d="m455.486 350.669c-117.498-79.391-277.917-79.391-395.415 0-17.433 11.769-27.848 31.656-27.848 53.211v111.676h451.111v-111.676c0-21.555-10.416-41.442-27.848-53.211z"/>
    </symbol>
    <symbol id="group" viewBox="0 0 515.556 515.556">
        <title>group</title>
        <path d="m486.245 337.232c-44.199-27.886-94.804-43.186-147.101-46.048 12.091 5.66 24.059 11.637 35.408 18.798 27.345 17.228 44.337 48.428 44.337 81.405v91.947h96.667v-91.947c0-21.995-11.233-42.748-29.311-54.155z"/>
        <path d="m357.356 337.232c-97.957-61.801-230.103-61.801-328.029 0-18.093 11.391-29.327 32.144-29.327 54.155v91.947h386.667v-91.947c0-22.011-11.234-42.764-29.311-54.155z"/>
        <path d="m289.815 252.441c10.416 3.153 21.165 5.338 32.409 5.338 62.179 0 112.778-50.599 112.778-112.778s-50.599-112.779-112.778-112.779c-11.244 0-21.993 2.185-32.409 5.338 29.553 26.562 48.52 64.665 48.52 107.44s-18.966 80.878-48.52 107.441z"/>
        <path d="m273.081 65.254c44.043 44.043 44.043 115.449 0 159.492s-115.449 44.043-159.492 0-44.043-115.449 0-159.492 115.449-44.042 159.492 0"/>
    </symbol>
    <symbol id="user-2" viewBox="0 0 512 512">
        <title>user-2</title>
        <circle cx="256" cy="149.333" r="53.333"/>
        <path d="M256,0C161.896,0,85.333,76.563,85.333,170.667c0,28.25,7.063,56.26,20.49,81.104L246.667,506.5 c1.875,3.396,5.448,5.5,9.333,5.5s7.458-2.104,9.333-5.5l140.896-254.813c13.375-24.76,20.438-52.771,20.438-81.021 C426.667,76.563,350.104,0,256,0z M344.69,247.258c-7-5.479-14.22-11.034-15.732-11.914 c-17.042-10.042-43.542-22.01-72.958-22.01s-55.917,11.969-72.938,21.99c-1.522,0.891-8.749,6.452-15.753,11.935 c-17.794-20.577-28.643-47.316-28.643-76.591c0-64.698,52.635-117.333,117.333-117.333s117.333,52.635,117.333,117.333 C373.333,199.941,362.484,226.681,344.69,247.258z"/>
    </symbol>
    <symbol id="incognito" viewBox="0 0 16 16">
        <title>incognito</title>
        <path d="m15.3828.15625c-.375488-.15625-.804688-.0698242-1.08984.216797-.314941.31488-.707031.70697-2.29297.70697-1.42822 0-2.50537.849548-3.29199 1.4696-.22168.174805-.543945.428711-.669434.508301-.125488-.0893554-.333008-.293457-.478516-.436523-.625-.613709-1.56934-1.54138-3.06006-1.54138-1.64648 0-2.53027-.444275-2.79297-.70697-.287109-.286621-.716797-.373047-1.08984-.216797-.373535.154785-.617188.51947-.617188.923767 0 2.80103.443848 6.62305 4.28223 7.4765 1.56494.347595 2.13232.763123 2.50732 1.03845.294434.21582.661133.484375 1.21045.484375.549316 0 .916016-.269043 1.21045-.484863.375-.274841.942383-.690857 2.50684-1.03845 3.83887-.852478 4.28271-4.67499 4.28271-7.47601 0-.404297-.243652-.768982-.617188-.923767zm-12.3828 3.98651s2.2793-.354004 3.33331.609131c.666687.60913.666687 1.2182.666687 1.82733-4 0-4-2.43646-4-2.43646zm6 2.43646c0-.609131 0-1.2182.666687-1.82733 1.05402-.963135 3.33331-.609131 3.33331-.609131s0 2.43646-4 2.43646z" transform="translate(0 2.921)"/>
    </symbol>
    <symbol id="view" viewBox="0 0 511.995 511.995">
        <title>view</title>
        <path d="M511.487,252.737c-36.281-112.896-138.958-188.74-255.49-188.74S36.789,139.841,0.508,252.737 c-0.677,2.115-0.677,4.406,0,6.521c36.281,112.896,138.958,188.74,255.49,188.74s219.208-75.844,255.49-188.74 C512.164,257.143,512.164,254.852,511.487,252.737z M255.997,405.331c-82.344,0-149.333-66.99-149.333-149.333 s66.99-149.333,149.333-149.333s149.333,66.99,149.333,149.333S338.341,405.331,255.997,405.331z"/>
        <circle cx="255.997" cy="255.997" r="85.333"/>
    </symbol>
</svg>